M48
; DRILL file {KiCad (5.99.0-12298-gc84619cd7f)} date Tuesday, September 28, 2021 at 06:55:25 AM
; FORMAT={-:-/ absolute / inch / decimal}
; #@! TF.CreationDate,2021-09-28T06:55:25-06:00
; #@! TF.GenerationSoftware,Kicad,Pcbnew,(5.99.0-12298-gc84619cd7f)
; #@! TF.FileFunction,Plated,1,2,PTH
FMAT,2
INCH
; #@! TA.AperFunction,Plated,PTH,ViaDrill
T1C0.0157
; #@! TA.AperFunction,Plated,PTH,ComponentDrill
T2C0.0394
; #@! TA.AperFunction,Plated,PTH,ComponentDrill
T3C0.0866
%
G90
G05
T1
X4.375Y-2.78
X4.48Y-2.9
X4.5Y-2.85
X4.5Y-4.505
X4.535Y-4.4
X4.54Y-2.85
X4.55Y-4.45
X4.565Y-2.9
X4.595Y-2.78
X4.6Y-4.45
X4.62Y-4.4
X4.725Y-4.52
X6.88Y-4.0
X6.88Y-4.2
X6.95Y-4.4
X7.635Y-3.65
X7.635Y-3.8469
X7.635Y-4.1618
X7.635Y-4.339
X7.675Y-2.78
X7.78Y-2.9
X7.8Y-2.85
X7.805Y-4.505
X7.835Y-4.4
X7.85Y-2.85
X7.85Y-4.45
X7.865Y-2.9
X7.895Y-2.795
X7.9Y-4.45
X7.92Y-4.4
X8.025Y-4.52
T2
X5.15Y-2.9
X5.15Y-3.0
X5.15Y-3.1
X5.15Y-3.2
X5.15Y-3.3
X5.15Y-3.4
X5.15Y-3.5
X5.15Y-3.6
X5.15Y-3.7
X5.15Y-3.8
X5.15Y-3.9
X5.15Y-4.0
X5.15Y-4.1
X5.15Y-4.2
X5.15Y-4.3
X5.15Y-4.4
X5.95Y-3.4
X5.95Y-3.9
X6.05Y-3.4
X6.05Y-3.9
X6.15Y-3.4
X6.15Y-3.9
X6.25Y-3.4
X6.25Y-3.9
X6.35Y-3.4
X6.35Y-3.9
X6.45Y-3.4
X6.45Y-3.9
X6.95Y-3.0
X6.95Y-3.1
X6.95Y-3.2
X6.95Y-3.3
X6.95Y-3.4
X6.95Y-3.5
X6.95Y-3.6
X6.95Y-3.7
X6.95Y-3.8
X6.95Y-3.9
X6.95Y-4.0
X6.95Y-4.1
X6.95Y-4.2
X6.95Y-4.3
X7.55Y-3.0
X7.55Y-3.1
X7.55Y-3.2
X7.55Y-3.3
X7.55Y-3.4
X7.55Y-3.5
X7.55Y-3.6
X7.55Y-3.7
X7.55Y-3.8
X7.55Y-3.9
X7.55Y-4.0
X7.55Y-4.1
X7.55Y-4.2
X7.55Y-4.3
T3
X4.24Y-2.375
X4.24Y-4.92
X8.16Y-2.38
X8.165Y-4.92
T0
M30
