%TF.GenerationSoftware,KiCad,Pcbnew,(5.99.0-12298-gc84619cd7f)*%
%TF.CreationDate,2021-09-28T06:55:20-06:00*%
%TF.ProjectId,VRduino 2,56526475-696e-46f2-9032-2e6b69636164,D*%
%TF.SameCoordinates,Original*%
%TF.FileFunction,Paste,Top*%
%TF.FilePolarity,Positive*%
%FSLAX46Y46*%
G04 Gerber Fmt 4.6, Leading zero omitted, Abs format (unit mm)*
G04 Created by KiCad (PCBNEW (5.99.0-12298-gc84619cd7f)) date 2021-09-28 06:55:20*
%MOMM*%
%LPD*%
G01*
G04 APERTURE LIST*
G04 Aperture macros list*
%AMRoundRect*
0 Rectangle with rounded corners*
0 $1 Rounding radius*
0 $2 $3 $4 $5 $6 $7 $8 $9 X,Y pos of 4 corners*
0 Add a 4 corners polygon primitive as box body*
4,1,4,$2,$3,$4,$5,$6,$7,$8,$9,$2,$3,0*
0 Add four circle primitives for the rounded corners*
1,1,$1+$1,$2,$3*
1,1,$1+$1,$4,$5*
1,1,$1+$1,$6,$7*
1,1,$1+$1,$8,$9*
0 Add four rect primitives between the rounded corners*
20,1,$1+$1,$2,$3,$4,$5,0*
20,1,$1+$1,$4,$5,$6,$7,0*
20,1,$1+$1,$6,$7,$8,$9,0*
20,1,$1+$1,$8,$9,$2,$3,0*%
G04 Aperture macros list end*
%ADD10C,0.368400*%
%ADD11RoundRect,0.140000X-0.140000X-0.170000X0.140000X-0.170000X0.140000X0.170000X-0.140000X0.170000X0*%
%ADD12RoundRect,0.140000X0.140000X0.170000X-0.140000X0.170000X-0.140000X-0.170000X0.140000X-0.170000X0*%
%ADD13RoundRect,0.250000X-0.850000X-0.750000X0.850000X-0.750000X0.850000X0.750000X-0.850000X0.750000X0*%
%ADD14RoundRect,0.250000X0.850000X0.750000X-0.850000X0.750000X-0.850000X-0.750000X0.850000X-0.750000X0*%
%ADD15RoundRect,0.135000X-0.135000X-0.185000X0.135000X-0.185000X0.135000X0.185000X-0.135000X0.185000X0*%
%ADD16RoundRect,0.135000X0.135000X0.185000X-0.135000X0.185000X-0.135000X-0.185000X0.135000X-0.185000X0*%
%ADD17RoundRect,0.147500X-0.172500X0.147500X-0.172500X-0.147500X0.172500X-0.147500X0.172500X0.147500X0*%
G04 APERTURE END LIST*
D10*
%TO.C,U3*%
X114816000Y-70112000D03*
X115316000Y-70112000D03*
X115816000Y-70112000D03*
X114816000Y-70612000D03*
X115316000Y-70612000D03*
X115816000Y-70612000D03*
X114816000Y-71112000D03*
X115316000Y-71112000D03*
X115816000Y-71112000D03*
%TD*%
%TO.C,U1*%
X198644000Y-70112000D03*
X199144000Y-70112000D03*
X199644000Y-70112000D03*
X198644000Y-70612000D03*
X199144000Y-70612000D03*
X199644000Y-70612000D03*
X198644000Y-71112000D03*
X199144000Y-71112000D03*
X199644000Y-71112000D03*
%TD*%
%TO.C,U2*%
X200144000Y-115308000D03*
X199644000Y-115308000D03*
X199144000Y-115308000D03*
X200144000Y-114808000D03*
X199644000Y-114808000D03*
X199144000Y-114808000D03*
X200144000Y-114308000D03*
X199644000Y-114308000D03*
X199144000Y-114308000D03*
%TD*%
%TO.C,U4*%
X116324000Y-115308000D03*
X115824000Y-115308000D03*
X115324000Y-115308000D03*
X116324000Y-114808000D03*
X115824000Y-114808000D03*
X115324000Y-114808000D03*
X116324000Y-114308000D03*
X115824000Y-114308000D03*
X115324000Y-114308000D03*
%TD*%
D11*
%TO.C,C6*%
X116741000Y-72009000D03*
X117701000Y-72009000D03*
%TD*%
%TO.C,C7*%
X118138000Y-115316000D03*
X119098000Y-115316000D03*
%TD*%
D12*
%TO.C,C8*%
X114399000Y-113284000D03*
X113439000Y-113284000D03*
%TD*%
%TO.C,C1*%
X196949000Y-70104000D03*
X195989000Y-70104000D03*
%TD*%
D11*
%TO.C,C2*%
X200533000Y-72009000D03*
X201493000Y-72009000D03*
%TD*%
%TO.C,C3*%
X201831000Y-115316000D03*
X202791000Y-115316000D03*
%TD*%
D12*
%TO.C,C4*%
X198191000Y-113411000D03*
X197231000Y-113411000D03*
%TD*%
D13*
%TO.C,D4*%
X113030000Y-67310000D03*
X118110000Y-67310000D03*
%TD*%
D14*
%TO.C,D5*%
X118110000Y-118110000D03*
X113030000Y-118110000D03*
%TD*%
D13*
%TO.C,D2*%
X196850000Y-67310000D03*
X201930000Y-67310000D03*
%TD*%
D14*
%TO.C,D3*%
X201930000Y-118110000D03*
X196850000Y-118110000D03*
%TD*%
D15*
%TO.C,R1*%
X176020000Y-68580000D03*
X177040000Y-68580000D03*
%TD*%
D16*
%TO.C,R4*%
X113159000Y-71120000D03*
X112139000Y-71120000D03*
%TD*%
D15*
%TO.C,R5*%
X118108000Y-114173000D03*
X119128000Y-114173000D03*
%TD*%
D16*
%TO.C,R2*%
X196979000Y-71120000D03*
X195959000Y-71120000D03*
%TD*%
D15*
%TO.C,R3*%
X201801000Y-114300000D03*
X202821000Y-114300000D03*
%TD*%
D12*
%TO.C,C5*%
X113129000Y-70104000D03*
X112169000Y-70104000D03*
%TD*%
D17*
%TO.C,D1*%
X157480000Y-67460000D03*
X157480000Y-68430000D03*
%TD*%
M02*
