%TF.GenerationSoftware,KiCad,Pcbnew,(5.99.0-12298-gc84619cd7f)*%
%TF.CreationDate,2021-09-28T06:55:21-06:00*%
%TF.ProjectId,VRduino 2,56526475-696e-46f2-9032-2e6b69636164,D*%
%TF.SameCoordinates,Original*%
%TF.FileFunction,Soldermask,Bot*%
%TF.FilePolarity,Negative*%
%FSLAX46Y46*%
G04 Gerber Fmt 4.6, Leading zero omitted, Abs format (unit mm)*
G04 Created by KiCad (PCBNEW (5.99.0-12298-gc84619cd7f)) date 2021-09-28 06:55:21*
%MOMM*%
%LPD*%
G01*
G04 APERTURE LIST*
%ADD10C,3.800000*%
%ADD11R,1.700000X1.700000*%
%ADD12O,1.700000X1.700000*%
G04 APERTURE END LIST*
D10*
%TO.C,REF\u002A\u002A*%
X207264000Y-60452000D03*
%TD*%
%TO.C,REF\u002A\u002A*%
X207391000Y-124968000D03*
%TD*%
%TO.C,REF\u002A\u002A*%
X107696000Y-60325000D03*
%TD*%
%TO.C,REF\u002A\u002A*%
X107696000Y-124968000D03*
%TD*%
D11*
%TO.C,J2*%
X191770000Y-76200000D03*
D12*
X191770000Y-78740000D03*
X191770000Y-81280000D03*
X191770000Y-83820000D03*
X191770000Y-86360000D03*
X191770000Y-88900000D03*
X191770000Y-91440000D03*
X191770000Y-93980000D03*
X191770000Y-96520000D03*
X191770000Y-99060000D03*
X191770000Y-101600000D03*
X191770000Y-104140000D03*
X191770000Y-106680000D03*
X191770000Y-109220000D03*
%TD*%
D11*
%TO.C,J3*%
X151130000Y-99060000D03*
D12*
X153670000Y-99060000D03*
X156210000Y-99060000D03*
X158750000Y-99060000D03*
X161290000Y-99060000D03*
X163830000Y-99060000D03*
%TD*%
D11*
%TO.C,J4*%
X151130000Y-86360000D03*
D12*
X153670000Y-86360000D03*
X156210000Y-86360000D03*
X158750000Y-86360000D03*
X161290000Y-86360000D03*
X163830000Y-86360000D03*
%TD*%
D11*
%TO.C,J5*%
X130810000Y-73660000D03*
D12*
X130810000Y-76200000D03*
X130810000Y-78740000D03*
X130810000Y-81280000D03*
X130810000Y-83820000D03*
X130810000Y-86360000D03*
X130810000Y-88900000D03*
X130810000Y-91440000D03*
X130810000Y-93980000D03*
X130810000Y-96520000D03*
X130810000Y-99060000D03*
X130810000Y-101600000D03*
X130810000Y-104140000D03*
X130810000Y-106680000D03*
X130810000Y-109220000D03*
X130810000Y-111760000D03*
%TD*%
D11*
%TO.C,J1*%
X176530000Y-76200000D03*
D12*
X176530000Y-78740000D03*
X176530000Y-81280000D03*
X176530000Y-83820000D03*
X176530000Y-86360000D03*
X176530000Y-88900000D03*
X176530000Y-91440000D03*
X176530000Y-93980000D03*
X176530000Y-96520000D03*
X176530000Y-99060000D03*
X176530000Y-101600000D03*
X176530000Y-104140000D03*
X176530000Y-106680000D03*
X176530000Y-109220000D03*
%TD*%
M02*
