%TF.GenerationSoftware,KiCad,Pcbnew,(5.99.0-12298-gc84619cd7f)*%
%TF.CreationDate,2021-09-28T06:55:21-06:00*%
%TF.ProjectId,VRduino 2,56526475-696e-46f2-9032-2e6b69636164,D*%
%TF.SameCoordinates,Original*%
%TF.FileFunction,Other,User*%
%FSLAX46Y46*%
G04 Gerber Fmt 4.6, Leading zero omitted, Abs format (unit mm)*
G04 Created by KiCad (PCBNEW (5.99.0-12298-gc84619cd7f)) date 2021-09-28 06:55:21*
%MOMM*%
%LPD*%
G01*
G04 APERTURE LIST*
%ADD10C,0.150000*%
%ADD11C,0.050000*%
G04 APERTURE END LIST*
D10*
%TO.C,U3*%
X114453500Y-69749500D02*
X114453500Y-71474500D01*
X116178500Y-71474500D02*
X116178500Y-69749500D01*
X116178500Y-69749500D02*
X114453500Y-69749500D01*
X116178500Y-69749500D02*
X116178500Y-69749500D01*
X114453500Y-71474500D02*
X116178500Y-71474500D01*
%TO.C,U1*%
X198281500Y-69749500D02*
X198281500Y-71474500D01*
X200006500Y-71474500D02*
X200006500Y-69749500D01*
X200006500Y-69749500D02*
X198281500Y-69749500D01*
X200006500Y-69749500D02*
X200006500Y-69749500D01*
X198281500Y-71474500D02*
X200006500Y-71474500D01*
%TO.C,U2*%
X200506500Y-115670500D02*
X200506500Y-113945500D01*
X198781500Y-113945500D02*
X198781500Y-115670500D01*
X198781500Y-115670500D02*
X200506500Y-115670500D01*
X198781500Y-115670500D02*
X198781500Y-115670500D01*
X200506500Y-113945500D02*
X198781500Y-113945500D01*
%TO.C,U4*%
X116686500Y-115670500D02*
X116686500Y-113945500D01*
X114961500Y-113945500D02*
X114961500Y-115670500D01*
X114961500Y-115670500D02*
X116686500Y-115670500D01*
X114961500Y-115670500D02*
X114961500Y-115670500D01*
X116686500Y-113945500D02*
X114961500Y-113945500D01*
D11*
%TO.C,REF\u002A\u002A*%
X209414000Y-60452000D02*
G75*
G03*
X209414000Y-60452000I-2150000J0D01*
G01*
X209541000Y-124968000D02*
G75*
G03*
X209541000Y-124968000I-2150000J0D01*
G01*
X109846000Y-60325000D02*
G75*
G03*
X109846000Y-60325000I-2150000J0D01*
G01*
X109846000Y-124968000D02*
G75*
G03*
X109846000Y-124968000I-2150000J0D01*
G01*
%TO.C,C6*%
X116311000Y-72469000D02*
X116311000Y-71549000D01*
X116311000Y-71549000D02*
X118131000Y-71549000D01*
X118131000Y-71549000D02*
X118131000Y-72469000D01*
X118131000Y-72469000D02*
X116311000Y-72469000D01*
%TO.C,C7*%
X117708000Y-115776000D02*
X117708000Y-114856000D01*
X117708000Y-114856000D02*
X119528000Y-114856000D01*
X119528000Y-114856000D02*
X119528000Y-115776000D01*
X119528000Y-115776000D02*
X117708000Y-115776000D01*
%TO.C,C8*%
X114829000Y-112824000D02*
X114829000Y-113744000D01*
X114829000Y-113744000D02*
X113009000Y-113744000D01*
X113009000Y-113744000D02*
X113009000Y-112824000D01*
X113009000Y-112824000D02*
X114829000Y-112824000D01*
%TO.C,C1*%
X197379000Y-69644000D02*
X197379000Y-70564000D01*
X197379000Y-70564000D02*
X195559000Y-70564000D01*
X195559000Y-70564000D02*
X195559000Y-69644000D01*
X195559000Y-69644000D02*
X197379000Y-69644000D01*
%TO.C,C2*%
X200103000Y-72469000D02*
X200103000Y-71549000D01*
X200103000Y-71549000D02*
X201923000Y-71549000D01*
X201923000Y-71549000D02*
X201923000Y-72469000D01*
X201923000Y-72469000D02*
X200103000Y-72469000D01*
%TO.C,C3*%
X201401000Y-115776000D02*
X201401000Y-114856000D01*
X201401000Y-114856000D02*
X203221000Y-114856000D01*
X203221000Y-114856000D02*
X203221000Y-115776000D01*
X203221000Y-115776000D02*
X201401000Y-115776000D01*
%TO.C,C4*%
X198621000Y-112951000D02*
X198621000Y-113871000D01*
X198621000Y-113871000D02*
X196801000Y-113871000D01*
X196801000Y-113871000D02*
X196801000Y-112951000D01*
X196801000Y-112951000D02*
X198621000Y-112951000D01*
%TO.C,D4*%
X119460000Y-69560000D02*
X111680000Y-69560000D01*
X119460000Y-69560000D02*
X119460000Y-65060000D01*
X111680000Y-65060000D02*
X111680000Y-69560000D01*
X111680000Y-65060000D02*
X119460000Y-65060000D01*
%TO.C,D5*%
X111680000Y-115860000D02*
X119460000Y-115860000D01*
X111680000Y-115860000D02*
X111680000Y-120360000D01*
X119460000Y-120360000D02*
X119460000Y-115860000D01*
X119460000Y-120360000D02*
X111680000Y-120360000D01*
%TO.C,D2*%
X203280000Y-69560000D02*
X195500000Y-69560000D01*
X203280000Y-69560000D02*
X203280000Y-65060000D01*
X195500000Y-65060000D02*
X195500000Y-69560000D01*
X195500000Y-65060000D02*
X203280000Y-65060000D01*
%TO.C,D3*%
X195500000Y-115860000D02*
X203280000Y-115860000D01*
X195500000Y-115860000D02*
X195500000Y-120360000D01*
X203280000Y-120360000D02*
X203280000Y-115860000D01*
X203280000Y-120360000D02*
X195500000Y-120360000D01*
%TO.C,J2*%
X189970000Y-74400000D02*
X193520000Y-74400000D01*
X193520000Y-74400000D02*
X193520000Y-111000000D01*
X193520000Y-111000000D02*
X189970000Y-111000000D01*
X189970000Y-111000000D02*
X189970000Y-74400000D01*
%TO.C,J3*%
X149330000Y-100860000D02*
X149330000Y-97310000D01*
X149330000Y-97310000D02*
X165580000Y-97310000D01*
X165580000Y-97310000D02*
X165580000Y-100860000D01*
X165580000Y-100860000D02*
X149330000Y-100860000D01*
%TO.C,J4*%
X149330000Y-88160000D02*
X149330000Y-84610000D01*
X149330000Y-84610000D02*
X165580000Y-84610000D01*
X165580000Y-84610000D02*
X165580000Y-88160000D01*
X165580000Y-88160000D02*
X149330000Y-88160000D01*
%TO.C,J5*%
X129010000Y-71860000D02*
X132560000Y-71860000D01*
X132560000Y-71860000D02*
X132560000Y-113560000D01*
X132560000Y-113560000D02*
X129010000Y-113560000D01*
X129010000Y-113560000D02*
X129010000Y-71860000D01*
%TO.C,R1*%
X175600000Y-69050000D02*
X175600000Y-68110000D01*
X175600000Y-68110000D02*
X177460000Y-68110000D01*
X177460000Y-68110000D02*
X177460000Y-69050000D01*
X177460000Y-69050000D02*
X175600000Y-69050000D01*
%TO.C,R4*%
X113579000Y-70650000D02*
X113579000Y-71590000D01*
X113579000Y-71590000D02*
X111719000Y-71590000D01*
X111719000Y-71590000D02*
X111719000Y-70650000D01*
X111719000Y-70650000D02*
X113579000Y-70650000D01*
%TO.C,R5*%
X117688000Y-114643000D02*
X117688000Y-113703000D01*
X117688000Y-113703000D02*
X119548000Y-113703000D01*
X119548000Y-113703000D02*
X119548000Y-114643000D01*
X119548000Y-114643000D02*
X117688000Y-114643000D01*
%TO.C,R2*%
X197399000Y-70650000D02*
X197399000Y-71590000D01*
X197399000Y-71590000D02*
X195539000Y-71590000D01*
X195539000Y-71590000D02*
X195539000Y-70650000D01*
X195539000Y-70650000D02*
X197399000Y-70650000D01*
%TO.C,R3*%
X201381000Y-114770000D02*
X201381000Y-113830000D01*
X201381000Y-113830000D02*
X203241000Y-113830000D01*
X203241000Y-113830000D02*
X203241000Y-114770000D01*
X203241000Y-114770000D02*
X201381000Y-114770000D01*
%TO.C,C5*%
X113559000Y-69644000D02*
X113559000Y-70564000D01*
X113559000Y-70564000D02*
X111739000Y-70564000D01*
X111739000Y-70564000D02*
X111739000Y-69644000D01*
X111739000Y-69644000D02*
X113559000Y-69644000D01*
%TO.C,J1*%
X174730000Y-74400000D02*
X178280000Y-74400000D01*
X178280000Y-74400000D02*
X178280000Y-111000000D01*
X178280000Y-111000000D02*
X174730000Y-111000000D01*
X174730000Y-111000000D02*
X174730000Y-74400000D01*
%TO.C,D1*%
X157010000Y-67015000D02*
X157950000Y-67015000D01*
X157950000Y-67015000D02*
X157950000Y-68875000D01*
X157950000Y-68875000D02*
X157010000Y-68875000D01*
X157010000Y-68875000D02*
X157010000Y-67015000D01*
%TD*%
M02*
