%TF.GenerationSoftware,KiCad,Pcbnew,(5.99.0-12298-gc84619cd7f)*%
%TF.CreationDate,2021-09-28T06:55:21-06:00*%
%TF.ProjectId,VRduino 2,56526475-696e-46f2-9032-2e6b69636164,D*%
%TF.SameCoordinates,Original*%
%TF.FileFunction,AssemblyDrawing,Top*%
%FSLAX46Y46*%
G04 Gerber Fmt 4.6, Leading zero omitted, Abs format (unit mm)*
G04 Created by KiCad (PCBNEW (5.99.0-12298-gc84619cd7f)) date 2021-09-28 06:55:21*
%MOMM*%
%LPD*%
G01*
G04 APERTURE LIST*
%ADD10C,0.040000*%
%ADD11C,0.150000*%
%ADD12C,0.100000*%
G04 APERTURE END LIST*
D10*
%TO.C,C6*%
X117179333Y-72098285D02*
X117167428Y-72110190D01*
X117131714Y-72122095D01*
X117107904Y-72122095D01*
X117072190Y-72110190D01*
X117048380Y-72086380D01*
X117036476Y-72062571D01*
X117024571Y-72014952D01*
X117024571Y-71979238D01*
X117036476Y-71931619D01*
X117048380Y-71907809D01*
X117072190Y-71884000D01*
X117107904Y-71872095D01*
X117131714Y-71872095D01*
X117167428Y-71884000D01*
X117179333Y-71895904D01*
X117393619Y-71872095D02*
X117346000Y-71872095D01*
X117322190Y-71884000D01*
X117310285Y-71895904D01*
X117286476Y-71931619D01*
X117274571Y-71979238D01*
X117274571Y-72074476D01*
X117286476Y-72098285D01*
X117298380Y-72110190D01*
X117322190Y-72122095D01*
X117369809Y-72122095D01*
X117393619Y-72110190D01*
X117405523Y-72098285D01*
X117417428Y-72074476D01*
X117417428Y-72014952D01*
X117405523Y-71991142D01*
X117393619Y-71979238D01*
X117369809Y-71967333D01*
X117322190Y-71967333D01*
X117298380Y-71979238D01*
X117286476Y-71991142D01*
X117274571Y-72014952D01*
%TO.C,C7*%
X118576333Y-115405285D02*
X118564428Y-115417190D01*
X118528714Y-115429095D01*
X118504904Y-115429095D01*
X118469190Y-115417190D01*
X118445380Y-115393380D01*
X118433476Y-115369571D01*
X118421571Y-115321952D01*
X118421571Y-115286238D01*
X118433476Y-115238619D01*
X118445380Y-115214809D01*
X118469190Y-115191000D01*
X118504904Y-115179095D01*
X118528714Y-115179095D01*
X118564428Y-115191000D01*
X118576333Y-115202904D01*
X118659666Y-115179095D02*
X118826333Y-115179095D01*
X118719190Y-115429095D01*
%TO.C,C8*%
X113877333Y-113373285D02*
X113865428Y-113385190D01*
X113829714Y-113397095D01*
X113805904Y-113397095D01*
X113770190Y-113385190D01*
X113746380Y-113361380D01*
X113734476Y-113337571D01*
X113722571Y-113289952D01*
X113722571Y-113254238D01*
X113734476Y-113206619D01*
X113746380Y-113182809D01*
X113770190Y-113159000D01*
X113805904Y-113147095D01*
X113829714Y-113147095D01*
X113865428Y-113159000D01*
X113877333Y-113170904D01*
X114020190Y-113254238D02*
X113996380Y-113242333D01*
X113984476Y-113230428D01*
X113972571Y-113206619D01*
X113972571Y-113194714D01*
X113984476Y-113170904D01*
X113996380Y-113159000D01*
X114020190Y-113147095D01*
X114067809Y-113147095D01*
X114091619Y-113159000D01*
X114103523Y-113170904D01*
X114115428Y-113194714D01*
X114115428Y-113206619D01*
X114103523Y-113230428D01*
X114091619Y-113242333D01*
X114067809Y-113254238D01*
X114020190Y-113254238D01*
X113996380Y-113266142D01*
X113984476Y-113278047D01*
X113972571Y-113301857D01*
X113972571Y-113349476D01*
X113984476Y-113373285D01*
X113996380Y-113385190D01*
X114020190Y-113397095D01*
X114067809Y-113397095D01*
X114091619Y-113385190D01*
X114103523Y-113373285D01*
X114115428Y-113349476D01*
X114115428Y-113301857D01*
X114103523Y-113278047D01*
X114091619Y-113266142D01*
X114067809Y-113254238D01*
%TO.C,C1*%
X196427333Y-70193285D02*
X196415428Y-70205190D01*
X196379714Y-70217095D01*
X196355904Y-70217095D01*
X196320190Y-70205190D01*
X196296380Y-70181380D01*
X196284476Y-70157571D01*
X196272571Y-70109952D01*
X196272571Y-70074238D01*
X196284476Y-70026619D01*
X196296380Y-70002809D01*
X196320190Y-69979000D01*
X196355904Y-69967095D01*
X196379714Y-69967095D01*
X196415428Y-69979000D01*
X196427333Y-69990904D01*
X196665428Y-70217095D02*
X196522571Y-70217095D01*
X196594000Y-70217095D02*
X196594000Y-69967095D01*
X196570190Y-70002809D01*
X196546380Y-70026619D01*
X196522571Y-70038523D01*
%TO.C,C2*%
X200971333Y-72098285D02*
X200959428Y-72110190D01*
X200923714Y-72122095D01*
X200899904Y-72122095D01*
X200864190Y-72110190D01*
X200840380Y-72086380D01*
X200828476Y-72062571D01*
X200816571Y-72014952D01*
X200816571Y-71979238D01*
X200828476Y-71931619D01*
X200840380Y-71907809D01*
X200864190Y-71884000D01*
X200899904Y-71872095D01*
X200923714Y-71872095D01*
X200959428Y-71884000D01*
X200971333Y-71895904D01*
X201066571Y-71895904D02*
X201078476Y-71884000D01*
X201102285Y-71872095D01*
X201161809Y-71872095D01*
X201185619Y-71884000D01*
X201197523Y-71895904D01*
X201209428Y-71919714D01*
X201209428Y-71943523D01*
X201197523Y-71979238D01*
X201054666Y-72122095D01*
X201209428Y-72122095D01*
%TO.C,C3*%
X202269333Y-115405285D02*
X202257428Y-115417190D01*
X202221714Y-115429095D01*
X202197904Y-115429095D01*
X202162190Y-115417190D01*
X202138380Y-115393380D01*
X202126476Y-115369571D01*
X202114571Y-115321952D01*
X202114571Y-115286238D01*
X202126476Y-115238619D01*
X202138380Y-115214809D01*
X202162190Y-115191000D01*
X202197904Y-115179095D01*
X202221714Y-115179095D01*
X202257428Y-115191000D01*
X202269333Y-115202904D01*
X202352666Y-115179095D02*
X202507428Y-115179095D01*
X202424095Y-115274333D01*
X202459809Y-115274333D01*
X202483619Y-115286238D01*
X202495523Y-115298142D01*
X202507428Y-115321952D01*
X202507428Y-115381476D01*
X202495523Y-115405285D01*
X202483619Y-115417190D01*
X202459809Y-115429095D01*
X202388380Y-115429095D01*
X202364571Y-115417190D01*
X202352666Y-115405285D01*
%TO.C,C4*%
X197669333Y-113500285D02*
X197657428Y-113512190D01*
X197621714Y-113524095D01*
X197597904Y-113524095D01*
X197562190Y-113512190D01*
X197538380Y-113488380D01*
X197526476Y-113464571D01*
X197514571Y-113416952D01*
X197514571Y-113381238D01*
X197526476Y-113333619D01*
X197538380Y-113309809D01*
X197562190Y-113286000D01*
X197597904Y-113274095D01*
X197621714Y-113274095D01*
X197657428Y-113286000D01*
X197669333Y-113297904D01*
X197883619Y-113357428D02*
X197883619Y-113524095D01*
X197824095Y-113262190D02*
X197764571Y-113440761D01*
X197919333Y-113440761D01*
D11*
%TO.C,D4*%
X114958904Y-64714380D02*
X114958904Y-63714380D01*
X115197000Y-63714380D01*
X115339857Y-63762000D01*
X115435095Y-63857238D01*
X115482714Y-63952476D01*
X115530333Y-64142952D01*
X115530333Y-64285809D01*
X115482714Y-64476285D01*
X115435095Y-64571523D01*
X115339857Y-64666761D01*
X115197000Y-64714380D01*
X114958904Y-64714380D01*
X116387476Y-64047714D02*
X116387476Y-64714380D01*
X116149380Y-63666761D02*
X115911285Y-64381047D01*
X116530333Y-64381047D01*
%TO.C,D5*%
X114831904Y-121737380D02*
X114831904Y-120737380D01*
X115070000Y-120737380D01*
X115212857Y-120785000D01*
X115308095Y-120880238D01*
X115355714Y-120975476D01*
X115403333Y-121165952D01*
X115403333Y-121308809D01*
X115355714Y-121499285D01*
X115308095Y-121594523D01*
X115212857Y-121689761D01*
X115070000Y-121737380D01*
X114831904Y-121737380D01*
X116308095Y-120737380D02*
X115831904Y-120737380D01*
X115784285Y-121213571D01*
X115831904Y-121165952D01*
X115927142Y-121118333D01*
X116165238Y-121118333D01*
X116260476Y-121165952D01*
X116308095Y-121213571D01*
X116355714Y-121308809D01*
X116355714Y-121546904D01*
X116308095Y-121642142D01*
X116260476Y-121689761D01*
X116165238Y-121737380D01*
X115927142Y-121737380D01*
X115831904Y-121689761D01*
X115784285Y-121642142D01*
%TO.C,D2*%
X198651904Y-64841380D02*
X198651904Y-63841380D01*
X198890000Y-63841380D01*
X199032857Y-63889000D01*
X199128095Y-63984238D01*
X199175714Y-64079476D01*
X199223333Y-64269952D01*
X199223333Y-64412809D01*
X199175714Y-64603285D01*
X199128095Y-64698523D01*
X199032857Y-64793761D01*
X198890000Y-64841380D01*
X198651904Y-64841380D01*
X199604285Y-63936619D02*
X199651904Y-63889000D01*
X199747142Y-63841380D01*
X199985238Y-63841380D01*
X200080476Y-63889000D01*
X200128095Y-63936619D01*
X200175714Y-64031857D01*
X200175714Y-64127095D01*
X200128095Y-64269952D01*
X199556666Y-64841380D01*
X200175714Y-64841380D01*
%TO.C,D3*%
X198651904Y-121610380D02*
X198651904Y-120610380D01*
X198890000Y-120610380D01*
X199032857Y-120658000D01*
X199128095Y-120753238D01*
X199175714Y-120848476D01*
X199223333Y-121038952D01*
X199223333Y-121181809D01*
X199175714Y-121372285D01*
X199128095Y-121467523D01*
X199032857Y-121562761D01*
X198890000Y-121610380D01*
X198651904Y-121610380D01*
X199556666Y-120610380D02*
X200175714Y-120610380D01*
X199842380Y-120991333D01*
X199985238Y-120991333D01*
X200080476Y-121038952D01*
X200128095Y-121086571D01*
X200175714Y-121181809D01*
X200175714Y-121419904D01*
X200128095Y-121515142D01*
X200080476Y-121562761D01*
X199985238Y-121610380D01*
X199699523Y-121610380D01*
X199604285Y-121562761D01*
X199556666Y-121515142D01*
%TO.C,J2*%
X191222380Y-93043333D02*
X191936666Y-93043333D01*
X192079523Y-93090952D01*
X192174761Y-93186190D01*
X192222380Y-93329047D01*
X192222380Y-93424285D01*
X191317619Y-92614761D02*
X191270000Y-92567142D01*
X191222380Y-92471904D01*
X191222380Y-92233809D01*
X191270000Y-92138571D01*
X191317619Y-92090952D01*
X191412857Y-92043333D01*
X191508095Y-92043333D01*
X191650952Y-92090952D01*
X192222380Y-92662380D01*
X192222380Y-92043333D01*
%TO.C,J3*%
X157146666Y-98512380D02*
X157146666Y-99226666D01*
X157099047Y-99369523D01*
X157003809Y-99464761D01*
X156860952Y-99512380D01*
X156765714Y-99512380D01*
X157527619Y-98512380D02*
X158146666Y-98512380D01*
X157813333Y-98893333D01*
X157956190Y-98893333D01*
X158051428Y-98940952D01*
X158099047Y-98988571D01*
X158146666Y-99083809D01*
X158146666Y-99321904D01*
X158099047Y-99417142D01*
X158051428Y-99464761D01*
X157956190Y-99512380D01*
X157670476Y-99512380D01*
X157575238Y-99464761D01*
X157527619Y-99417142D01*
%TO.C,J4*%
X157146666Y-85812380D02*
X157146666Y-86526666D01*
X157099047Y-86669523D01*
X157003809Y-86764761D01*
X156860952Y-86812380D01*
X156765714Y-86812380D01*
X158051428Y-86145714D02*
X158051428Y-86812380D01*
X157813333Y-85764761D02*
X157575238Y-86479047D01*
X158194285Y-86479047D01*
%TO.C,J5*%
X130262380Y-93043333D02*
X130976666Y-93043333D01*
X131119523Y-93090952D01*
X131214761Y-93186190D01*
X131262380Y-93329047D01*
X131262380Y-93424285D01*
X130262380Y-92090952D02*
X130262380Y-92567142D01*
X130738571Y-92614761D01*
X130690952Y-92567142D01*
X130643333Y-92471904D01*
X130643333Y-92233809D01*
X130690952Y-92138571D01*
X130738571Y-92090952D01*
X130833809Y-92043333D01*
X131071904Y-92043333D01*
X131167142Y-92090952D01*
X131214761Y-92138571D01*
X131262380Y-92233809D01*
X131262380Y-92471904D01*
X131214761Y-92567142D01*
X131167142Y-92614761D01*
D10*
%TO.C,R1*%
X176486666Y-68697619D02*
X176400000Y-68573809D01*
X176338095Y-68697619D02*
X176338095Y-68437619D01*
X176437142Y-68437619D01*
X176461904Y-68450000D01*
X176474285Y-68462380D01*
X176486666Y-68487142D01*
X176486666Y-68524285D01*
X176474285Y-68549047D01*
X176461904Y-68561428D01*
X176437142Y-68573809D01*
X176338095Y-68573809D01*
X176734285Y-68697619D02*
X176585714Y-68697619D01*
X176660000Y-68697619D02*
X176660000Y-68437619D01*
X176635238Y-68474761D01*
X176610476Y-68499523D01*
X176585714Y-68511904D01*
%TO.C,R4*%
X112605666Y-71237619D02*
X112519000Y-71113809D01*
X112457095Y-71237619D02*
X112457095Y-70977619D01*
X112556142Y-70977619D01*
X112580904Y-70990000D01*
X112593285Y-71002380D01*
X112605666Y-71027142D01*
X112605666Y-71064285D01*
X112593285Y-71089047D01*
X112580904Y-71101428D01*
X112556142Y-71113809D01*
X112457095Y-71113809D01*
X112828523Y-71064285D02*
X112828523Y-71237619D01*
X112766619Y-70965238D02*
X112704714Y-71150952D01*
X112865666Y-71150952D01*
%TO.C,R5*%
X118574666Y-114290619D02*
X118488000Y-114166809D01*
X118426095Y-114290619D02*
X118426095Y-114030619D01*
X118525142Y-114030619D01*
X118549904Y-114043000D01*
X118562285Y-114055380D01*
X118574666Y-114080142D01*
X118574666Y-114117285D01*
X118562285Y-114142047D01*
X118549904Y-114154428D01*
X118525142Y-114166809D01*
X118426095Y-114166809D01*
X118809904Y-114030619D02*
X118686095Y-114030619D01*
X118673714Y-114154428D01*
X118686095Y-114142047D01*
X118710857Y-114129666D01*
X118772761Y-114129666D01*
X118797523Y-114142047D01*
X118809904Y-114154428D01*
X118822285Y-114179190D01*
X118822285Y-114241095D01*
X118809904Y-114265857D01*
X118797523Y-114278238D01*
X118772761Y-114290619D01*
X118710857Y-114290619D01*
X118686095Y-114278238D01*
X118673714Y-114265857D01*
%TO.C,R2*%
X196425666Y-71237619D02*
X196339000Y-71113809D01*
X196277095Y-71237619D02*
X196277095Y-70977619D01*
X196376142Y-70977619D01*
X196400904Y-70990000D01*
X196413285Y-71002380D01*
X196425666Y-71027142D01*
X196425666Y-71064285D01*
X196413285Y-71089047D01*
X196400904Y-71101428D01*
X196376142Y-71113809D01*
X196277095Y-71113809D01*
X196524714Y-71002380D02*
X196537095Y-70990000D01*
X196561857Y-70977619D01*
X196623761Y-70977619D01*
X196648523Y-70990000D01*
X196660904Y-71002380D01*
X196673285Y-71027142D01*
X196673285Y-71051904D01*
X196660904Y-71089047D01*
X196512333Y-71237619D01*
X196673285Y-71237619D01*
%TO.C,R3*%
X202267666Y-114417619D02*
X202181000Y-114293809D01*
X202119095Y-114417619D02*
X202119095Y-114157619D01*
X202218142Y-114157619D01*
X202242904Y-114170000D01*
X202255285Y-114182380D01*
X202267666Y-114207142D01*
X202267666Y-114244285D01*
X202255285Y-114269047D01*
X202242904Y-114281428D01*
X202218142Y-114293809D01*
X202119095Y-114293809D01*
X202354333Y-114157619D02*
X202515285Y-114157619D01*
X202428619Y-114256666D01*
X202465761Y-114256666D01*
X202490523Y-114269047D01*
X202502904Y-114281428D01*
X202515285Y-114306190D01*
X202515285Y-114368095D01*
X202502904Y-114392857D01*
X202490523Y-114405238D01*
X202465761Y-114417619D01*
X202391476Y-114417619D01*
X202366714Y-114405238D01*
X202354333Y-114392857D01*
%TO.C,C5*%
X112607333Y-70193285D02*
X112595428Y-70205190D01*
X112559714Y-70217095D01*
X112535904Y-70217095D01*
X112500190Y-70205190D01*
X112476380Y-70181380D01*
X112464476Y-70157571D01*
X112452571Y-70109952D01*
X112452571Y-70074238D01*
X112464476Y-70026619D01*
X112476380Y-70002809D01*
X112500190Y-69979000D01*
X112535904Y-69967095D01*
X112559714Y-69967095D01*
X112595428Y-69979000D01*
X112607333Y-69990904D01*
X112833523Y-69967095D02*
X112714476Y-69967095D01*
X112702571Y-70086142D01*
X112714476Y-70074238D01*
X112738285Y-70062333D01*
X112797809Y-70062333D01*
X112821619Y-70074238D01*
X112833523Y-70086142D01*
X112845428Y-70109952D01*
X112845428Y-70169476D01*
X112833523Y-70193285D01*
X112821619Y-70205190D01*
X112797809Y-70217095D01*
X112738285Y-70217095D01*
X112714476Y-70205190D01*
X112702571Y-70193285D01*
D11*
%TO.C,J1*%
X175982380Y-93043333D02*
X176696666Y-93043333D01*
X176839523Y-93090952D01*
X176934761Y-93186190D01*
X176982380Y-93329047D01*
X176982380Y-93424285D01*
X176982380Y-92043333D02*
X176982380Y-92614761D01*
X176982380Y-92329047D02*
X175982380Y-92329047D01*
X176125238Y-92424285D01*
X176220476Y-92519523D01*
X176268095Y-92614761D01*
D10*
%TO.C,D1*%
X157593095Y-68129523D02*
X157343095Y-68129523D01*
X157343095Y-68070000D01*
X157355000Y-68034285D01*
X157378809Y-68010476D01*
X157402619Y-67998571D01*
X157450238Y-67986666D01*
X157485952Y-67986666D01*
X157533571Y-67998571D01*
X157557380Y-68010476D01*
X157581190Y-68034285D01*
X157593095Y-68070000D01*
X157593095Y-68129523D01*
X157593095Y-67748571D02*
X157593095Y-67891428D01*
X157593095Y-67820000D02*
X157343095Y-67820000D01*
X157378809Y-67843809D01*
X157402619Y-67867619D01*
X157414523Y-67891428D01*
D11*
%TO.C,U3*%
X114486000Y-69782000D02*
X116146000Y-69782000D01*
X114486000Y-71442000D02*
X114486000Y-69782000D01*
X116146000Y-71442000D02*
X114486000Y-71442000D01*
X116146000Y-69782000D02*
X116146000Y-71442000D01*
%TO.C,U1*%
X198314000Y-69782000D02*
X199974000Y-69782000D01*
X198314000Y-71442000D02*
X198314000Y-69782000D01*
X199974000Y-71442000D02*
X198314000Y-71442000D01*
X199974000Y-69782000D02*
X199974000Y-71442000D01*
%TO.C,U2*%
X200474000Y-115638000D02*
X198814000Y-115638000D01*
X200474000Y-113978000D02*
X200474000Y-115638000D01*
X198814000Y-113978000D02*
X200474000Y-113978000D01*
X198814000Y-115638000D02*
X198814000Y-113978000D01*
%TO.C,U4*%
X116654000Y-115638000D02*
X114994000Y-115638000D01*
X116654000Y-113978000D02*
X116654000Y-115638000D01*
X114994000Y-113978000D02*
X116654000Y-113978000D01*
X114994000Y-115638000D02*
X114994000Y-113978000D01*
D12*
%TO.C,C6*%
X116721000Y-72259000D02*
X116721000Y-71759000D01*
X116721000Y-71759000D02*
X117721000Y-71759000D01*
X117721000Y-71759000D02*
X117721000Y-72259000D01*
X117721000Y-72259000D02*
X116721000Y-72259000D01*
%TO.C,C7*%
X118118000Y-115566000D02*
X118118000Y-115066000D01*
X118118000Y-115066000D02*
X119118000Y-115066000D01*
X119118000Y-115066000D02*
X119118000Y-115566000D01*
X119118000Y-115566000D02*
X118118000Y-115566000D01*
%TO.C,C8*%
X114419000Y-113034000D02*
X114419000Y-113534000D01*
X114419000Y-113534000D02*
X113419000Y-113534000D01*
X113419000Y-113534000D02*
X113419000Y-113034000D01*
X113419000Y-113034000D02*
X114419000Y-113034000D01*
%TO.C,C1*%
X196969000Y-69854000D02*
X196969000Y-70354000D01*
X196969000Y-70354000D02*
X195969000Y-70354000D01*
X195969000Y-70354000D02*
X195969000Y-69854000D01*
X195969000Y-69854000D02*
X196969000Y-69854000D01*
%TO.C,C2*%
X200513000Y-72259000D02*
X200513000Y-71759000D01*
X200513000Y-71759000D02*
X201513000Y-71759000D01*
X201513000Y-71759000D02*
X201513000Y-72259000D01*
X201513000Y-72259000D02*
X200513000Y-72259000D01*
%TO.C,C3*%
X201811000Y-115566000D02*
X201811000Y-115066000D01*
X201811000Y-115066000D02*
X202811000Y-115066000D01*
X202811000Y-115066000D02*
X202811000Y-115566000D01*
X202811000Y-115566000D02*
X201811000Y-115566000D01*
%TO.C,C4*%
X198211000Y-113161000D02*
X198211000Y-113661000D01*
X198211000Y-113661000D02*
X197211000Y-113661000D01*
X197211000Y-113661000D02*
X197211000Y-113161000D01*
X197211000Y-113161000D02*
X198211000Y-113161000D01*
%TO.C,D4*%
X117820000Y-68310000D02*
X117820000Y-65310000D01*
X117820000Y-68310000D02*
X116820000Y-69310000D01*
X116820000Y-69310000D02*
X113320000Y-69310000D01*
X113320000Y-69310000D02*
X113320000Y-65310000D01*
X113320000Y-65310000D02*
X117820000Y-65310000D01*
X115120000Y-67690000D02*
X114860000Y-67690000D01*
X115120000Y-67690000D02*
X115120000Y-67950000D01*
X115620000Y-67690000D02*
X115370000Y-67690000D01*
X115620000Y-67690000D02*
X115620000Y-67950000D01*
X114860000Y-68450000D02*
X115620000Y-67690000D01*
X114350000Y-68450000D02*
X115120000Y-67690000D01*
X115880000Y-66670000D02*
X115240000Y-67310000D01*
X115240000Y-67310000D02*
X115240000Y-66040000D01*
X115240000Y-66040000D02*
X115880000Y-66670000D01*
X115880000Y-67310000D02*
X115880000Y-66040000D01*
X116840000Y-66670000D02*
X114300000Y-66670000D01*
%TO.C,D5*%
X113320000Y-117110000D02*
X113320000Y-120110000D01*
X113320000Y-117110000D02*
X114320000Y-116110000D01*
X114320000Y-116110000D02*
X117820000Y-116110000D01*
X117820000Y-116110000D02*
X117820000Y-120110000D01*
X117820000Y-120110000D02*
X113320000Y-120110000D01*
X116020000Y-117730000D02*
X116280000Y-117730000D01*
X116020000Y-117730000D02*
X116020000Y-117470000D01*
X115520000Y-117730000D02*
X115770000Y-117730000D01*
X115520000Y-117730000D02*
X115520000Y-117470000D01*
X116280000Y-116970000D02*
X115520000Y-117730000D01*
X116790000Y-116970000D02*
X116020000Y-117730000D01*
X115260000Y-118750000D02*
X115900000Y-118110000D01*
X115900000Y-118110000D02*
X115900000Y-119380000D01*
X115900000Y-119380000D02*
X115260000Y-118750000D01*
X115260000Y-118110000D02*
X115260000Y-119380000D01*
X114300000Y-118750000D02*
X116840000Y-118750000D01*
%TO.C,D2*%
X201640000Y-68310000D02*
X201640000Y-65310000D01*
X201640000Y-68310000D02*
X200640000Y-69310000D01*
X200640000Y-69310000D02*
X197140000Y-69310000D01*
X197140000Y-69310000D02*
X197140000Y-65310000D01*
X197140000Y-65310000D02*
X201640000Y-65310000D01*
X198940000Y-67690000D02*
X198680000Y-67690000D01*
X198940000Y-67690000D02*
X198940000Y-67950000D01*
X199440000Y-67690000D02*
X199190000Y-67690000D01*
X199440000Y-67690000D02*
X199440000Y-67950000D01*
X198680000Y-68450000D02*
X199440000Y-67690000D01*
X198170000Y-68450000D02*
X198940000Y-67690000D01*
X199700000Y-66670000D02*
X199060000Y-67310000D01*
X199060000Y-67310000D02*
X199060000Y-66040000D01*
X199060000Y-66040000D02*
X199700000Y-66670000D01*
X199700000Y-67310000D02*
X199700000Y-66040000D01*
X200660000Y-66670000D02*
X198120000Y-66670000D01*
%TO.C,D3*%
X197140000Y-117110000D02*
X197140000Y-120110000D01*
X197140000Y-117110000D02*
X198140000Y-116110000D01*
X198140000Y-116110000D02*
X201640000Y-116110000D01*
X201640000Y-116110000D02*
X201640000Y-120110000D01*
X201640000Y-120110000D02*
X197140000Y-120110000D01*
X199840000Y-117730000D02*
X200100000Y-117730000D01*
X199840000Y-117730000D02*
X199840000Y-117470000D01*
X199340000Y-117730000D02*
X199590000Y-117730000D01*
X199340000Y-117730000D02*
X199340000Y-117470000D01*
X200100000Y-116970000D02*
X199340000Y-117730000D01*
X200610000Y-116970000D02*
X199840000Y-117730000D01*
X199080000Y-118750000D02*
X199720000Y-118110000D01*
X199720000Y-118110000D02*
X199720000Y-119380000D01*
X199720000Y-119380000D02*
X199080000Y-118750000D01*
X199080000Y-118110000D02*
X199080000Y-119380000D01*
X198120000Y-118750000D02*
X200660000Y-118750000D01*
%TO.C,J2*%
X190500000Y-74930000D02*
X192405000Y-74930000D01*
X192405000Y-74930000D02*
X193040000Y-75565000D01*
X193040000Y-75565000D02*
X193040000Y-110490000D01*
X193040000Y-110490000D02*
X190500000Y-110490000D01*
X190500000Y-110490000D02*
X190500000Y-74930000D01*
%TO.C,J3*%
X149860000Y-100330000D02*
X149860000Y-98425000D01*
X149860000Y-98425000D02*
X150495000Y-97790000D01*
X150495000Y-97790000D02*
X165100000Y-97790000D01*
X165100000Y-97790000D02*
X165100000Y-100330000D01*
X165100000Y-100330000D02*
X149860000Y-100330000D01*
%TO.C,J4*%
X149860000Y-87630000D02*
X149860000Y-85725000D01*
X149860000Y-85725000D02*
X150495000Y-85090000D01*
X150495000Y-85090000D02*
X165100000Y-85090000D01*
X165100000Y-85090000D02*
X165100000Y-87630000D01*
X165100000Y-87630000D02*
X149860000Y-87630000D01*
%TO.C,J5*%
X129540000Y-72390000D02*
X131445000Y-72390000D01*
X131445000Y-72390000D02*
X132080000Y-73025000D01*
X132080000Y-73025000D02*
X132080000Y-113030000D01*
X132080000Y-113030000D02*
X129540000Y-113030000D01*
X129540000Y-113030000D02*
X129540000Y-72390000D01*
%TO.C,R1*%
X176005000Y-68850000D02*
X176005000Y-68310000D01*
X176005000Y-68310000D02*
X177055000Y-68310000D01*
X177055000Y-68310000D02*
X177055000Y-68850000D01*
X177055000Y-68850000D02*
X176005000Y-68850000D01*
%TO.C,R4*%
X113174000Y-70850000D02*
X113174000Y-71390000D01*
X113174000Y-71390000D02*
X112124000Y-71390000D01*
X112124000Y-71390000D02*
X112124000Y-70850000D01*
X112124000Y-70850000D02*
X113174000Y-70850000D01*
%TO.C,R5*%
X118093000Y-114443000D02*
X118093000Y-113903000D01*
X118093000Y-113903000D02*
X119143000Y-113903000D01*
X119143000Y-113903000D02*
X119143000Y-114443000D01*
X119143000Y-114443000D02*
X118093000Y-114443000D01*
%TO.C,R2*%
X196994000Y-70850000D02*
X196994000Y-71390000D01*
X196994000Y-71390000D02*
X195944000Y-71390000D01*
X195944000Y-71390000D02*
X195944000Y-70850000D01*
X195944000Y-70850000D02*
X196994000Y-70850000D01*
%TO.C,R3*%
X201786000Y-114570000D02*
X201786000Y-114030000D01*
X201786000Y-114030000D02*
X202836000Y-114030000D01*
X202836000Y-114030000D02*
X202836000Y-114570000D01*
X202836000Y-114570000D02*
X201786000Y-114570000D01*
%TO.C,C5*%
X113149000Y-69854000D02*
X113149000Y-70354000D01*
X113149000Y-70354000D02*
X112149000Y-70354000D01*
X112149000Y-70354000D02*
X112149000Y-69854000D01*
X112149000Y-69854000D02*
X113149000Y-69854000D01*
%TO.C,J1*%
X175260000Y-74930000D02*
X177165000Y-74930000D01*
X177165000Y-74930000D02*
X177800000Y-75565000D01*
X177800000Y-75565000D02*
X177800000Y-110490000D01*
X177800000Y-110490000D02*
X175260000Y-110490000D01*
X175260000Y-110490000D02*
X175260000Y-74930000D01*
%TO.C,D1*%
X157230000Y-67445000D02*
X157730000Y-67445000D01*
X157730000Y-67445000D02*
X157730000Y-68445000D01*
X157730000Y-68445000D02*
X157230000Y-68445000D01*
X157230000Y-68445000D02*
X157230000Y-67445000D01*
X157230000Y-67545000D02*
X157730000Y-67545000D01*
X157230000Y-67645000D02*
X157730000Y-67645000D01*
%TD*%
M02*
