%TF.GenerationSoftware,KiCad,Pcbnew,(5.99.0-12298-gc84619cd7f)*%
%TF.CreationDate,2021-09-28T06:55:20-06:00*%
%TF.ProjectId,VRduino 2,56526475-696e-46f2-9032-2e6b69636164,D*%
%TF.SameCoordinates,Original*%
%TF.FileFunction,Legend,Top*%
%TF.FilePolarity,Positive*%
%FSLAX46Y46*%
G04 Gerber Fmt 4.6, Leading zero omitted, Abs format (unit mm)*
G04 Created by KiCad (PCBNEW (5.99.0-12298-gc84619cd7f)) date 2021-09-28 06:55:20*
%MOMM*%
%LPD*%
G01*
G04 APERTURE LIST*
%ADD10C,0.600000*%
%ADD11C,0.150000*%
%ADD12C,0.300000*%
%ADD13C,0.125000*%
%ADD14C,0.010000*%
%ADD15C,0.250000*%
%ADD16C,0.120000*%
%ADD17C,0.100000*%
G04 APERTURE END LIST*
D10*
X158750000Y-73660000D02*
X157480000Y-72390000D01*
X139700000Y-91440000D02*
X138430000Y-92710000D01*
X138430000Y-92710000D02*
X139700000Y-93980000D01*
X157480000Y-77470000D02*
X157480000Y-72390000D01*
X144780000Y-92710000D02*
X138430000Y-92710000D01*
X157480000Y-72390000D02*
X156210000Y-73660000D01*
D11*
X154892714Y-91266666D02*
X155368904Y-91266666D01*
X154797476Y-91552380D02*
X155130809Y-90552380D01*
X155464142Y-91552380D01*
X156226047Y-91552380D02*
X156226047Y-90552380D01*
X156226047Y-91504761D02*
X156130809Y-91552380D01*
X155940333Y-91552380D01*
X155845095Y-91504761D01*
X155797476Y-91457142D01*
X155749857Y-91361904D01*
X155749857Y-91076190D01*
X155797476Y-90980952D01*
X155845095Y-90933333D01*
X155940333Y-90885714D01*
X156130809Y-90885714D01*
X156226047Y-90933333D01*
X157130809Y-91552380D02*
X157130809Y-91028571D01*
X157083190Y-90933333D01*
X156987952Y-90885714D01*
X156797476Y-90885714D01*
X156702238Y-90933333D01*
X157130809Y-91504761D02*
X157035571Y-91552380D01*
X156797476Y-91552380D01*
X156702238Y-91504761D01*
X156654619Y-91409523D01*
X156654619Y-91314285D01*
X156702238Y-91219047D01*
X156797476Y-91171428D01*
X157035571Y-91171428D01*
X157130809Y-91123809D01*
X157464142Y-90885714D02*
X157845095Y-90885714D01*
X157607000Y-91552380D02*
X157607000Y-90695238D01*
X157654619Y-90600000D01*
X157749857Y-90552380D01*
X157845095Y-90552380D01*
X158178428Y-91552380D02*
X158178428Y-90885714D01*
X158178428Y-91076190D02*
X158226047Y-90980952D01*
X158273666Y-90933333D01*
X158368904Y-90885714D01*
X158464142Y-90885714D01*
X159226047Y-90885714D02*
X159226047Y-91552380D01*
X158797476Y-90885714D02*
X158797476Y-91409523D01*
X158845095Y-91504761D01*
X158940333Y-91552380D01*
X159083190Y-91552380D01*
X159178428Y-91504761D01*
X159226047Y-91457142D01*
X159702238Y-91552380D02*
X159702238Y-90885714D01*
X159702238Y-90552380D02*
X159654619Y-90600000D01*
X159702238Y-90647619D01*
X159749857Y-90600000D01*
X159702238Y-90552380D01*
X159702238Y-90647619D01*
X160035571Y-90885714D02*
X160416523Y-90885714D01*
X160178428Y-90552380D02*
X160178428Y-91409523D01*
X160226047Y-91504761D01*
X160321285Y-91552380D01*
X160416523Y-91552380D01*
X151797476Y-92162380D02*
X152368904Y-92162380D01*
X152083190Y-93162380D02*
X152083190Y-92162380D01*
X152702238Y-93162380D02*
X152702238Y-92162380D01*
X152940333Y-92162380D01*
X153083190Y-92210000D01*
X153178428Y-92305238D01*
X153226047Y-92400476D01*
X153273666Y-92590952D01*
X153273666Y-92733809D01*
X153226047Y-92924285D01*
X153178428Y-93019523D01*
X153083190Y-93114761D01*
X152940333Y-93162380D01*
X152702238Y-93162380D01*
X153702238Y-93162380D02*
X153702238Y-92162380D01*
X154273666Y-93162380D02*
X153845095Y-92590952D01*
X154273666Y-92162380D02*
X153702238Y-92733809D01*
X155464142Y-93162380D02*
X155464142Y-92162380D01*
X155940333Y-92495714D02*
X155940333Y-93162380D01*
X155940333Y-92590952D02*
X155987952Y-92543333D01*
X156083190Y-92495714D01*
X156226047Y-92495714D01*
X156321285Y-92543333D01*
X156368904Y-92638571D01*
X156368904Y-93162380D01*
X156749857Y-92495714D02*
X156987952Y-93162380D01*
X157226047Y-92495714D01*
X157987952Y-93114761D02*
X157892714Y-93162380D01*
X157702238Y-93162380D01*
X157607000Y-93114761D01*
X157559380Y-93019523D01*
X157559380Y-92638571D01*
X157607000Y-92543333D01*
X157702238Y-92495714D01*
X157892714Y-92495714D01*
X157987952Y-92543333D01*
X158035571Y-92638571D01*
X158035571Y-92733809D01*
X157559380Y-92829047D01*
X158464142Y-92495714D02*
X158464142Y-93162380D01*
X158464142Y-92590952D02*
X158511761Y-92543333D01*
X158607000Y-92495714D01*
X158749857Y-92495714D01*
X158845095Y-92543333D01*
X158892714Y-92638571D01*
X158892714Y-93162380D01*
X159321285Y-93114761D02*
X159464142Y-93162380D01*
X159702238Y-93162380D01*
X159797476Y-93114761D01*
X159845095Y-93067142D01*
X159892714Y-92971904D01*
X159892714Y-92876666D01*
X159845095Y-92781428D01*
X159797476Y-92733809D01*
X159702238Y-92686190D01*
X159511761Y-92638571D01*
X159416523Y-92590952D01*
X159368904Y-92543333D01*
X159321285Y-92448095D01*
X159321285Y-92352857D01*
X159368904Y-92257619D01*
X159416523Y-92210000D01*
X159511761Y-92162380D01*
X159749857Y-92162380D01*
X159892714Y-92210000D01*
X160702238Y-93114761D02*
X160607000Y-93162380D01*
X160416523Y-93162380D01*
X160321285Y-93114761D01*
X160273666Y-93019523D01*
X160273666Y-92638571D01*
X160321285Y-92543333D01*
X160416523Y-92495714D01*
X160607000Y-92495714D01*
X160702238Y-92543333D01*
X160749857Y-92638571D01*
X160749857Y-92733809D01*
X160273666Y-92829047D01*
X161178428Y-92495714D02*
X161178428Y-93162380D01*
X161178428Y-92590952D02*
X161226047Y-92543333D01*
X161321285Y-92495714D01*
X161464142Y-92495714D01*
X161559380Y-92543333D01*
X161607000Y-92638571D01*
X161607000Y-93162380D01*
X162035571Y-93114761D02*
X162130809Y-93162380D01*
X162321285Y-93162380D01*
X162416523Y-93114761D01*
X162464142Y-93019523D01*
X162464142Y-92971904D01*
X162416523Y-92876666D01*
X162321285Y-92829047D01*
X162178428Y-92829047D01*
X162083190Y-92781428D01*
X162035571Y-92686190D01*
X162035571Y-92638571D01*
X162083190Y-92543333D01*
X162178428Y-92495714D01*
X162321285Y-92495714D01*
X162416523Y-92543333D01*
X163273666Y-93114761D02*
X163178428Y-93162380D01*
X162987952Y-93162380D01*
X162892714Y-93114761D01*
X162845095Y-93019523D01*
X162845095Y-92638571D01*
X162892714Y-92543333D01*
X162987952Y-92495714D01*
X163178428Y-92495714D01*
X163273666Y-92543333D01*
X163321285Y-92638571D01*
X163321285Y-92733809D01*
X162845095Y-92829047D01*
X153535571Y-94772380D02*
X153535571Y-93772380D01*
X154583190Y-94677142D02*
X154535571Y-94724761D01*
X154392714Y-94772380D01*
X154297476Y-94772380D01*
X154154619Y-94724761D01*
X154059380Y-94629523D01*
X154011761Y-94534285D01*
X153964142Y-94343809D01*
X153964142Y-94200952D01*
X154011761Y-94010476D01*
X154059380Y-93915238D01*
X154154619Y-93820000D01*
X154297476Y-93772380D01*
X154392714Y-93772380D01*
X154535571Y-93820000D01*
X154583190Y-93867619D01*
X155011761Y-94772380D02*
X155011761Y-93772380D01*
X155345095Y-94486666D01*
X155678428Y-93772380D01*
X155678428Y-94772380D01*
X156154619Y-94391428D02*
X156916523Y-94391428D01*
X157345095Y-93867619D02*
X157392714Y-93820000D01*
X157487952Y-93772380D01*
X157726047Y-93772380D01*
X157821285Y-93820000D01*
X157868904Y-93867619D01*
X157916523Y-93962857D01*
X157916523Y-94058095D01*
X157868904Y-94200952D01*
X157297476Y-94772380D01*
X157916523Y-94772380D01*
X158535571Y-93772380D02*
X158630809Y-93772380D01*
X158726047Y-93820000D01*
X158773666Y-93867619D01*
X158821285Y-93962857D01*
X158868904Y-94153333D01*
X158868904Y-94391428D01*
X158821285Y-94581904D01*
X158773666Y-94677142D01*
X158726047Y-94724761D01*
X158630809Y-94772380D01*
X158535571Y-94772380D01*
X158440333Y-94724761D01*
X158392714Y-94677142D01*
X158345095Y-94581904D01*
X158297476Y-94391428D01*
X158297476Y-94153333D01*
X158345095Y-93962857D01*
X158392714Y-93867619D01*
X158440333Y-93820000D01*
X158535571Y-93772380D01*
X159345095Y-94772380D02*
X159535571Y-94772380D01*
X159630809Y-94724761D01*
X159678428Y-94677142D01*
X159773666Y-94534285D01*
X159821285Y-94343809D01*
X159821285Y-93962857D01*
X159773666Y-93867619D01*
X159726047Y-93820000D01*
X159630809Y-93772380D01*
X159440333Y-93772380D01*
X159345095Y-93820000D01*
X159297476Y-93867619D01*
X159249857Y-93962857D01*
X159249857Y-94200952D01*
X159297476Y-94296190D01*
X159345095Y-94343809D01*
X159440333Y-94391428D01*
X159630809Y-94391428D01*
X159726047Y-94343809D01*
X159773666Y-94296190D01*
X159821285Y-94200952D01*
X160678428Y-94105714D02*
X160678428Y-94772380D01*
X160440333Y-93724761D02*
X160202238Y-94439047D01*
X160821285Y-94439047D01*
X161345095Y-94200952D02*
X161249857Y-94153333D01*
X161202238Y-94105714D01*
X161154619Y-94010476D01*
X161154619Y-93962857D01*
X161202238Y-93867619D01*
X161249857Y-93820000D01*
X161345095Y-93772380D01*
X161535571Y-93772380D01*
X161630809Y-93820000D01*
X161678428Y-93867619D01*
X161726047Y-93962857D01*
X161726047Y-94010476D01*
X161678428Y-94105714D01*
X161630809Y-94153333D01*
X161535571Y-94200952D01*
X161345095Y-94200952D01*
X161249857Y-94248571D01*
X161202238Y-94296190D01*
X161154619Y-94391428D01*
X161154619Y-94581904D01*
X161202238Y-94677142D01*
X161249857Y-94724761D01*
X161345095Y-94772380D01*
X161535571Y-94772380D01*
X161630809Y-94724761D01*
X161678428Y-94677142D01*
X161726047Y-94581904D01*
X161726047Y-94391428D01*
X161678428Y-94296190D01*
X161630809Y-94248571D01*
X161535571Y-94200952D01*
D12*
X146653333Y-91614761D02*
X147986666Y-93614761D01*
X147986666Y-91614761D02*
X146653333Y-93614761D01*
D10*
X138789523Y-60634904D02*
X140456190Y-65634904D01*
X142122857Y-60634904D01*
X146646666Y-65634904D02*
X144980000Y-63253952D01*
X143789523Y-65634904D02*
X143789523Y-60634904D01*
X145694285Y-60634904D01*
X146170476Y-60873000D01*
X146408571Y-61111095D01*
X146646666Y-61587285D01*
X146646666Y-62301571D01*
X146408571Y-62777761D01*
X146170476Y-63015857D01*
X145694285Y-63253952D01*
X143789523Y-63253952D01*
X150932380Y-65634904D02*
X150932380Y-60634904D01*
X150932380Y-65396809D02*
X150456190Y-65634904D01*
X149503809Y-65634904D01*
X149027619Y-65396809D01*
X148789523Y-65158714D01*
X148551428Y-64682523D01*
X148551428Y-63253952D01*
X148789523Y-62777761D01*
X149027619Y-62539666D01*
X149503809Y-62301571D01*
X150456190Y-62301571D01*
X150932380Y-62539666D01*
X155456190Y-62301571D02*
X155456190Y-65634904D01*
X153313333Y-62301571D02*
X153313333Y-64920619D01*
X153551428Y-65396809D01*
X154027619Y-65634904D01*
X154741904Y-65634904D01*
X155218095Y-65396809D01*
X155456190Y-65158714D01*
X157837142Y-65634904D02*
X157837142Y-62301571D01*
X157837142Y-60634904D02*
X157599047Y-60873000D01*
X157837142Y-61111095D01*
X158075238Y-60873000D01*
X157837142Y-60634904D01*
X157837142Y-61111095D01*
X160218095Y-62301571D02*
X160218095Y-65634904D01*
X160218095Y-62777761D02*
X160456190Y-62539666D01*
X160932380Y-62301571D01*
X161646666Y-62301571D01*
X162122857Y-62539666D01*
X162360952Y-63015857D01*
X162360952Y-65634904D01*
X165456190Y-65634904D02*
X164980000Y-65396809D01*
X164741904Y-65158714D01*
X164503809Y-64682523D01*
X164503809Y-63253952D01*
X164741904Y-62777761D01*
X164980000Y-62539666D01*
X165456190Y-62301571D01*
X166170476Y-62301571D01*
X166646666Y-62539666D01*
X166884761Y-62777761D01*
X167122857Y-63253952D01*
X167122857Y-64682523D01*
X166884761Y-65158714D01*
X166646666Y-65396809D01*
X166170476Y-65634904D01*
X165456190Y-65634904D01*
X172837142Y-61111095D02*
X173075238Y-60873000D01*
X173551428Y-60634904D01*
X174741904Y-60634904D01*
X175218095Y-60873000D01*
X175456190Y-61111095D01*
X175694285Y-61587285D01*
X175694285Y-62063476D01*
X175456190Y-62777761D01*
X172599047Y-65634904D01*
X175694285Y-65634904D01*
D11*
X180197619Y-92162380D02*
X180769047Y-92162380D01*
X180483333Y-93162380D02*
X180483333Y-92162380D01*
X181483333Y-93114761D02*
X181388095Y-93162380D01*
X181197619Y-93162380D01*
X181102380Y-93114761D01*
X181054761Y-93019523D01*
X181054761Y-92638571D01*
X181102380Y-92543333D01*
X181197619Y-92495714D01*
X181388095Y-92495714D01*
X181483333Y-92543333D01*
X181530952Y-92638571D01*
X181530952Y-92733809D01*
X181054761Y-92829047D01*
X182340476Y-93114761D02*
X182245238Y-93162380D01*
X182054761Y-93162380D01*
X181959523Y-93114761D01*
X181911904Y-93019523D01*
X181911904Y-92638571D01*
X181959523Y-92543333D01*
X182054761Y-92495714D01*
X182245238Y-92495714D01*
X182340476Y-92543333D01*
X182388095Y-92638571D01*
X182388095Y-92733809D01*
X181911904Y-92829047D01*
X182816666Y-92495714D02*
X182816666Y-93162380D01*
X182816666Y-92590952D02*
X182864285Y-92543333D01*
X182959523Y-92495714D01*
X183102380Y-92495714D01*
X183197619Y-92543333D01*
X183245238Y-92638571D01*
X183245238Y-93162380D01*
X183673809Y-93114761D02*
X183769047Y-93162380D01*
X183959523Y-93162380D01*
X184054761Y-93114761D01*
X184102380Y-93019523D01*
X184102380Y-92971904D01*
X184054761Y-92876666D01*
X183959523Y-92829047D01*
X183816666Y-92829047D01*
X183721428Y-92781428D01*
X183673809Y-92686190D01*
X183673809Y-92638571D01*
X183721428Y-92543333D01*
X183816666Y-92495714D01*
X183959523Y-92495714D01*
X184054761Y-92543333D01*
X184435714Y-92495714D02*
X184673809Y-93162380D01*
X184911904Y-92495714D02*
X184673809Y-93162380D01*
X184578571Y-93400476D01*
X184530952Y-93448095D01*
X184435714Y-93495714D01*
X186483333Y-92495714D02*
X186483333Y-93162380D01*
X186245238Y-92114761D02*
X186007142Y-92829047D01*
X186626190Y-92829047D01*
X187007142Y-93067142D02*
X187054761Y-93114761D01*
X187007142Y-93162380D01*
X186959523Y-93114761D01*
X187007142Y-93067142D01*
X187007142Y-93162380D01*
X187673809Y-92162380D02*
X187769047Y-92162380D01*
X187864285Y-92210000D01*
X187911904Y-92257619D01*
X187959523Y-92352857D01*
X188007142Y-92543333D01*
X188007142Y-92781428D01*
X187959523Y-92971904D01*
X187911904Y-93067142D01*
X187864285Y-93114761D01*
X187769047Y-93162380D01*
X187673809Y-93162380D01*
X187578571Y-93114761D01*
X187530952Y-93067142D01*
X187483333Y-92971904D01*
X187435714Y-92781428D01*
X187435714Y-92543333D01*
X187483333Y-92352857D01*
X187530952Y-92257619D01*
X187578571Y-92210000D01*
X187673809Y-92162380D01*
X126500000Y-93710000D02*
X126452380Y-93805238D01*
X126452380Y-93948095D01*
X126500000Y-94090952D01*
X126595238Y-94186190D01*
X126690476Y-94233809D01*
X126880952Y-94281428D01*
X127023809Y-94281428D01*
X127214285Y-94233809D01*
X127309523Y-94186190D01*
X127404761Y-94090952D01*
X127452380Y-93948095D01*
X127452380Y-93852857D01*
X127404761Y-93710000D01*
X127357142Y-93662380D01*
X127023809Y-93662380D01*
X127023809Y-93852857D01*
X127452380Y-93233809D02*
X126452380Y-93233809D01*
X126452380Y-92852857D01*
X126500000Y-92757619D01*
X126547619Y-92710000D01*
X126642857Y-92662380D01*
X126785714Y-92662380D01*
X126880952Y-92710000D01*
X126928571Y-92757619D01*
X126976190Y-92852857D01*
X126976190Y-93233809D01*
X127452380Y-92233809D02*
X126452380Y-92233809D01*
X126452380Y-91567142D02*
X126452380Y-91376666D01*
X126500000Y-91281428D01*
X126595238Y-91186190D01*
X126785714Y-91138571D01*
X127119047Y-91138571D01*
X127309523Y-91186190D01*
X127404761Y-91281428D01*
X127452380Y-91376666D01*
X127452380Y-91567142D01*
X127404761Y-91662380D01*
X127309523Y-91757619D01*
X127119047Y-91805238D01*
X126785714Y-91805238D01*
X126595238Y-91757619D01*
X126500000Y-91662380D01*
X126452380Y-91567142D01*
D12*
X157480000Y-79962380D02*
X157480000Y-80914761D01*
X156813333Y-78914761D02*
X157480000Y-79962380D01*
X158146666Y-78914761D01*
D11*
%TO.C,U3*%
X114471595Y-68534380D02*
X114471595Y-69343904D01*
X114519214Y-69439142D01*
X114566833Y-69486761D01*
X114662071Y-69534380D01*
X114852547Y-69534380D01*
X114947785Y-69486761D01*
X114995404Y-69439142D01*
X115043023Y-69343904D01*
X115043023Y-68534380D01*
X115423976Y-68534380D02*
X116043023Y-68534380D01*
X115709690Y-68915333D01*
X115852547Y-68915333D01*
X115947785Y-68962952D01*
X115995404Y-69010571D01*
X116043023Y-69105809D01*
X116043023Y-69343904D01*
X115995404Y-69439142D01*
X115947785Y-69486761D01*
X115852547Y-69534380D01*
X115566833Y-69534380D01*
X115471595Y-69486761D01*
X115423976Y-69439142D01*
D13*
X116522666Y-70338190D02*
X116808380Y-70338190D01*
X116665523Y-70838190D02*
X116665523Y-70338190D01*
X116951238Y-70814380D02*
X117022666Y-70838190D01*
X117141714Y-70838190D01*
X117189333Y-70814380D01*
X117213142Y-70790571D01*
X117236952Y-70742952D01*
X117236952Y-70695333D01*
X117213142Y-70647714D01*
X117189333Y-70623904D01*
X117141714Y-70600095D01*
X117046476Y-70576285D01*
X116998857Y-70552476D01*
X116975047Y-70528666D01*
X116951238Y-70481047D01*
X116951238Y-70433428D01*
X116975047Y-70385809D01*
X116998857Y-70362000D01*
X117046476Y-70338190D01*
X117165523Y-70338190D01*
X117236952Y-70362000D01*
X117665523Y-70504857D02*
X117665523Y-70838190D01*
X117546476Y-70314380D02*
X117427428Y-70671523D01*
X117736952Y-70671523D01*
X117903619Y-70385809D02*
X117927428Y-70362000D01*
X117975047Y-70338190D01*
X118094095Y-70338190D01*
X118141714Y-70362000D01*
X118165523Y-70385809D01*
X118189333Y-70433428D01*
X118189333Y-70481047D01*
X118165523Y-70552476D01*
X117879809Y-70838190D01*
X118189333Y-70838190D01*
X118356000Y-70338190D02*
X118665523Y-70338190D01*
X118498857Y-70528666D01*
X118570285Y-70528666D01*
X118617904Y-70552476D01*
X118641714Y-70576285D01*
X118665523Y-70623904D01*
X118665523Y-70742952D01*
X118641714Y-70790571D01*
X118617904Y-70814380D01*
X118570285Y-70838190D01*
X118427428Y-70838190D01*
X118379809Y-70814380D01*
X118356000Y-70790571D01*
X119141714Y-70838190D02*
X118856000Y-70838190D01*
X118998857Y-70838190D02*
X118998857Y-70338190D01*
X118951238Y-70409619D01*
X118903619Y-70457238D01*
X118856000Y-70481047D01*
D11*
%TO.C,U1*%
X198299595Y-68534380D02*
X198299595Y-69343904D01*
X198347214Y-69439142D01*
X198394833Y-69486761D01*
X198490071Y-69534380D01*
X198680547Y-69534380D01*
X198775785Y-69486761D01*
X198823404Y-69439142D01*
X198871023Y-69343904D01*
X198871023Y-68534380D01*
X199871023Y-69534380D02*
X199299595Y-69534380D01*
X199585309Y-69534380D02*
X199585309Y-68534380D01*
X199490071Y-68677238D01*
X199394833Y-68772476D01*
X199299595Y-68820095D01*
D13*
X200350666Y-70338190D02*
X200636380Y-70338190D01*
X200493523Y-70838190D02*
X200493523Y-70338190D01*
X200779238Y-70814380D02*
X200850666Y-70838190D01*
X200969714Y-70838190D01*
X201017333Y-70814380D01*
X201041142Y-70790571D01*
X201064952Y-70742952D01*
X201064952Y-70695333D01*
X201041142Y-70647714D01*
X201017333Y-70623904D01*
X200969714Y-70600095D01*
X200874476Y-70576285D01*
X200826857Y-70552476D01*
X200803047Y-70528666D01*
X200779238Y-70481047D01*
X200779238Y-70433428D01*
X200803047Y-70385809D01*
X200826857Y-70362000D01*
X200874476Y-70338190D01*
X200993523Y-70338190D01*
X201064952Y-70362000D01*
X201493523Y-70504857D02*
X201493523Y-70838190D01*
X201374476Y-70314380D02*
X201255428Y-70671523D01*
X201564952Y-70671523D01*
X201731619Y-70385809D02*
X201755428Y-70362000D01*
X201803047Y-70338190D01*
X201922095Y-70338190D01*
X201969714Y-70362000D01*
X201993523Y-70385809D01*
X202017333Y-70433428D01*
X202017333Y-70481047D01*
X201993523Y-70552476D01*
X201707809Y-70838190D01*
X202017333Y-70838190D01*
X202184000Y-70338190D02*
X202493523Y-70338190D01*
X202326857Y-70528666D01*
X202398285Y-70528666D01*
X202445904Y-70552476D01*
X202469714Y-70576285D01*
X202493523Y-70623904D01*
X202493523Y-70742952D01*
X202469714Y-70790571D01*
X202445904Y-70814380D01*
X202398285Y-70838190D01*
X202255428Y-70838190D01*
X202207809Y-70814380D01*
X202184000Y-70790571D01*
X202969714Y-70838190D02*
X202684000Y-70838190D01*
X202826857Y-70838190D02*
X202826857Y-70338190D01*
X202779238Y-70409619D01*
X202731619Y-70457238D01*
X202684000Y-70481047D01*
D11*
%TO.C,U2*%
X201159595Y-115790380D02*
X201159595Y-116599904D01*
X201207214Y-116695142D01*
X201254833Y-116742761D01*
X201350071Y-116790380D01*
X201540547Y-116790380D01*
X201635785Y-116742761D01*
X201683404Y-116695142D01*
X201731023Y-116599904D01*
X201731023Y-115790380D01*
X202159595Y-115885619D02*
X202207214Y-115838000D01*
X202302452Y-115790380D01*
X202540547Y-115790380D01*
X202635785Y-115838000D01*
X202683404Y-115885619D01*
X202731023Y-115980857D01*
X202731023Y-116076095D01*
X202683404Y-116218952D01*
X202111976Y-116790380D01*
X202731023Y-116790380D01*
D13*
X195770666Y-114534190D02*
X196056380Y-114534190D01*
X195913523Y-115034190D02*
X195913523Y-114534190D01*
X196199238Y-115010380D02*
X196270666Y-115034190D01*
X196389714Y-115034190D01*
X196437333Y-115010380D01*
X196461142Y-114986571D01*
X196484952Y-114938952D01*
X196484952Y-114891333D01*
X196461142Y-114843714D01*
X196437333Y-114819904D01*
X196389714Y-114796095D01*
X196294476Y-114772285D01*
X196246857Y-114748476D01*
X196223047Y-114724666D01*
X196199238Y-114677047D01*
X196199238Y-114629428D01*
X196223047Y-114581809D01*
X196246857Y-114558000D01*
X196294476Y-114534190D01*
X196413523Y-114534190D01*
X196484952Y-114558000D01*
X196913523Y-114700857D02*
X196913523Y-115034190D01*
X196794476Y-114510380D02*
X196675428Y-114867523D01*
X196984952Y-114867523D01*
X197151619Y-114581809D02*
X197175428Y-114558000D01*
X197223047Y-114534190D01*
X197342095Y-114534190D01*
X197389714Y-114558000D01*
X197413523Y-114581809D01*
X197437333Y-114629428D01*
X197437333Y-114677047D01*
X197413523Y-114748476D01*
X197127809Y-115034190D01*
X197437333Y-115034190D01*
X197604000Y-114534190D02*
X197913523Y-114534190D01*
X197746857Y-114724666D01*
X197818285Y-114724666D01*
X197865904Y-114748476D01*
X197889714Y-114772285D01*
X197913523Y-114819904D01*
X197913523Y-114938952D01*
X197889714Y-114986571D01*
X197865904Y-115010380D01*
X197818285Y-115034190D01*
X197675428Y-115034190D01*
X197627809Y-115010380D01*
X197604000Y-114986571D01*
X198389714Y-115034190D02*
X198104000Y-115034190D01*
X198246857Y-115034190D02*
X198246857Y-114534190D01*
X198199238Y-114605619D01*
X198151619Y-114653238D01*
X198104000Y-114677047D01*
D11*
%TO.C,U4*%
X117339595Y-115790380D02*
X117339595Y-116599904D01*
X117387214Y-116695142D01*
X117434833Y-116742761D01*
X117530071Y-116790380D01*
X117720547Y-116790380D01*
X117815785Y-116742761D01*
X117863404Y-116695142D01*
X117911023Y-116599904D01*
X117911023Y-115790380D01*
X118815785Y-116123714D02*
X118815785Y-116790380D01*
X118577690Y-115742761D02*
X118339595Y-116457047D01*
X118958642Y-116457047D01*
D13*
X111950666Y-114534190D02*
X112236380Y-114534190D01*
X112093523Y-115034190D02*
X112093523Y-114534190D01*
X112379238Y-115010380D02*
X112450666Y-115034190D01*
X112569714Y-115034190D01*
X112617333Y-115010380D01*
X112641142Y-114986571D01*
X112664952Y-114938952D01*
X112664952Y-114891333D01*
X112641142Y-114843714D01*
X112617333Y-114819904D01*
X112569714Y-114796095D01*
X112474476Y-114772285D01*
X112426857Y-114748476D01*
X112403047Y-114724666D01*
X112379238Y-114677047D01*
X112379238Y-114629428D01*
X112403047Y-114581809D01*
X112426857Y-114558000D01*
X112474476Y-114534190D01*
X112593523Y-114534190D01*
X112664952Y-114558000D01*
X113093523Y-114700857D02*
X113093523Y-115034190D01*
X112974476Y-114510380D02*
X112855428Y-114867523D01*
X113164952Y-114867523D01*
X113331619Y-114581809D02*
X113355428Y-114558000D01*
X113403047Y-114534190D01*
X113522095Y-114534190D01*
X113569714Y-114558000D01*
X113593523Y-114581809D01*
X113617333Y-114629428D01*
X113617333Y-114677047D01*
X113593523Y-114748476D01*
X113307809Y-115034190D01*
X113617333Y-115034190D01*
X113784000Y-114534190D02*
X114093523Y-114534190D01*
X113926857Y-114724666D01*
X113998285Y-114724666D01*
X114045904Y-114748476D01*
X114069714Y-114772285D01*
X114093523Y-114819904D01*
X114093523Y-114938952D01*
X114069714Y-114986571D01*
X114045904Y-115010380D01*
X113998285Y-115034190D01*
X113855428Y-115034190D01*
X113807809Y-115010380D01*
X113784000Y-114986571D01*
X114569714Y-115034190D02*
X114284000Y-115034190D01*
X114426857Y-115034190D02*
X114426857Y-114534190D01*
X114379238Y-114605619D01*
X114331619Y-114653238D01*
X114284000Y-114677047D01*
D11*
%TO.C,C6*%
X119213333Y-72366142D02*
X119165714Y-72413761D01*
X119022857Y-72461380D01*
X118927619Y-72461380D01*
X118784761Y-72413761D01*
X118689523Y-72318523D01*
X118641904Y-72223285D01*
X118594285Y-72032809D01*
X118594285Y-71889952D01*
X118641904Y-71699476D01*
X118689523Y-71604238D01*
X118784761Y-71509000D01*
X118927619Y-71461380D01*
X119022857Y-71461380D01*
X119165714Y-71509000D01*
X119213333Y-71556619D01*
X120070476Y-71461380D02*
X119880000Y-71461380D01*
X119784761Y-71509000D01*
X119737142Y-71556619D01*
X119641904Y-71699476D01*
X119594285Y-71889952D01*
X119594285Y-72270904D01*
X119641904Y-72366142D01*
X119689523Y-72413761D01*
X119784761Y-72461380D01*
X119975238Y-72461380D01*
X120070476Y-72413761D01*
X120118095Y-72366142D01*
X120165714Y-72270904D01*
X120165714Y-72032809D01*
X120118095Y-71937571D01*
X120070476Y-71889952D01*
X119975238Y-71842333D01*
X119784761Y-71842333D01*
X119689523Y-71889952D01*
X119641904Y-71937571D01*
X119594285Y-72032809D01*
%TO.C,C7*%
X120483333Y-115673142D02*
X120435714Y-115720761D01*
X120292857Y-115768380D01*
X120197619Y-115768380D01*
X120054761Y-115720761D01*
X119959523Y-115625523D01*
X119911904Y-115530285D01*
X119864285Y-115339809D01*
X119864285Y-115196952D01*
X119911904Y-115006476D01*
X119959523Y-114911238D01*
X120054761Y-114816000D01*
X120197619Y-114768380D01*
X120292857Y-114768380D01*
X120435714Y-114816000D01*
X120483333Y-114863619D01*
X120816666Y-114768380D02*
X121483333Y-114768380D01*
X121054761Y-115768380D01*
%TO.C,C8*%
X111593333Y-113641142D02*
X111545714Y-113688761D01*
X111402857Y-113736380D01*
X111307619Y-113736380D01*
X111164761Y-113688761D01*
X111069523Y-113593523D01*
X111021904Y-113498285D01*
X110974285Y-113307809D01*
X110974285Y-113164952D01*
X111021904Y-112974476D01*
X111069523Y-112879238D01*
X111164761Y-112784000D01*
X111307619Y-112736380D01*
X111402857Y-112736380D01*
X111545714Y-112784000D01*
X111593333Y-112831619D01*
X112164761Y-113164952D02*
X112069523Y-113117333D01*
X112021904Y-113069714D01*
X111974285Y-112974476D01*
X111974285Y-112926857D01*
X112021904Y-112831619D01*
X112069523Y-112784000D01*
X112164761Y-112736380D01*
X112355238Y-112736380D01*
X112450476Y-112784000D01*
X112498095Y-112831619D01*
X112545714Y-112926857D01*
X112545714Y-112974476D01*
X112498095Y-113069714D01*
X112450476Y-113117333D01*
X112355238Y-113164952D01*
X112164761Y-113164952D01*
X112069523Y-113212571D01*
X112021904Y-113260190D01*
X111974285Y-113355428D01*
X111974285Y-113545904D01*
X112021904Y-113641142D01*
X112069523Y-113688761D01*
X112164761Y-113736380D01*
X112355238Y-113736380D01*
X112450476Y-113688761D01*
X112498095Y-113641142D01*
X112545714Y-113545904D01*
X112545714Y-113355428D01*
X112498095Y-113260190D01*
X112450476Y-113212571D01*
X112355238Y-113164952D01*
%TO.C,C1*%
X194143333Y-70207142D02*
X194095714Y-70254761D01*
X193952857Y-70302380D01*
X193857619Y-70302380D01*
X193714761Y-70254761D01*
X193619523Y-70159523D01*
X193571904Y-70064285D01*
X193524285Y-69873809D01*
X193524285Y-69730952D01*
X193571904Y-69540476D01*
X193619523Y-69445238D01*
X193714761Y-69350000D01*
X193857619Y-69302380D01*
X193952857Y-69302380D01*
X194095714Y-69350000D01*
X194143333Y-69397619D01*
X195095714Y-70302380D02*
X194524285Y-70302380D01*
X194810000Y-70302380D02*
X194810000Y-69302380D01*
X194714761Y-69445238D01*
X194619523Y-69540476D01*
X194524285Y-69588095D01*
%TO.C,C2*%
X203033333Y-72366142D02*
X202985714Y-72413761D01*
X202842857Y-72461380D01*
X202747619Y-72461380D01*
X202604761Y-72413761D01*
X202509523Y-72318523D01*
X202461904Y-72223285D01*
X202414285Y-72032809D01*
X202414285Y-71889952D01*
X202461904Y-71699476D01*
X202509523Y-71604238D01*
X202604761Y-71509000D01*
X202747619Y-71461380D01*
X202842857Y-71461380D01*
X202985714Y-71509000D01*
X203033333Y-71556619D01*
X203414285Y-71556619D02*
X203461904Y-71509000D01*
X203557142Y-71461380D01*
X203795238Y-71461380D01*
X203890476Y-71509000D01*
X203938095Y-71556619D01*
X203985714Y-71651857D01*
X203985714Y-71747095D01*
X203938095Y-71889952D01*
X203366666Y-72461380D01*
X203985714Y-72461380D01*
%TO.C,C3*%
X204303333Y-115927142D02*
X204255714Y-115974761D01*
X204112857Y-116022380D01*
X204017619Y-116022380D01*
X203874761Y-115974761D01*
X203779523Y-115879523D01*
X203731904Y-115784285D01*
X203684285Y-115593809D01*
X203684285Y-115450952D01*
X203731904Y-115260476D01*
X203779523Y-115165238D01*
X203874761Y-115070000D01*
X204017619Y-115022380D01*
X204112857Y-115022380D01*
X204255714Y-115070000D01*
X204303333Y-115117619D01*
X204636666Y-115022380D02*
X205255714Y-115022380D01*
X204922380Y-115403333D01*
X205065238Y-115403333D01*
X205160476Y-115450952D01*
X205208095Y-115498571D01*
X205255714Y-115593809D01*
X205255714Y-115831904D01*
X205208095Y-115927142D01*
X205160476Y-115974761D01*
X205065238Y-116022380D01*
X204779523Y-116022380D01*
X204684285Y-115974761D01*
X204636666Y-115927142D01*
%TO.C,C4*%
X195413333Y-113768142D02*
X195365714Y-113815761D01*
X195222857Y-113863380D01*
X195127619Y-113863380D01*
X194984761Y-113815761D01*
X194889523Y-113720523D01*
X194841904Y-113625285D01*
X194794285Y-113434809D01*
X194794285Y-113291952D01*
X194841904Y-113101476D01*
X194889523Y-113006238D01*
X194984761Y-112911000D01*
X195127619Y-112863380D01*
X195222857Y-112863380D01*
X195365714Y-112911000D01*
X195413333Y-112958619D01*
X196270476Y-113196714D02*
X196270476Y-113863380D01*
X196032380Y-112815761D02*
X195794285Y-113530047D01*
X196413333Y-113530047D01*
%TO.C,D4*%
X114958904Y-64714380D02*
X114958904Y-63714380D01*
X115197000Y-63714380D01*
X115339857Y-63762000D01*
X115435095Y-63857238D01*
X115482714Y-63952476D01*
X115530333Y-64142952D01*
X115530333Y-64285809D01*
X115482714Y-64476285D01*
X115435095Y-64571523D01*
X115339857Y-64666761D01*
X115197000Y-64714380D01*
X114958904Y-64714380D01*
X116387476Y-64047714D02*
X116387476Y-64714380D01*
X116149380Y-63666761D02*
X115911285Y-64381047D01*
X116530333Y-64381047D01*
%TO.C,D5*%
X114841904Y-121737380D02*
X114841904Y-120737380D01*
X115080000Y-120737380D01*
X115222857Y-120785000D01*
X115318095Y-120880238D01*
X115365714Y-120975476D01*
X115413333Y-121165952D01*
X115413333Y-121308809D01*
X115365714Y-121499285D01*
X115318095Y-121594523D01*
X115222857Y-121689761D01*
X115080000Y-121737380D01*
X114841904Y-121737380D01*
X116318095Y-120737380D02*
X115841904Y-120737380D01*
X115794285Y-121213571D01*
X115841904Y-121165952D01*
X115937142Y-121118333D01*
X116175238Y-121118333D01*
X116270476Y-121165952D01*
X116318095Y-121213571D01*
X116365714Y-121308809D01*
X116365714Y-121546904D01*
X116318095Y-121642142D01*
X116270476Y-121689761D01*
X116175238Y-121737380D01*
X115937142Y-121737380D01*
X115841904Y-121689761D01*
X115794285Y-121642142D01*
%TO.C,D2*%
X198651904Y-64841380D02*
X198651904Y-63841380D01*
X198890000Y-63841380D01*
X199032857Y-63889000D01*
X199128095Y-63984238D01*
X199175714Y-64079476D01*
X199223333Y-64269952D01*
X199223333Y-64412809D01*
X199175714Y-64603285D01*
X199128095Y-64698523D01*
X199032857Y-64793761D01*
X198890000Y-64841380D01*
X198651904Y-64841380D01*
X199604285Y-63936619D02*
X199651904Y-63889000D01*
X199747142Y-63841380D01*
X199985238Y-63841380D01*
X200080476Y-63889000D01*
X200128095Y-63936619D01*
X200175714Y-64031857D01*
X200175714Y-64127095D01*
X200128095Y-64269952D01*
X199556666Y-64841380D01*
X200175714Y-64841380D01*
%TO.C,D3*%
X198661904Y-121610380D02*
X198661904Y-120610380D01*
X198900000Y-120610380D01*
X199042857Y-120658000D01*
X199138095Y-120753238D01*
X199185714Y-120848476D01*
X199233333Y-121038952D01*
X199233333Y-121181809D01*
X199185714Y-121372285D01*
X199138095Y-121467523D01*
X199042857Y-121562761D01*
X198900000Y-121610380D01*
X198661904Y-121610380D01*
X199566666Y-120610380D02*
X200185714Y-120610380D01*
X199852380Y-120991333D01*
X199995238Y-120991333D01*
X200090476Y-121038952D01*
X200138095Y-121086571D01*
X200185714Y-121181809D01*
X200185714Y-121419904D01*
X200138095Y-121515142D01*
X200090476Y-121562761D01*
X199995238Y-121610380D01*
X199709523Y-121610380D01*
X199614285Y-121562761D01*
X199566666Y-121515142D01*
%TO.C,J2*%
X191436666Y-72882380D02*
X191436666Y-73596666D01*
X191389047Y-73739523D01*
X191293809Y-73834761D01*
X191150952Y-73882380D01*
X191055714Y-73882380D01*
X191865238Y-72977619D02*
X191912857Y-72930000D01*
X192008095Y-72882380D01*
X192246190Y-72882380D01*
X192341428Y-72930000D01*
X192389047Y-72977619D01*
X192436666Y-73072857D01*
X192436666Y-73168095D01*
X192389047Y-73310952D01*
X191817619Y-73882380D01*
X192436666Y-73882380D01*
%TO.C,J3*%
X147812380Y-99393333D02*
X148526666Y-99393333D01*
X148669523Y-99440952D01*
X148764761Y-99536190D01*
X148812380Y-99679047D01*
X148812380Y-99774285D01*
X147812380Y-99012380D02*
X147812380Y-98393333D01*
X148193333Y-98726666D01*
X148193333Y-98583809D01*
X148240952Y-98488571D01*
X148288571Y-98440952D01*
X148383809Y-98393333D01*
X148621904Y-98393333D01*
X148717142Y-98440952D01*
X148764761Y-98488571D01*
X148812380Y-98583809D01*
X148812380Y-98869523D01*
X148764761Y-98964761D01*
X148717142Y-99012380D01*
%TO.C,J4*%
X147812380Y-86693333D02*
X148526666Y-86693333D01*
X148669523Y-86740952D01*
X148764761Y-86836190D01*
X148812380Y-86979047D01*
X148812380Y-87074285D01*
X148145714Y-85788571D02*
X148812380Y-85788571D01*
X147764761Y-86026666D02*
X148479047Y-86264761D01*
X148479047Y-85645714D01*
%TO.C,J5*%
X130476666Y-70342380D02*
X130476666Y-71056666D01*
X130429047Y-71199523D01*
X130333809Y-71294761D01*
X130190952Y-71342380D01*
X130095714Y-71342380D01*
X131429047Y-70342380D02*
X130952857Y-70342380D01*
X130905238Y-70818571D01*
X130952857Y-70770952D01*
X131048095Y-70723333D01*
X131286190Y-70723333D01*
X131381428Y-70770952D01*
X131429047Y-70818571D01*
X131476666Y-70913809D01*
X131476666Y-71151904D01*
X131429047Y-71247142D01*
X131381428Y-71294761D01*
X131286190Y-71342380D01*
X131048095Y-71342380D01*
X130952857Y-71294761D01*
X130905238Y-71247142D01*
%TO.C,R1*%
X176363333Y-70302380D02*
X176030000Y-69826190D01*
X175791904Y-70302380D02*
X175791904Y-69302380D01*
X176172857Y-69302380D01*
X176268095Y-69350000D01*
X176315714Y-69397619D01*
X176363333Y-69492857D01*
X176363333Y-69635714D01*
X176315714Y-69730952D01*
X176268095Y-69778571D01*
X176172857Y-69826190D01*
X175791904Y-69826190D01*
X177315714Y-70302380D02*
X176744285Y-70302380D01*
X177030000Y-70302380D02*
X177030000Y-69302380D01*
X176934761Y-69445238D01*
X176839523Y-69540476D01*
X176744285Y-69588095D01*
%TO.C,R4*%
X112482333Y-72842380D02*
X112149000Y-72366190D01*
X111910904Y-72842380D02*
X111910904Y-71842380D01*
X112291857Y-71842380D01*
X112387095Y-71890000D01*
X112434714Y-71937619D01*
X112482333Y-72032857D01*
X112482333Y-72175714D01*
X112434714Y-72270952D01*
X112387095Y-72318571D01*
X112291857Y-72366190D01*
X111910904Y-72366190D01*
X113339476Y-72175714D02*
X113339476Y-72842380D01*
X113101380Y-71794761D02*
X112863285Y-72509047D01*
X113482333Y-72509047D01*
%TO.C,R5*%
X118451333Y-113482380D02*
X118118000Y-113006190D01*
X117879904Y-113482380D02*
X117879904Y-112482380D01*
X118260857Y-112482380D01*
X118356095Y-112530000D01*
X118403714Y-112577619D01*
X118451333Y-112672857D01*
X118451333Y-112815714D01*
X118403714Y-112910952D01*
X118356095Y-112958571D01*
X118260857Y-113006190D01*
X117879904Y-113006190D01*
X119356095Y-112482380D02*
X118879904Y-112482380D01*
X118832285Y-112958571D01*
X118879904Y-112910952D01*
X118975142Y-112863333D01*
X119213238Y-112863333D01*
X119308476Y-112910952D01*
X119356095Y-112958571D01*
X119403714Y-113053809D01*
X119403714Y-113291904D01*
X119356095Y-113387142D01*
X119308476Y-113434761D01*
X119213238Y-113482380D01*
X118975142Y-113482380D01*
X118879904Y-113434761D01*
X118832285Y-113387142D01*
%TO.C,R2*%
X196302333Y-72842380D02*
X195969000Y-72366190D01*
X195730904Y-72842380D02*
X195730904Y-71842380D01*
X196111857Y-71842380D01*
X196207095Y-71890000D01*
X196254714Y-71937619D01*
X196302333Y-72032857D01*
X196302333Y-72175714D01*
X196254714Y-72270952D01*
X196207095Y-72318571D01*
X196111857Y-72366190D01*
X195730904Y-72366190D01*
X196683285Y-71937619D02*
X196730904Y-71890000D01*
X196826142Y-71842380D01*
X197064238Y-71842380D01*
X197159476Y-71890000D01*
X197207095Y-71937619D01*
X197254714Y-72032857D01*
X197254714Y-72128095D01*
X197207095Y-72270952D01*
X196635666Y-72842380D01*
X197254714Y-72842380D01*
%TO.C,R3*%
X202144333Y-113482380D02*
X201811000Y-113006190D01*
X201572904Y-113482380D02*
X201572904Y-112482380D01*
X201953857Y-112482380D01*
X202049095Y-112530000D01*
X202096714Y-112577619D01*
X202144333Y-112672857D01*
X202144333Y-112815714D01*
X202096714Y-112910952D01*
X202049095Y-112958571D01*
X201953857Y-113006190D01*
X201572904Y-113006190D01*
X202477666Y-112482380D02*
X203096714Y-112482380D01*
X202763380Y-112863333D01*
X202906238Y-112863333D01*
X203001476Y-112910952D01*
X203049095Y-112958571D01*
X203096714Y-113053809D01*
X203096714Y-113291904D01*
X203049095Y-113387142D01*
X203001476Y-113434761D01*
X202906238Y-113482380D01*
X202620523Y-113482380D01*
X202525285Y-113434761D01*
X202477666Y-113387142D01*
%TO.C,C5*%
X110450333Y-70461142D02*
X110402714Y-70508761D01*
X110259857Y-70556380D01*
X110164619Y-70556380D01*
X110021761Y-70508761D01*
X109926523Y-70413523D01*
X109878904Y-70318285D01*
X109831285Y-70127809D01*
X109831285Y-69984952D01*
X109878904Y-69794476D01*
X109926523Y-69699238D01*
X110021761Y-69604000D01*
X110164619Y-69556380D01*
X110259857Y-69556380D01*
X110402714Y-69604000D01*
X110450333Y-69651619D01*
X111355095Y-69556380D02*
X110878904Y-69556380D01*
X110831285Y-70032571D01*
X110878904Y-69984952D01*
X110974142Y-69937333D01*
X111212238Y-69937333D01*
X111307476Y-69984952D01*
X111355095Y-70032571D01*
X111402714Y-70127809D01*
X111402714Y-70365904D01*
X111355095Y-70461142D01*
X111307476Y-70508761D01*
X111212238Y-70556380D01*
X110974142Y-70556380D01*
X110878904Y-70508761D01*
X110831285Y-70461142D01*
%TO.C,J1*%
X176196666Y-72882380D02*
X176196666Y-73596666D01*
X176149047Y-73739523D01*
X176053809Y-73834761D01*
X175910952Y-73882380D01*
X175815714Y-73882380D01*
X177196666Y-73882380D02*
X176625238Y-73882380D01*
X176910952Y-73882380D02*
X176910952Y-72882380D01*
X176815714Y-73025238D01*
X176720476Y-73120476D01*
X176625238Y-73168095D01*
%TO.C,D1*%
X157932380Y-70588095D02*
X156932380Y-70588095D01*
X156932380Y-70350000D01*
X156980000Y-70207142D01*
X157075238Y-70111904D01*
X157170476Y-70064285D01*
X157360952Y-70016666D01*
X157503809Y-70016666D01*
X157694285Y-70064285D01*
X157789523Y-70111904D01*
X157884761Y-70207142D01*
X157932380Y-70350000D01*
X157932380Y-70588095D01*
X157932380Y-69064285D02*
X157932380Y-69635714D01*
X157932380Y-69350000D02*
X156932380Y-69350000D01*
X157075238Y-69445238D01*
X157170476Y-69540476D01*
X157218095Y-69635714D01*
D14*
%TO.C,G\u002A\u002A\u002A*%
X1569615Y-1279655D02*
X1787519Y-1279719D01*
X1787519Y-1279719D02*
X1990140Y-1279835D01*
X1990140Y-1279835D02*
X2177712Y-1280001D01*
X2177712Y-1280001D02*
X2350473Y-1280219D01*
X2350473Y-1280219D02*
X2508656Y-1280490D01*
X2508656Y-1280490D02*
X2652498Y-1280813D01*
X2652498Y-1280813D02*
X2782235Y-1281189D01*
X2782235Y-1281189D02*
X2898102Y-1281619D01*
X2898102Y-1281619D02*
X3000334Y-1282103D01*
X3000334Y-1282103D02*
X3089168Y-1282641D01*
X3089168Y-1282641D02*
X3164839Y-1283234D01*
X3164839Y-1283234D02*
X3227583Y-1283883D01*
X3227583Y-1283883D02*
X3277635Y-1284587D01*
X3277635Y-1284587D02*
X3315231Y-1285348D01*
X3315231Y-1285348D02*
X3340607Y-1286165D01*
X3340607Y-1286165D02*
X3352594Y-1286891D01*
X3352594Y-1286891D02*
X3461164Y-1304757D01*
X3461164Y-1304757D02*
X3565033Y-1336748D01*
X3565033Y-1336748D02*
X3662181Y-1381796D01*
X3662181Y-1381796D02*
X3750589Y-1438831D01*
X3750589Y-1438831D02*
X3828236Y-1506785D01*
X3828236Y-1506785D02*
X3878933Y-1565240D01*
X3878933Y-1565240D02*
X3924300Y-1624667D01*
X3924300Y-1624667D02*
X4297395Y-1625134D01*
X4297395Y-1625134D02*
X4392788Y-1625472D01*
X4392788Y-1625472D02*
X4478741Y-1626218D01*
X4478741Y-1626218D02*
X4553980Y-1627343D01*
X4553980Y-1627343D02*
X4617228Y-1628818D01*
X4617228Y-1628818D02*
X4667210Y-1630615D01*
X4667210Y-1630615D02*
X4702651Y-1632703D01*
X4702651Y-1632703D02*
X4720728Y-1634747D01*
X4720728Y-1634747D02*
X4782634Y-1652472D01*
X4782634Y-1652472D02*
X4845592Y-1681873D01*
X4845592Y-1681873D02*
X4902870Y-1719582D01*
X4902870Y-1719582D02*
X4921395Y-1735075D01*
X4921395Y-1735075D02*
X4976183Y-1794829D01*
X4976183Y-1794829D02*
X5017097Y-1861598D01*
X5017097Y-1861598D02*
X5044375Y-1933336D01*
X5044375Y-1933336D02*
X5058250Y-2008000D01*
X5058250Y-2008000D02*
X5058958Y-2083542D01*
X5058958Y-2083542D02*
X5046735Y-2157920D01*
X5046735Y-2157920D02*
X5021815Y-2229088D01*
X5021815Y-2229088D02*
X4984435Y-2295001D01*
X4984435Y-2295001D02*
X4934828Y-2353614D01*
X4934828Y-2353614D02*
X4873230Y-2402882D01*
X4873230Y-2402882D02*
X4842486Y-2421022D01*
X4842486Y-2421022D02*
X4820669Y-2432461D01*
X4820669Y-2432461D02*
X4800698Y-2442050D01*
X4800698Y-2442050D02*
X4780890Y-2449952D01*
X4780890Y-2449952D02*
X4759559Y-2456330D01*
X4759559Y-2456330D02*
X4735023Y-2461349D01*
X4735023Y-2461349D02*
X4705596Y-2465171D01*
X4705596Y-2465171D02*
X4669596Y-2467962D01*
X4669596Y-2467962D02*
X4625337Y-2469884D01*
X4625337Y-2469884D02*
X4571136Y-2471101D01*
X4571136Y-2471101D02*
X4505309Y-2471778D01*
X4505309Y-2471778D02*
X4426172Y-2472076D01*
X4426172Y-2472076D02*
X4332040Y-2472162D01*
X4332040Y-2472162D02*
X4316378Y-2472166D01*
X4316378Y-2472166D02*
X3929523Y-2472267D01*
X3929523Y-2472267D02*
X3891723Y-2520950D01*
X3891723Y-2520950D02*
X3815447Y-2605977D01*
X3815447Y-2605977D02*
X3729533Y-2677118D01*
X3729533Y-2677118D02*
X3634221Y-2734239D01*
X3634221Y-2734239D02*
X3529754Y-2777205D01*
X3529754Y-2777205D02*
X3416372Y-2805882D01*
X3416372Y-2805882D02*
X3364789Y-2813806D01*
X3364789Y-2813806D02*
X3280833Y-2824349D01*
X3280833Y-2824349D02*
X3280833Y-4119033D01*
X3280833Y-4119033D02*
X4813300Y-4123266D01*
X4813300Y-4123266D02*
X6345766Y-4127500D01*
X6345766Y-4127500D02*
X6394236Y-4147078D01*
X6394236Y-4147078D02*
X6465884Y-4184813D01*
X6465884Y-4184813D02*
X6529782Y-4235960D01*
X6529782Y-4235960D02*
X6583312Y-4297889D01*
X6583312Y-4297889D02*
X6623854Y-4367971D01*
X6623854Y-4367971D02*
X6630970Y-4384724D01*
X6630970Y-4384724D02*
X6639500Y-4408980D01*
X6639500Y-4408980D02*
X6645070Y-4433413D01*
X6645070Y-4433413D02*
X6648261Y-4462593D01*
X6648261Y-4462593D02*
X6649650Y-4501091D01*
X6649650Y-4501091D02*
X6649862Y-4533900D01*
X6649862Y-4533900D02*
X6649357Y-4580909D01*
X6649357Y-4580909D02*
X6647450Y-4615610D01*
X6647450Y-4615610D02*
X6643550Y-4642609D01*
X6643550Y-4642609D02*
X6637067Y-4666512D01*
X6637067Y-4666512D02*
X6630636Y-4683970D01*
X6630636Y-4683970D02*
X6594302Y-4753924D01*
X6594302Y-4753924D02*
X6544765Y-4816752D01*
X6544765Y-4816752D02*
X6484849Y-4869644D01*
X6484849Y-4869644D02*
X6417380Y-4909789D01*
X6417380Y-4909789D02*
X6393342Y-4919990D01*
X6393342Y-4919990D02*
X6367952Y-4928101D01*
X6367952Y-4928101D02*
X6337559Y-4934410D01*
X6337559Y-4934410D02*
X6298800Y-4939398D01*
X6298800Y-4939398D02*
X6248311Y-4943547D01*
X6248311Y-4943547D02*
X6214533Y-4945635D01*
X6214533Y-4945635D02*
X6100006Y-4953698D01*
X6100006Y-4953698D02*
X5999953Y-4964243D01*
X5999953Y-4964243D02*
X5912036Y-4977723D01*
X5912036Y-4977723D02*
X5833918Y-4994593D01*
X5833918Y-4994593D02*
X5763261Y-5015307D01*
X5763261Y-5015307D02*
X5697728Y-5040320D01*
X5697728Y-5040320D02*
X5674862Y-5050501D01*
X5674862Y-5050501D02*
X5582453Y-5101439D01*
X5582453Y-5101439D02*
X5502810Y-5163165D01*
X5502810Y-5163165D02*
X5435115Y-5236356D01*
X5435115Y-5236356D02*
X5411636Y-5268357D01*
X5411636Y-5268357D02*
X5384022Y-5308548D01*
X5384022Y-5308548D02*
X5417262Y-5365724D01*
X5417262Y-5365724D02*
X5500759Y-5524881D01*
X5500759Y-5524881D02*
X5572913Y-5694955D01*
X5572913Y-5694955D02*
X5632919Y-5873609D01*
X5632919Y-5873609D02*
X5679972Y-6058506D01*
X5679972Y-6058506D02*
X5707691Y-6208977D01*
X5707691Y-6208977D02*
X5715631Y-6273117D01*
X5715631Y-6273117D02*
X5722058Y-6349663D01*
X5722058Y-6349663D02*
X5726844Y-6434146D01*
X5726844Y-6434146D02*
X5729859Y-6522100D01*
X5729859Y-6522100D02*
X5730977Y-6609056D01*
X5730977Y-6609056D02*
X5730069Y-6690547D01*
X5730069Y-6690547D02*
X5727007Y-6762106D01*
X5727007Y-6762106D02*
X5724465Y-6794500D01*
X5724465Y-6794500D02*
X5701377Y-6970091D01*
X5701377Y-6970091D02*
X5665988Y-7145880D01*
X5665988Y-7145880D02*
X5619522Y-7316401D01*
X5619522Y-7316401D02*
X5583714Y-7422499D01*
X5583714Y-7422499D02*
X5541453Y-7526777D01*
X5541453Y-7526777D02*
X5488938Y-7638196D01*
X5488938Y-7638196D02*
X5428529Y-7752600D01*
X5428529Y-7752600D02*
X5362582Y-7865828D01*
X5362582Y-7865828D02*
X5293456Y-7973723D01*
X5293456Y-7973723D02*
X5223508Y-8072126D01*
X5223508Y-8072126D02*
X5193301Y-8111067D01*
X5193301Y-8111067D02*
X5154163Y-8157313D01*
X5154163Y-8157313D02*
X5105157Y-8211033D01*
X5105157Y-8211033D02*
X5049536Y-8268996D01*
X5049536Y-8268996D02*
X4990552Y-8327971D01*
X4990552Y-8327971D02*
X4931459Y-8384727D01*
X4931459Y-8384727D02*
X4875509Y-8436033D01*
X4875509Y-8436033D02*
X4825953Y-8478659D01*
X4825953Y-8478659D02*
X4811547Y-8490278D01*
X4811547Y-8490278D02*
X4646748Y-8609842D01*
X4646748Y-8609842D02*
X4474119Y-8714754D01*
X4474119Y-8714754D02*
X4294607Y-8804768D01*
X4294607Y-8804768D02*
X4109155Y-8879637D01*
X4109155Y-8879637D02*
X3918709Y-8939117D01*
X3918709Y-8939117D02*
X3724213Y-8982962D01*
X3724213Y-8982962D02*
X3526614Y-9010925D01*
X3526614Y-9010925D02*
X3326855Y-9022761D01*
X3326855Y-9022761D02*
X3125882Y-9018224D01*
X3125882Y-9018224D02*
X2924640Y-8997068D01*
X2924640Y-8997068D02*
X2886186Y-8991106D01*
X2886186Y-8991106D02*
X2689635Y-8950614D01*
X2689635Y-8950614D02*
X2497920Y-8894355D01*
X2497920Y-8894355D02*
X2312010Y-8822930D01*
X2312010Y-8822930D02*
X2132874Y-8736938D01*
X2132874Y-8736938D02*
X1961482Y-8636980D01*
X1961482Y-8636980D02*
X1798805Y-8523656D01*
X1798805Y-8523656D02*
X1645811Y-8397567D01*
X1645811Y-8397567D02*
X1503470Y-8259313D01*
X1503470Y-8259313D02*
X1372753Y-8109494D01*
X1372753Y-8109494D02*
X1293791Y-8005233D01*
X1293791Y-8005233D02*
X1185264Y-7839922D01*
X1185264Y-7839922D02*
X1090429Y-7667309D01*
X1090429Y-7667309D02*
X1009924Y-7488978D01*
X1009924Y-7488978D02*
X944383Y-7306510D01*
X944383Y-7306510D02*
X894441Y-7121490D01*
X894441Y-7121490D02*
X860734Y-6935499D01*
X860734Y-6935499D02*
X858871Y-6921500D01*
X858871Y-6921500D02*
X853008Y-6879202D01*
X853008Y-6879202D02*
X846995Y-6840743D01*
X846995Y-6840743D02*
X841567Y-6810564D01*
X841567Y-6810564D02*
X837715Y-6793899D01*
X837715Y-6793899D02*
X836827Y-6782544D01*
X836827Y-6782544D02*
X835982Y-6754697D01*
X835982Y-6754697D02*
X835183Y-6710798D01*
X835183Y-6710798D02*
X834465Y-6653928D01*
X834465Y-6653928D02*
X1644252Y-6653928D01*
X1644252Y-6653928D02*
X1649918Y-6763301D01*
X1649918Y-6763301D02*
X1662696Y-6866082D01*
X1662696Y-6866082D02*
X1683249Y-6966931D01*
X1683249Y-6966931D02*
X1712237Y-7070510D01*
X1712237Y-7070510D02*
X1728266Y-7119416D01*
X1728266Y-7119416D02*
X1789718Y-7273868D01*
X1789718Y-7273868D02*
X1865673Y-7420103D01*
X1865673Y-7420103D02*
X1955375Y-7557250D01*
X1955375Y-7557250D02*
X2058070Y-7684442D01*
X2058070Y-7684442D02*
X2173004Y-7800809D01*
X2173004Y-7800809D02*
X2299423Y-7905483D01*
X2299423Y-7905483D02*
X2436572Y-7997593D01*
X2436572Y-7997593D02*
X2540065Y-8054897D01*
X2540065Y-8054897D02*
X2694605Y-8124045D01*
X2694605Y-8124045D02*
X2854420Y-8177289D01*
X2854420Y-8177289D02*
X3018419Y-8214302D01*
X3018419Y-8214302D02*
X3124200Y-8229229D01*
X3124200Y-8229229D02*
X3175945Y-8232848D01*
X3175945Y-8232848D02*
X3239374Y-8234190D01*
X3239374Y-8234190D02*
X3309414Y-8233412D01*
X3309414Y-8233412D02*
X3380991Y-8230671D01*
X3380991Y-8230671D02*
X3449032Y-8226122D01*
X3449032Y-8226122D02*
X3508463Y-8219922D01*
X3508463Y-8219922D02*
X3530600Y-8216708D01*
X3530600Y-8216708D02*
X3695117Y-8181748D01*
X3695117Y-8181748D02*
X3852562Y-8131861D01*
X3852562Y-8131861D02*
X4002211Y-8067809D01*
X4002211Y-8067809D02*
X4143342Y-7990352D01*
X4143342Y-7990352D02*
X4275231Y-7900253D01*
X4275231Y-7900253D02*
X4397156Y-7798273D01*
X4397156Y-7798273D02*
X4508393Y-7685173D01*
X4508393Y-7685173D02*
X4608220Y-7561715D01*
X4608220Y-7561715D02*
X4695913Y-7428661D01*
X4695913Y-7428661D02*
X4770750Y-7286772D01*
X4770750Y-7286772D02*
X4832008Y-7136809D01*
X4832008Y-7136809D02*
X4878964Y-6979535D01*
X4878964Y-6979535D02*
X4910895Y-6815710D01*
X4910895Y-6815710D02*
X4918644Y-6754617D01*
X4918644Y-6754617D02*
X4927347Y-6597674D01*
X4927347Y-6597674D02*
X4919826Y-6439584D01*
X4919826Y-6439584D02*
X4896556Y-6282016D01*
X4896556Y-6282016D02*
X4858010Y-6126643D01*
X4858010Y-6126643D02*
X4804662Y-5975132D01*
X4804662Y-5975132D02*
X4736986Y-5829155D01*
X4736986Y-5829155D02*
X4655456Y-5690382D01*
X4655456Y-5690382D02*
X4590711Y-5598834D01*
X4590711Y-5598834D02*
X4484860Y-5473339D01*
X4484860Y-5473339D02*
X4368681Y-5360480D01*
X4368681Y-5360480D02*
X4243302Y-5260576D01*
X4243302Y-5260576D02*
X4109854Y-5173947D01*
X4109854Y-5173947D02*
X3969464Y-5100912D01*
X3969464Y-5100912D02*
X3823263Y-5041790D01*
X3823263Y-5041790D02*
X3672378Y-4996901D01*
X3672378Y-4996901D02*
X3517940Y-4966564D01*
X3517940Y-4966564D02*
X3361076Y-4951098D01*
X3361076Y-4951098D02*
X3202916Y-4950822D01*
X3202916Y-4950822D02*
X3044590Y-4966056D01*
X3044590Y-4966056D02*
X2887225Y-4997118D01*
X2887225Y-4997118D02*
X2731952Y-5044329D01*
X2731952Y-5044329D02*
X2688167Y-5060815D01*
X2688167Y-5060815D02*
X2550009Y-5121903D01*
X2550009Y-5121903D02*
X2422302Y-5192948D01*
X2422302Y-5192948D02*
X2302270Y-5275813D01*
X2302270Y-5275813D02*
X2187136Y-5372365D01*
X2187136Y-5372365D02*
X2103415Y-5453765D01*
X2103415Y-5453765D02*
X1996782Y-5573433D01*
X1996782Y-5573433D02*
X1905446Y-5697885D01*
X1905446Y-5697885D02*
X1827942Y-5829509D01*
X1827942Y-5829509D02*
X1762806Y-5970688D01*
X1762806Y-5970688D02*
X1727297Y-6066090D01*
X1727297Y-6066090D02*
X1698378Y-6157397D01*
X1698378Y-6157397D02*
X1676723Y-6242359D01*
X1676723Y-6242359D02*
X1661365Y-6326473D01*
X1661365Y-6326473D02*
X1651334Y-6415236D01*
X1651334Y-6415236D02*
X1645663Y-6514144D01*
X1645663Y-6514144D02*
X1645036Y-6533303D01*
X1645036Y-6533303D02*
X1644252Y-6653928D01*
X1644252Y-6653928D02*
X834465Y-6653928D01*
X834465Y-6653928D02*
X834431Y-6651287D01*
X834431Y-6651287D02*
X833728Y-6576607D01*
X833728Y-6576607D02*
X833075Y-6487196D01*
X833075Y-6487196D02*
X832475Y-6383497D01*
X832475Y-6383497D02*
X831929Y-6265949D01*
X831929Y-6265949D02*
X831439Y-6134994D01*
X831439Y-6134994D02*
X831008Y-5991072D01*
X831008Y-5991072D02*
X830636Y-5834624D01*
X830636Y-5834624D02*
X830325Y-5666091D01*
X830325Y-5666091D02*
X830078Y-5485912D01*
X830078Y-5485912D02*
X829896Y-5294530D01*
X829896Y-5294530D02*
X829781Y-5092385D01*
X829781Y-5092385D02*
X829734Y-4879917D01*
X829734Y-4879917D02*
X829733Y-4844449D01*
X829733Y-4844449D02*
X829733Y-2921000D01*
X829733Y-2921000D02*
X-837850Y-2921000D01*
X-837850Y-2921000D02*
X-840365Y-4874683D01*
X-840365Y-4874683D02*
X-840648Y-5089956D01*
X-840648Y-5089956D02*
X-840924Y-5288967D01*
X-840924Y-5288967D02*
X-841199Y-5472386D01*
X-841199Y-5472386D02*
X-841479Y-5640886D01*
X-841479Y-5640886D02*
X-841770Y-5795138D01*
X-841770Y-5795138D02*
X-842078Y-5935812D01*
X-842078Y-5935812D02*
X-842407Y-6063580D01*
X-842407Y-6063580D02*
X-842766Y-6179113D01*
X-842766Y-6179113D02*
X-843158Y-6283083D01*
X-843158Y-6283083D02*
X-843589Y-6376160D01*
X-843589Y-6376160D02*
X-844067Y-6459016D01*
X-844067Y-6459016D02*
X-844596Y-6532322D01*
X-844596Y-6532322D02*
X-845182Y-6596748D01*
X-845182Y-6596748D02*
X-845831Y-6652968D01*
X-845831Y-6652968D02*
X-846549Y-6701651D01*
X-846549Y-6701651D02*
X-847341Y-6743468D01*
X-847341Y-6743468D02*
X-848214Y-6779092D01*
X-848214Y-6779092D02*
X-849173Y-6809193D01*
X-849173Y-6809193D02*
X-850225Y-6834442D01*
X-850225Y-6834442D02*
X-851374Y-6855511D01*
X-851374Y-6855511D02*
X-852626Y-6873071D01*
X-852626Y-6873071D02*
X-853988Y-6887792D01*
X-853988Y-6887792D02*
X-855466Y-6900347D01*
X-855466Y-6900347D02*
X-857064Y-6911407D01*
X-857064Y-6911407D02*
X-858026Y-6917266D01*
X-858026Y-6917266D02*
X-874641Y-7008034D01*
X-874641Y-7008034D02*
X-893286Y-7098221D01*
X-893286Y-7098221D02*
X-912829Y-7182699D01*
X-912829Y-7182699D02*
X-932138Y-7256341D01*
X-932138Y-7256341D02*
X-935403Y-7267713D01*
X-935403Y-7267713D02*
X-984159Y-7413292D01*
X-984159Y-7413292D02*
X-1046033Y-7562631D01*
X-1046033Y-7562631D02*
X-1119014Y-7711884D01*
X-1119014Y-7711884D02*
X-1201088Y-7857206D01*
X-1201088Y-7857206D02*
X-1290245Y-7994754D01*
X-1290245Y-7994754D02*
X-1376747Y-8111067D01*
X-1376747Y-8111067D02*
X-1414943Y-8156228D01*
X-1414943Y-8156228D02*
X-1463024Y-8208948D01*
X-1463024Y-8208948D02*
X-1517785Y-8266043D01*
X-1517785Y-8266043D02*
X-1576021Y-8324330D01*
X-1576021Y-8324330D02*
X-1634526Y-8380625D01*
X-1634526Y-8380625D02*
X-1690097Y-8431747D01*
X-1690097Y-8431747D02*
X-1739526Y-8474512D01*
X-1739526Y-8474512D02*
X-1756885Y-8488583D01*
X-1756885Y-8488583D02*
X-1923779Y-8610005D01*
X-1923779Y-8610005D02*
X-2097771Y-8716158D01*
X-2097771Y-8716158D02*
X-2278271Y-8806861D01*
X-2278271Y-8806861D02*
X-2464692Y-8881934D01*
X-2464692Y-8881934D02*
X-2656445Y-8941196D01*
X-2656445Y-8941196D02*
X-2852941Y-8984467D01*
X-2852941Y-8984467D02*
X-3053592Y-9011565D01*
X-3053592Y-9011565D02*
X-3257810Y-9022311D01*
X-3257810Y-9022311D02*
X-3465006Y-9016524D01*
X-3465006Y-9016524D02*
X-3475148Y-9015818D01*
X-3475148Y-9015818D02*
X-3671969Y-8993308D01*
X-3671969Y-8993308D02*
X-3866586Y-8954353D01*
X-3866586Y-8954353D02*
X-4057786Y-8899409D01*
X-4057786Y-8899409D02*
X-4244354Y-8828936D01*
X-4244354Y-8828936D02*
X-4425074Y-8743391D01*
X-4425074Y-8743391D02*
X-4598732Y-8643233D01*
X-4598732Y-8643233D02*
X-4762500Y-8530136D01*
X-4762500Y-8530136D02*
X-4919626Y-8401472D01*
X-4919626Y-8401472D02*
X-5064414Y-8261521D01*
X-5064414Y-8261521D02*
X-5196418Y-8111052D01*
X-5196418Y-8111052D02*
X-5315192Y-7950831D01*
X-5315192Y-7950831D02*
X-5420290Y-7781628D01*
X-5420290Y-7781628D02*
X-5511267Y-7604210D01*
X-5511267Y-7604210D02*
X-5587678Y-7419344D01*
X-5587678Y-7419344D02*
X-5649075Y-7227799D01*
X-5649075Y-7227799D02*
X-5695014Y-7030343D01*
X-5695014Y-7030343D02*
X-5718469Y-6883400D01*
X-5718469Y-6883400D02*
X-5735582Y-6687770D01*
X-5735582Y-6687770D02*
X-5736157Y-6591300D01*
X-5736157Y-6591300D02*
X-4922961Y-6591300D01*
X-4922961Y-6591300D02*
X-4922856Y-6658188D01*
X-4922856Y-6658188D02*
X-4922392Y-6711240D01*
X-4922392Y-6711240D02*
X-4921344Y-6753555D01*
X-4921344Y-6753555D02*
X-4919488Y-6788228D01*
X-4919488Y-6788228D02*
X-4916600Y-6818357D01*
X-4916600Y-6818357D02*
X-4912456Y-6847039D01*
X-4912456Y-6847039D02*
X-4906832Y-6877372D01*
X-4906832Y-6877372D02*
X-4899822Y-6910967D01*
X-4899822Y-6910967D02*
X-4856015Y-7077917D01*
X-4856015Y-7077917D02*
X-4798099Y-7235540D01*
X-4798099Y-7235540D02*
X-4725983Y-7384004D01*
X-4725983Y-7384004D02*
X-4639576Y-7523478D01*
X-4639576Y-7523478D02*
X-4538790Y-7654132D01*
X-4538790Y-7654132D02*
X-4454969Y-7745163D01*
X-4454969Y-7745163D02*
X-4331462Y-7858078D01*
X-4331462Y-7858078D02*
X-4198409Y-7957223D01*
X-4198409Y-7957223D02*
X-4056681Y-8042182D01*
X-4056681Y-8042182D02*
X-3907146Y-8112538D01*
X-3907146Y-8112538D02*
X-3750673Y-8167874D01*
X-3750673Y-8167874D02*
X-3588130Y-8207773D01*
X-3588130Y-8207773D02*
X-3445933Y-8229229D01*
X-3445933Y-8229229D02*
X-3394189Y-8232848D01*
X-3394189Y-8232848D02*
X-3330759Y-8234190D01*
X-3330759Y-8234190D02*
X-3260720Y-8233412D01*
X-3260720Y-8233412D02*
X-3189142Y-8230671D01*
X-3189142Y-8230671D02*
X-3121102Y-8226122D01*
X-3121102Y-8226122D02*
X-3061670Y-8219922D01*
X-3061670Y-8219922D02*
X-3039533Y-8216708D01*
X-3039533Y-8216708D02*
X-2874476Y-8181635D01*
X-2874476Y-8181635D02*
X-2716046Y-8131395D01*
X-2716046Y-8131395D02*
X-2565063Y-8066592D01*
X-2565063Y-8066592D02*
X-2422345Y-7987830D01*
X-2422345Y-7987830D02*
X-2288711Y-7895712D01*
X-2288711Y-7895712D02*
X-2164979Y-7790842D01*
X-2164979Y-7790842D02*
X-2051968Y-7673823D01*
X-2051968Y-7673823D02*
X-1950497Y-7545260D01*
X-1950497Y-7545260D02*
X-1861383Y-7405754D01*
X-1861383Y-7405754D02*
X-1811193Y-7310966D01*
X-1811193Y-7310966D02*
X-1746100Y-7159491D01*
X-1746100Y-7159491D02*
X-1697185Y-7005125D01*
X-1697185Y-7005125D02*
X-1664158Y-6848913D01*
X-1664158Y-6848913D02*
X-1646729Y-6691898D01*
X-1646729Y-6691898D02*
X-1644605Y-6535124D01*
X-1644605Y-6535124D02*
X-1657496Y-6379634D01*
X-1657496Y-6379634D02*
X-1685112Y-6226473D01*
X-1685112Y-6226473D02*
X-1727160Y-6076683D01*
X-1727160Y-6076683D02*
X-1783351Y-5931309D01*
X-1783351Y-5931309D02*
X-1853392Y-5791393D01*
X-1853392Y-5791393D02*
X-1936993Y-5657980D01*
X-1936993Y-5657980D02*
X-2033863Y-5532113D01*
X-2033863Y-5532113D02*
X-2143711Y-5414836D01*
X-2143711Y-5414836D02*
X-2266246Y-5307193D01*
X-2266246Y-5307193D02*
X-2396067Y-5213546D01*
X-2396067Y-5213546D02*
X-2537761Y-5131029D01*
X-2537761Y-5131029D02*
X-2685614Y-5063814D01*
X-2685614Y-5063814D02*
X-2838395Y-5011973D01*
X-2838395Y-5011973D02*
X-2994871Y-4975573D01*
X-2994871Y-4975573D02*
X-3153809Y-4954683D01*
X-3153809Y-4954683D02*
X-3313976Y-4949373D01*
X-3313976Y-4949373D02*
X-3474139Y-4959711D01*
X-3474139Y-4959711D02*
X-3633067Y-4985767D01*
X-3633067Y-4985767D02*
X-3789526Y-5027610D01*
X-3789526Y-5027610D02*
X-3942285Y-5085308D01*
X-3942285Y-5085308D02*
X-4021667Y-5122513D01*
X-4021667Y-5122513D02*
X-4099132Y-5164723D01*
X-4099132Y-5164723D02*
X-4180219Y-5214746D01*
X-4180219Y-5214746D02*
X-4258181Y-5268207D01*
X-4258181Y-5268207D02*
X-4322233Y-5317394D01*
X-4322233Y-5317394D02*
X-4360300Y-5350582D01*
X-4360300Y-5350582D02*
X-4404564Y-5392212D01*
X-4404564Y-5392212D02*
X-4451609Y-5438783D01*
X-4451609Y-5438783D02*
X-4498016Y-5486793D01*
X-4498016Y-5486793D02*
X-4540370Y-5532740D01*
X-4540370Y-5532740D02*
X-4575253Y-5573122D01*
X-4575253Y-5573122D02*
X-4590427Y-5592233D01*
X-4590427Y-5592233D02*
X-4685850Y-5732041D01*
X-4685850Y-5732041D02*
X-4766410Y-5879947D01*
X-4766410Y-5879947D02*
X-4832072Y-6035878D01*
X-4832072Y-6035878D02*
X-4882802Y-6199760D01*
X-4882802Y-6199760D02*
X-4900224Y-6273619D01*
X-4900224Y-6273619D02*
X-4907366Y-6307929D01*
X-4907366Y-6307929D02*
X-4912838Y-6337844D01*
X-4912838Y-6337844D02*
X-4916860Y-6366449D01*
X-4916860Y-6366449D02*
X-4919654Y-6396827D01*
X-4919654Y-6396827D02*
X-4921441Y-6432063D01*
X-4921441Y-6432063D02*
X-4922440Y-6475243D01*
X-4922440Y-6475243D02*
X-4922873Y-6529449D01*
X-4922873Y-6529449D02*
X-4922961Y-6591300D01*
X-4922961Y-6591300D02*
X-5736157Y-6591300D01*
X-5736157Y-6591300D02*
X-5736756Y-6490979D01*
X-5736756Y-6490979D02*
X-5722299Y-6294582D01*
X-5722299Y-6294582D02*
X-5692516Y-6100132D01*
X-5692516Y-6100132D02*
X-5647714Y-5909183D01*
X-5647714Y-5909183D02*
X-5588200Y-5723291D01*
X-5588200Y-5723291D02*
X-5514281Y-5544009D01*
X-5514281Y-5544009D02*
X-5426264Y-5372891D01*
X-5426264Y-5372891D02*
X-5417216Y-5357178D01*
X-5417216Y-5357178D02*
X-5402084Y-5328667D01*
X-5402084Y-5328667D02*
X-5392246Y-5305154D01*
X-5392246Y-5305154D02*
X-5389407Y-5290860D01*
X-5389407Y-5290860D02*
X-5389847Y-5289445D01*
X-5389847Y-5289445D02*
X-5412515Y-5255860D01*
X-5412515Y-5255860D02*
X-5444018Y-5217674D01*
X-5444018Y-5217674D02*
X-5479540Y-5180304D01*
X-5479540Y-5180304D02*
X-5514266Y-5149169D01*
X-5514266Y-5149169D02*
X-5515127Y-5148481D01*
X-5515127Y-5148481D02*
X-5582642Y-5100296D01*
X-5582642Y-5100296D02*
X-5655260Y-5059667D01*
X-5655260Y-5059667D02*
X-5734821Y-5026041D01*
X-5734821Y-5026041D02*
X-5823166Y-4998868D01*
X-5823166Y-4998868D02*
X-5922133Y-4977594D01*
X-5922133Y-4977594D02*
X-6033563Y-4961668D01*
X-6033563Y-4961668D02*
X-6159297Y-4950538D01*
X-6159297Y-4950538D02*
X-6179110Y-4949272D01*
X-6179110Y-4949272D02*
X-6359652Y-4938248D01*
X-6359652Y-4938248D02*
X-6430042Y-4903368D01*
X-6430042Y-4903368D02*
X-6499826Y-4860306D01*
X-6499826Y-4860306D02*
X-6557068Y-4807738D01*
X-6557068Y-4807738D02*
X-6601775Y-4747533D01*
X-6601775Y-4747533D02*
X-6633952Y-4681557D01*
X-6633952Y-4681557D02*
X-6653603Y-4611677D01*
X-6653603Y-4611677D02*
X-6660735Y-4539761D01*
X-6660735Y-4539761D02*
X-6655351Y-4467676D01*
X-6655351Y-4467676D02*
X-6637458Y-4397289D01*
X-6637458Y-4397289D02*
X-6607061Y-4330467D01*
X-6607061Y-4330467D02*
X-6564164Y-4269078D01*
X-6564164Y-4269078D02*
X-6508774Y-4214988D01*
X-6508774Y-4214988D02*
X-6440895Y-4170066D01*
X-6440895Y-4170066D02*
X-6427974Y-4163406D01*
X-6427974Y-4163406D02*
X-6355515Y-4127500D01*
X-6355515Y-4127500D02*
X-4822408Y-4123266D01*
X-4822408Y-4123266D02*
X-3289300Y-4119033D01*
X-3289300Y-4119033D02*
X-3284962Y-2821843D01*
X-3284962Y-2821843D02*
X-3351888Y-2816262D01*
X-3351888Y-2816262D02*
X-3456655Y-2799667D01*
X-3456655Y-2799667D02*
X-3559051Y-2768317D01*
X-3559051Y-2768317D02*
X-3656515Y-2723574D01*
X-3656515Y-2723574D02*
X-3746487Y-2666797D01*
X-3746487Y-2666797D02*
X-3826406Y-2599346D01*
X-3826406Y-2599346D02*
X-3886200Y-2532479D01*
X-3886200Y-2532479D02*
X-3932767Y-2472401D01*
X-3932767Y-2472401D02*
X-4323458Y-2472334D01*
X-4323458Y-2472334D02*
X-4415632Y-2472281D01*
X-4415632Y-2472281D02*
X-4492524Y-2472114D01*
X-4492524Y-2472114D02*
X-4555788Y-2471770D01*
X-4555788Y-2471770D02*
X-4607075Y-2471188D01*
X-4607075Y-2471188D02*
X-4648038Y-2470304D01*
X-4648038Y-2470304D02*
X-4680329Y-2469056D01*
X-4680329Y-2469056D02*
X-4705600Y-2467381D01*
X-4705600Y-2467381D02*
X-4725505Y-2465216D01*
X-4725505Y-2465216D02*
X-4741694Y-2462499D01*
X-4741694Y-2462499D02*
X-4755820Y-2459168D01*
X-4755820Y-2459168D02*
X-4768569Y-2455458D01*
X-4768569Y-2455458D02*
X-4845067Y-2423176D01*
X-4845067Y-2423176D02*
X-4913100Y-2376682D01*
X-4913100Y-2376682D02*
X-4971401Y-2317095D01*
X-4971401Y-2317095D02*
X-5018701Y-2245531D01*
X-5018701Y-2245531D02*
X-5028257Y-2226733D01*
X-5028257Y-2226733D02*
X-5040743Y-2200279D01*
X-5040743Y-2200279D02*
X-5049257Y-2179199D01*
X-5049257Y-2179199D02*
X-5054555Y-2159187D01*
X-5054555Y-2159187D02*
X-5057391Y-2135939D01*
X-5057391Y-2135939D02*
X-5058520Y-2105149D01*
X-5058520Y-2105149D02*
X-5058696Y-2062513D01*
X-5058696Y-2062513D02*
X-5058685Y-2053167D01*
X-5058685Y-2053167D02*
X-5058232Y-2005082D01*
X-5058232Y-2005082D02*
X-5056667Y-1969663D01*
X-5056667Y-1969663D02*
X-5053460Y-1942650D01*
X-5053460Y-1942650D02*
X-5048078Y-1919785D01*
X-5048078Y-1919785D02*
X-5039991Y-1896809D01*
X-5039991Y-1896809D02*
X-5038792Y-1893788D01*
X-5038792Y-1893788D02*
X-5001328Y-1822497D01*
X-5001328Y-1822497D02*
X-4949819Y-1758723D01*
X-4949819Y-1758723D02*
X-4886175Y-1704313D01*
X-4886175Y-1704313D02*
X-4812305Y-1661110D01*
X-4812305Y-1661110D02*
X-4786113Y-1649668D01*
X-4786113Y-1649668D02*
X-4774502Y-1645119D01*
X-4774502Y-1645119D02*
X-4763206Y-1641317D01*
X-4763206Y-1641317D02*
X-4750634Y-1638186D01*
X-4750634Y-1638186D02*
X-4735199Y-1635647D01*
X-4735199Y-1635647D02*
X-4715309Y-1633621D01*
X-4715309Y-1633621D02*
X-4689375Y-1632029D01*
X-4689375Y-1632029D02*
X-4655808Y-1630794D01*
X-4655808Y-1630794D02*
X-4613018Y-1629837D01*
X-4613018Y-1629837D02*
X-4559416Y-1629080D01*
X-4559416Y-1629080D02*
X-4493411Y-1628443D01*
X-4493411Y-1628443D02*
X-4413414Y-1627849D01*
X-4413414Y-1627849D02*
X-4333207Y-1627319D01*
X-4333207Y-1627319D02*
X-3929313Y-1624697D01*
X-3929313Y-1624697D02*
X-3899263Y-1583760D01*
X-3899263Y-1583760D02*
X-3835725Y-1510389D01*
X-3835725Y-1510389D02*
X-3758809Y-1443838D01*
X-3758809Y-1443838D02*
X-3671322Y-1385952D01*
X-3671322Y-1385952D02*
X-3576068Y-1338570D01*
X-3576068Y-1338570D02*
X-3475855Y-1303536D01*
X-3475855Y-1303536D02*
X-3469792Y-1301879D01*
X-3469792Y-1301879D02*
X-3399367Y-1282940D01*
X-3399367Y-1282940D02*
X-71967Y-1280311D01*
X-71967Y-1280311D02*
X242589Y-1280080D01*
X242589Y-1280080D02*
X540447Y-1279897D01*
X540447Y-1279897D02*
X821842Y-1279763D01*
X821842Y-1279763D02*
X1087012Y-1279677D01*
X1087012Y-1279677D02*
X1336191Y-1279641D01*
X1336191Y-1279641D02*
X1569615Y-1279655D01*
X1569615Y-1279655D02*
X1569615Y-1279655D01*
G36*
X833728Y-6576607D02*
G01*
X833075Y-6487196D01*
X832475Y-6383497D01*
X831929Y-6265949D01*
X831439Y-6134994D01*
X831008Y-5991072D01*
X830636Y-5834624D01*
X830325Y-5666091D01*
X830078Y-5485912D01*
X829896Y-5294530D01*
X829781Y-5092385D01*
X829734Y-4879917D01*
X829733Y-4844449D01*
X829733Y-2921000D01*
X-837850Y-2921000D01*
X-840365Y-4874683D01*
X-840648Y-5089956D01*
X-840924Y-5288967D01*
X-841199Y-5472386D01*
X-841479Y-5640886D01*
X-841770Y-5795138D01*
X-842078Y-5935812D01*
X-842407Y-6063580D01*
X-842766Y-6179113D01*
X-843158Y-6283083D01*
X-843589Y-6376160D01*
X-844067Y-6459016D01*
X-844596Y-6532322D01*
X-845182Y-6596748D01*
X-845831Y-6652968D01*
X-846549Y-6701651D01*
X-847341Y-6743468D01*
X-848214Y-6779092D01*
X-849173Y-6809193D01*
X-850225Y-6834442D01*
X-851374Y-6855511D01*
X-852626Y-6873071D01*
X-853988Y-6887792D01*
X-855466Y-6900347D01*
X-857064Y-6911407D01*
X-858026Y-6917266D01*
X-874641Y-7008034D01*
X-893286Y-7098221D01*
X-912829Y-7182699D01*
X-932138Y-7256341D01*
X-935403Y-7267713D01*
X-984159Y-7413292D01*
X-1046033Y-7562631D01*
X-1119014Y-7711884D01*
X-1201088Y-7857206D01*
X-1290245Y-7994754D01*
X-1376747Y-8111067D01*
X-1414943Y-8156228D01*
X-1463024Y-8208948D01*
X-1517785Y-8266043D01*
X-1576021Y-8324330D01*
X-1634526Y-8380625D01*
X-1690097Y-8431747D01*
X-1739526Y-8474512D01*
X-1756885Y-8488583D01*
X-1923779Y-8610005D01*
X-2097771Y-8716158D01*
X-2278271Y-8806861D01*
X-2464692Y-8881934D01*
X-2656445Y-8941196D01*
X-2852941Y-8984467D01*
X-3053592Y-9011565D01*
X-3257810Y-9022311D01*
X-3465006Y-9016524D01*
X-3475148Y-9015818D01*
X-3671969Y-8993308D01*
X-3866586Y-8954353D01*
X-4057786Y-8899409D01*
X-4244354Y-8828936D01*
X-4425074Y-8743391D01*
X-4598732Y-8643233D01*
X-4762500Y-8530136D01*
X-4919626Y-8401472D01*
X-5064414Y-8261521D01*
X-5196418Y-8111052D01*
X-5315192Y-7950831D01*
X-5420290Y-7781628D01*
X-5511267Y-7604210D01*
X-5587678Y-7419344D01*
X-5649075Y-7227799D01*
X-5695014Y-7030343D01*
X-5718469Y-6883400D01*
X-5735582Y-6687770D01*
X-5736157Y-6591300D01*
X-4922961Y-6591300D01*
X-4922856Y-6658188D01*
X-4922392Y-6711240D01*
X-4921344Y-6753555D01*
X-4919488Y-6788228D01*
X-4916600Y-6818357D01*
X-4912456Y-6847039D01*
X-4906832Y-6877372D01*
X-4899822Y-6910967D01*
X-4856015Y-7077917D01*
X-4798099Y-7235540D01*
X-4725983Y-7384004D01*
X-4639576Y-7523478D01*
X-4538790Y-7654132D01*
X-4454969Y-7745163D01*
X-4331462Y-7858078D01*
X-4198409Y-7957223D01*
X-4056681Y-8042182D01*
X-3907146Y-8112538D01*
X-3750673Y-8167874D01*
X-3588130Y-8207773D01*
X-3445933Y-8229229D01*
X-3394189Y-8232848D01*
X-3330759Y-8234190D01*
X-3260720Y-8233412D01*
X-3189142Y-8230671D01*
X-3121102Y-8226122D01*
X-3061670Y-8219922D01*
X-3039533Y-8216708D01*
X-2874476Y-8181635D01*
X-2716046Y-8131395D01*
X-2565063Y-8066592D01*
X-2422345Y-7987830D01*
X-2288711Y-7895712D01*
X-2164979Y-7790842D01*
X-2051968Y-7673823D01*
X-1950497Y-7545260D01*
X-1861383Y-7405754D01*
X-1811193Y-7310966D01*
X-1746100Y-7159491D01*
X-1697185Y-7005125D01*
X-1664158Y-6848913D01*
X-1646729Y-6691898D01*
X-1644605Y-6535124D01*
X-1657496Y-6379634D01*
X-1685112Y-6226473D01*
X-1727160Y-6076683D01*
X-1783351Y-5931309D01*
X-1853392Y-5791393D01*
X-1936993Y-5657980D01*
X-2033863Y-5532113D01*
X-2143711Y-5414836D01*
X-2266246Y-5307193D01*
X-2396067Y-5213546D01*
X-2537761Y-5131029D01*
X-2685614Y-5063814D01*
X-2838395Y-5011973D01*
X-2994871Y-4975573D01*
X-3153809Y-4954683D01*
X-3313976Y-4949373D01*
X-3474139Y-4959711D01*
X-3633067Y-4985767D01*
X-3789526Y-5027610D01*
X-3942285Y-5085308D01*
X-4021667Y-5122513D01*
X-4099132Y-5164723D01*
X-4180219Y-5214746D01*
X-4258181Y-5268207D01*
X-4322233Y-5317394D01*
X-4360300Y-5350582D01*
X-4404564Y-5392212D01*
X-4451609Y-5438783D01*
X-4498016Y-5486793D01*
X-4540370Y-5532740D01*
X-4575253Y-5573122D01*
X-4590427Y-5592233D01*
X-4685850Y-5732041D01*
X-4766410Y-5879947D01*
X-4832072Y-6035878D01*
X-4882802Y-6199760D01*
X-4900224Y-6273619D01*
X-4907366Y-6307929D01*
X-4912838Y-6337844D01*
X-4916860Y-6366449D01*
X-4919654Y-6396827D01*
X-4921441Y-6432063D01*
X-4922440Y-6475243D01*
X-4922873Y-6529449D01*
X-4922961Y-6591300D01*
X-5736157Y-6591300D01*
X-5736756Y-6490979D01*
X-5722299Y-6294582D01*
X-5692516Y-6100132D01*
X-5647714Y-5909183D01*
X-5588200Y-5723291D01*
X-5514281Y-5544009D01*
X-5426264Y-5372891D01*
X-5417216Y-5357178D01*
X-5402084Y-5328667D01*
X-5392246Y-5305154D01*
X-5389407Y-5290860D01*
X-5389847Y-5289445D01*
X-5412515Y-5255860D01*
X-5444018Y-5217674D01*
X-5479540Y-5180304D01*
X-5514266Y-5149169D01*
X-5515127Y-5148481D01*
X-5582642Y-5100296D01*
X-5655260Y-5059667D01*
X-5734821Y-5026041D01*
X-5823166Y-4998868D01*
X-5922133Y-4977594D01*
X-6033563Y-4961668D01*
X-6159297Y-4950538D01*
X-6179110Y-4949272D01*
X-6359652Y-4938248D01*
X-6430042Y-4903368D01*
X-6499826Y-4860306D01*
X-6557068Y-4807738D01*
X-6601775Y-4747533D01*
X-6633952Y-4681557D01*
X-6653603Y-4611677D01*
X-6660735Y-4539761D01*
X-6655351Y-4467676D01*
X-6637458Y-4397289D01*
X-6607061Y-4330467D01*
X-6564164Y-4269078D01*
X-6508774Y-4214988D01*
X-6440895Y-4170066D01*
X-6427974Y-4163406D01*
X-6355515Y-4127500D01*
X-4822408Y-4123266D01*
X-3289300Y-4119033D01*
X-3284962Y-2821843D01*
X-3351888Y-2816262D01*
X-3456655Y-2799667D01*
X-3559051Y-2768317D01*
X-3656515Y-2723574D01*
X-3746487Y-2666797D01*
X-3826406Y-2599346D01*
X-3886200Y-2532479D01*
X-3932767Y-2472401D01*
X-4323458Y-2472334D01*
X-4415632Y-2472281D01*
X-4492524Y-2472114D01*
X-4555788Y-2471770D01*
X-4607075Y-2471188D01*
X-4648038Y-2470304D01*
X-4680329Y-2469056D01*
X-4705600Y-2467381D01*
X-4725505Y-2465216D01*
X-4741694Y-2462499D01*
X-4755820Y-2459168D01*
X-4768569Y-2455458D01*
X-4845067Y-2423176D01*
X-4913100Y-2376682D01*
X-4971401Y-2317095D01*
X-5018701Y-2245531D01*
X-5028257Y-2226733D01*
X-5040743Y-2200279D01*
X-5049257Y-2179199D01*
X-5054555Y-2159187D01*
X-5057391Y-2135939D01*
X-5058520Y-2105149D01*
X-5058696Y-2062513D01*
X-5058685Y-2053167D01*
X-5058232Y-2005082D01*
X-5056667Y-1969663D01*
X-5053460Y-1942650D01*
X-5048078Y-1919785D01*
X-5039991Y-1896809D01*
X-5038792Y-1893788D01*
X-5001328Y-1822497D01*
X-4949819Y-1758723D01*
X-4886175Y-1704313D01*
X-4812305Y-1661110D01*
X-4786113Y-1649668D01*
X-4774502Y-1645119D01*
X-4763206Y-1641317D01*
X-4750634Y-1638186D01*
X-4735199Y-1635647D01*
X-4715309Y-1633621D01*
X-4689375Y-1632029D01*
X-4655808Y-1630794D01*
X-4613018Y-1629837D01*
X-4559416Y-1629080D01*
X-4493411Y-1628443D01*
X-4413414Y-1627849D01*
X-4333207Y-1627319D01*
X-3929313Y-1624697D01*
X-3899263Y-1583760D01*
X-3835725Y-1510389D01*
X-3758809Y-1443838D01*
X-3671322Y-1385952D01*
X-3576068Y-1338570D01*
X-3475855Y-1303536D01*
X-3469792Y-1301879D01*
X-3399367Y-1282940D01*
X-71967Y-1280311D01*
X242589Y-1280080D01*
X540447Y-1279897D01*
X821842Y-1279763D01*
X1087012Y-1279677D01*
X1336191Y-1279641D01*
X1569615Y-1279655D01*
X1787519Y-1279719D01*
X1990140Y-1279835D01*
X2177712Y-1280001D01*
X2350473Y-1280219D01*
X2508656Y-1280490D01*
X2652498Y-1280813D01*
X2782235Y-1281189D01*
X2898102Y-1281619D01*
X3000334Y-1282103D01*
X3089168Y-1282641D01*
X3164839Y-1283234D01*
X3227583Y-1283883D01*
X3277635Y-1284587D01*
X3315231Y-1285348D01*
X3340607Y-1286165D01*
X3352594Y-1286891D01*
X3461164Y-1304757D01*
X3565033Y-1336748D01*
X3662181Y-1381796D01*
X3750589Y-1438831D01*
X3828236Y-1506785D01*
X3878933Y-1565240D01*
X3924300Y-1624667D01*
X4297395Y-1625134D01*
X4392788Y-1625472D01*
X4478741Y-1626218D01*
X4553980Y-1627343D01*
X4617228Y-1628818D01*
X4667210Y-1630615D01*
X4702651Y-1632703D01*
X4720728Y-1634747D01*
X4782634Y-1652472D01*
X4845592Y-1681873D01*
X4902870Y-1719582D01*
X4921395Y-1735075D01*
X4976183Y-1794829D01*
X5017097Y-1861598D01*
X5044375Y-1933336D01*
X5058250Y-2008000D01*
X5058958Y-2083542D01*
X5046735Y-2157920D01*
X5021815Y-2229088D01*
X4984435Y-2295001D01*
X4934828Y-2353614D01*
X4873230Y-2402882D01*
X4842486Y-2421022D01*
X4820669Y-2432461D01*
X4800698Y-2442050D01*
X4780890Y-2449952D01*
X4759559Y-2456330D01*
X4735023Y-2461349D01*
X4705596Y-2465171D01*
X4669596Y-2467962D01*
X4625337Y-2469884D01*
X4571136Y-2471101D01*
X4505309Y-2471778D01*
X4426172Y-2472076D01*
X4332040Y-2472162D01*
X4316378Y-2472166D01*
X3929523Y-2472267D01*
X3891723Y-2520950D01*
X3815447Y-2605977D01*
X3729533Y-2677118D01*
X3634221Y-2734239D01*
X3529754Y-2777205D01*
X3416372Y-2805882D01*
X3364789Y-2813806D01*
X3280833Y-2824349D01*
X3280833Y-4119033D01*
X4813300Y-4123266D01*
X6345766Y-4127500D01*
X6394236Y-4147078D01*
X6465884Y-4184813D01*
X6529782Y-4235960D01*
X6583312Y-4297889D01*
X6623854Y-4367971D01*
X6630970Y-4384724D01*
X6639500Y-4408980D01*
X6645070Y-4433413D01*
X6648261Y-4462593D01*
X6649650Y-4501091D01*
X6649862Y-4533900D01*
X6649357Y-4580909D01*
X6647450Y-4615610D01*
X6643550Y-4642609D01*
X6637067Y-4666512D01*
X6630636Y-4683970D01*
X6594302Y-4753924D01*
X6544765Y-4816752D01*
X6484849Y-4869644D01*
X6417380Y-4909789D01*
X6393342Y-4919990D01*
X6367952Y-4928101D01*
X6337559Y-4934410D01*
X6298800Y-4939398D01*
X6248311Y-4943547D01*
X6214533Y-4945635D01*
X6100006Y-4953698D01*
X5999953Y-4964243D01*
X5912036Y-4977723D01*
X5833918Y-4994593D01*
X5763261Y-5015307D01*
X5697728Y-5040320D01*
X5674862Y-5050501D01*
X5582453Y-5101439D01*
X5502810Y-5163165D01*
X5435115Y-5236356D01*
X5411636Y-5268357D01*
X5384022Y-5308548D01*
X5417262Y-5365724D01*
X5500759Y-5524881D01*
X5572913Y-5694955D01*
X5632919Y-5873609D01*
X5679972Y-6058506D01*
X5707691Y-6208977D01*
X5715631Y-6273117D01*
X5722058Y-6349663D01*
X5726844Y-6434146D01*
X5729859Y-6522100D01*
X5730977Y-6609056D01*
X5730069Y-6690547D01*
X5727007Y-6762106D01*
X5724465Y-6794500D01*
X5701377Y-6970091D01*
X5665988Y-7145880D01*
X5619522Y-7316401D01*
X5583714Y-7422499D01*
X5541453Y-7526777D01*
X5488938Y-7638196D01*
X5428529Y-7752600D01*
X5362582Y-7865828D01*
X5293456Y-7973723D01*
X5223508Y-8072126D01*
X5193301Y-8111067D01*
X5154163Y-8157313D01*
X5105157Y-8211033D01*
X5049536Y-8268996D01*
X4990552Y-8327971D01*
X4931459Y-8384727D01*
X4875509Y-8436033D01*
X4825953Y-8478659D01*
X4811547Y-8490278D01*
X4646748Y-8609842D01*
X4474119Y-8714754D01*
X4294607Y-8804768D01*
X4109155Y-8879637D01*
X3918709Y-8939117D01*
X3724213Y-8982962D01*
X3526614Y-9010925D01*
X3326855Y-9022761D01*
X3125882Y-9018224D01*
X2924640Y-8997068D01*
X2886186Y-8991106D01*
X2689635Y-8950614D01*
X2497920Y-8894355D01*
X2312010Y-8822930D01*
X2132874Y-8736938D01*
X1961482Y-8636980D01*
X1798805Y-8523656D01*
X1645811Y-8397567D01*
X1503470Y-8259313D01*
X1372753Y-8109494D01*
X1293791Y-8005233D01*
X1185264Y-7839922D01*
X1090429Y-7667309D01*
X1009924Y-7488978D01*
X944383Y-7306510D01*
X894441Y-7121490D01*
X860734Y-6935499D01*
X858871Y-6921500D01*
X853008Y-6879202D01*
X846995Y-6840743D01*
X841567Y-6810564D01*
X837715Y-6793899D01*
X836827Y-6782544D01*
X835982Y-6754697D01*
X835183Y-6710798D01*
X834465Y-6653928D01*
X1644252Y-6653928D01*
X1649918Y-6763301D01*
X1662696Y-6866082D01*
X1683249Y-6966931D01*
X1712237Y-7070510D01*
X1728266Y-7119416D01*
X1789718Y-7273868D01*
X1865673Y-7420103D01*
X1955375Y-7557250D01*
X2058070Y-7684442D01*
X2173004Y-7800809D01*
X2299423Y-7905483D01*
X2436572Y-7997593D01*
X2540065Y-8054897D01*
X2694605Y-8124045D01*
X2854420Y-8177289D01*
X3018419Y-8214302D01*
X3124200Y-8229229D01*
X3175945Y-8232848D01*
X3239374Y-8234190D01*
X3309414Y-8233412D01*
X3380991Y-8230671D01*
X3449032Y-8226122D01*
X3508463Y-8219922D01*
X3530600Y-8216708D01*
X3695117Y-8181748D01*
X3852562Y-8131861D01*
X4002211Y-8067809D01*
X4143342Y-7990352D01*
X4275231Y-7900253D01*
X4397156Y-7798273D01*
X4508393Y-7685173D01*
X4608220Y-7561715D01*
X4695913Y-7428661D01*
X4770750Y-7286772D01*
X4832008Y-7136809D01*
X4878964Y-6979535D01*
X4910895Y-6815710D01*
X4918644Y-6754617D01*
X4927347Y-6597674D01*
X4919826Y-6439584D01*
X4896556Y-6282016D01*
X4858010Y-6126643D01*
X4804662Y-5975132D01*
X4736986Y-5829155D01*
X4655456Y-5690382D01*
X4590711Y-5598834D01*
X4484860Y-5473339D01*
X4368681Y-5360480D01*
X4243302Y-5260576D01*
X4109854Y-5173947D01*
X3969464Y-5100912D01*
X3823263Y-5041790D01*
X3672378Y-4996901D01*
X3517940Y-4966564D01*
X3361076Y-4951098D01*
X3202916Y-4950822D01*
X3044590Y-4966056D01*
X2887225Y-4997118D01*
X2731952Y-5044329D01*
X2688167Y-5060815D01*
X2550009Y-5121903D01*
X2422302Y-5192948D01*
X2302270Y-5275813D01*
X2187136Y-5372365D01*
X2103415Y-5453765D01*
X1996782Y-5573433D01*
X1905446Y-5697885D01*
X1827942Y-5829509D01*
X1762806Y-5970688D01*
X1727297Y-6066090D01*
X1698378Y-6157397D01*
X1676723Y-6242359D01*
X1661365Y-6326473D01*
X1651334Y-6415236D01*
X1645663Y-6514144D01*
X1645036Y-6533303D01*
X1644252Y-6653928D01*
X834465Y-6653928D01*
X834431Y-6651287D01*
X833728Y-6576607D01*
G37*
X833728Y-6576607D02*
X833075Y-6487196D01*
X832475Y-6383497D01*
X831929Y-6265949D01*
X831439Y-6134994D01*
X831008Y-5991072D01*
X830636Y-5834624D01*
X830325Y-5666091D01*
X830078Y-5485912D01*
X829896Y-5294530D01*
X829781Y-5092385D01*
X829734Y-4879917D01*
X829733Y-4844449D01*
X829733Y-2921000D01*
X-837850Y-2921000D01*
X-840365Y-4874683D01*
X-840648Y-5089956D01*
X-840924Y-5288967D01*
X-841199Y-5472386D01*
X-841479Y-5640886D01*
X-841770Y-5795138D01*
X-842078Y-5935812D01*
X-842407Y-6063580D01*
X-842766Y-6179113D01*
X-843158Y-6283083D01*
X-843589Y-6376160D01*
X-844067Y-6459016D01*
X-844596Y-6532322D01*
X-845182Y-6596748D01*
X-845831Y-6652968D01*
X-846549Y-6701651D01*
X-847341Y-6743468D01*
X-848214Y-6779092D01*
X-849173Y-6809193D01*
X-850225Y-6834442D01*
X-851374Y-6855511D01*
X-852626Y-6873071D01*
X-853988Y-6887792D01*
X-855466Y-6900347D01*
X-857064Y-6911407D01*
X-858026Y-6917266D01*
X-874641Y-7008034D01*
X-893286Y-7098221D01*
X-912829Y-7182699D01*
X-932138Y-7256341D01*
X-935403Y-7267713D01*
X-984159Y-7413292D01*
X-1046033Y-7562631D01*
X-1119014Y-7711884D01*
X-1201088Y-7857206D01*
X-1290245Y-7994754D01*
X-1376747Y-8111067D01*
X-1414943Y-8156228D01*
X-1463024Y-8208948D01*
X-1517785Y-8266043D01*
X-1576021Y-8324330D01*
X-1634526Y-8380625D01*
X-1690097Y-8431747D01*
X-1739526Y-8474512D01*
X-1756885Y-8488583D01*
X-1923779Y-8610005D01*
X-2097771Y-8716158D01*
X-2278271Y-8806861D01*
X-2464692Y-8881934D01*
X-2656445Y-8941196D01*
X-2852941Y-8984467D01*
X-3053592Y-9011565D01*
X-3257810Y-9022311D01*
X-3465006Y-9016524D01*
X-3475148Y-9015818D01*
X-3671969Y-8993308D01*
X-3866586Y-8954353D01*
X-4057786Y-8899409D01*
X-4244354Y-8828936D01*
X-4425074Y-8743391D01*
X-4598732Y-8643233D01*
X-4762500Y-8530136D01*
X-4919626Y-8401472D01*
X-5064414Y-8261521D01*
X-5196418Y-8111052D01*
X-5315192Y-7950831D01*
X-5420290Y-7781628D01*
X-5511267Y-7604210D01*
X-5587678Y-7419344D01*
X-5649075Y-7227799D01*
X-5695014Y-7030343D01*
X-5718469Y-6883400D01*
X-5735582Y-6687770D01*
X-5736157Y-6591300D01*
X-4922961Y-6591300D01*
X-4922856Y-6658188D01*
X-4922392Y-6711240D01*
X-4921344Y-6753555D01*
X-4919488Y-6788228D01*
X-4916600Y-6818357D01*
X-4912456Y-6847039D01*
X-4906832Y-6877372D01*
X-4899822Y-6910967D01*
X-4856015Y-7077917D01*
X-4798099Y-7235540D01*
X-4725983Y-7384004D01*
X-4639576Y-7523478D01*
X-4538790Y-7654132D01*
X-4454969Y-7745163D01*
X-4331462Y-7858078D01*
X-4198409Y-7957223D01*
X-4056681Y-8042182D01*
X-3907146Y-8112538D01*
X-3750673Y-8167874D01*
X-3588130Y-8207773D01*
X-3445933Y-8229229D01*
X-3394189Y-8232848D01*
X-3330759Y-8234190D01*
X-3260720Y-8233412D01*
X-3189142Y-8230671D01*
X-3121102Y-8226122D01*
X-3061670Y-8219922D01*
X-3039533Y-8216708D01*
X-2874476Y-8181635D01*
X-2716046Y-8131395D01*
X-2565063Y-8066592D01*
X-2422345Y-7987830D01*
X-2288711Y-7895712D01*
X-2164979Y-7790842D01*
X-2051968Y-7673823D01*
X-1950497Y-7545260D01*
X-1861383Y-7405754D01*
X-1811193Y-7310966D01*
X-1746100Y-7159491D01*
X-1697185Y-7005125D01*
X-1664158Y-6848913D01*
X-1646729Y-6691898D01*
X-1644605Y-6535124D01*
X-1657496Y-6379634D01*
X-1685112Y-6226473D01*
X-1727160Y-6076683D01*
X-1783351Y-5931309D01*
X-1853392Y-5791393D01*
X-1936993Y-5657980D01*
X-2033863Y-5532113D01*
X-2143711Y-5414836D01*
X-2266246Y-5307193D01*
X-2396067Y-5213546D01*
X-2537761Y-5131029D01*
X-2685614Y-5063814D01*
X-2838395Y-5011973D01*
X-2994871Y-4975573D01*
X-3153809Y-4954683D01*
X-3313976Y-4949373D01*
X-3474139Y-4959711D01*
X-3633067Y-4985767D01*
X-3789526Y-5027610D01*
X-3942285Y-5085308D01*
X-4021667Y-5122513D01*
X-4099132Y-5164723D01*
X-4180219Y-5214746D01*
X-4258181Y-5268207D01*
X-4322233Y-5317394D01*
X-4360300Y-5350582D01*
X-4404564Y-5392212D01*
X-4451609Y-5438783D01*
X-4498016Y-5486793D01*
X-4540370Y-5532740D01*
X-4575253Y-5573122D01*
X-4590427Y-5592233D01*
X-4685850Y-5732041D01*
X-4766410Y-5879947D01*
X-4832072Y-6035878D01*
X-4882802Y-6199760D01*
X-4900224Y-6273619D01*
X-4907366Y-6307929D01*
X-4912838Y-6337844D01*
X-4916860Y-6366449D01*
X-4919654Y-6396827D01*
X-4921441Y-6432063D01*
X-4922440Y-6475243D01*
X-4922873Y-6529449D01*
X-4922961Y-6591300D01*
X-5736157Y-6591300D01*
X-5736756Y-6490979D01*
X-5722299Y-6294582D01*
X-5692516Y-6100132D01*
X-5647714Y-5909183D01*
X-5588200Y-5723291D01*
X-5514281Y-5544009D01*
X-5426264Y-5372891D01*
X-5417216Y-5357178D01*
X-5402084Y-5328667D01*
X-5392246Y-5305154D01*
X-5389407Y-5290860D01*
X-5389847Y-5289445D01*
X-5412515Y-5255860D01*
X-5444018Y-5217674D01*
X-5479540Y-5180304D01*
X-5514266Y-5149169D01*
X-5515127Y-5148481D01*
X-5582642Y-5100296D01*
X-5655260Y-5059667D01*
X-5734821Y-5026041D01*
X-5823166Y-4998868D01*
X-5922133Y-4977594D01*
X-6033563Y-4961668D01*
X-6159297Y-4950538D01*
X-6179110Y-4949272D01*
X-6359652Y-4938248D01*
X-6430042Y-4903368D01*
X-6499826Y-4860306D01*
X-6557068Y-4807738D01*
X-6601775Y-4747533D01*
X-6633952Y-4681557D01*
X-6653603Y-4611677D01*
X-6660735Y-4539761D01*
X-6655351Y-4467676D01*
X-6637458Y-4397289D01*
X-6607061Y-4330467D01*
X-6564164Y-4269078D01*
X-6508774Y-4214988D01*
X-6440895Y-4170066D01*
X-6427974Y-4163406D01*
X-6355515Y-4127500D01*
X-4822408Y-4123266D01*
X-3289300Y-4119033D01*
X-3284962Y-2821843D01*
X-3351888Y-2816262D01*
X-3456655Y-2799667D01*
X-3559051Y-2768317D01*
X-3656515Y-2723574D01*
X-3746487Y-2666797D01*
X-3826406Y-2599346D01*
X-3886200Y-2532479D01*
X-3932767Y-2472401D01*
X-4323458Y-2472334D01*
X-4415632Y-2472281D01*
X-4492524Y-2472114D01*
X-4555788Y-2471770D01*
X-4607075Y-2471188D01*
X-4648038Y-2470304D01*
X-4680329Y-2469056D01*
X-4705600Y-2467381D01*
X-4725505Y-2465216D01*
X-4741694Y-2462499D01*
X-4755820Y-2459168D01*
X-4768569Y-2455458D01*
X-4845067Y-2423176D01*
X-4913100Y-2376682D01*
X-4971401Y-2317095D01*
X-5018701Y-2245531D01*
X-5028257Y-2226733D01*
X-5040743Y-2200279D01*
X-5049257Y-2179199D01*
X-5054555Y-2159187D01*
X-5057391Y-2135939D01*
X-5058520Y-2105149D01*
X-5058696Y-2062513D01*
X-5058685Y-2053167D01*
X-5058232Y-2005082D01*
X-5056667Y-1969663D01*
X-5053460Y-1942650D01*
X-5048078Y-1919785D01*
X-5039991Y-1896809D01*
X-5038792Y-1893788D01*
X-5001328Y-1822497D01*
X-4949819Y-1758723D01*
X-4886175Y-1704313D01*
X-4812305Y-1661110D01*
X-4786113Y-1649668D01*
X-4774502Y-1645119D01*
X-4763206Y-1641317D01*
X-4750634Y-1638186D01*
X-4735199Y-1635647D01*
X-4715309Y-1633621D01*
X-4689375Y-1632029D01*
X-4655808Y-1630794D01*
X-4613018Y-1629837D01*
X-4559416Y-1629080D01*
X-4493411Y-1628443D01*
X-4413414Y-1627849D01*
X-4333207Y-1627319D01*
X-3929313Y-1624697D01*
X-3899263Y-1583760D01*
X-3835725Y-1510389D01*
X-3758809Y-1443838D01*
X-3671322Y-1385952D01*
X-3576068Y-1338570D01*
X-3475855Y-1303536D01*
X-3469792Y-1301879D01*
X-3399367Y-1282940D01*
X-71967Y-1280311D01*
X242589Y-1280080D01*
X540447Y-1279897D01*
X821842Y-1279763D01*
X1087012Y-1279677D01*
X1336191Y-1279641D01*
X1569615Y-1279655D01*
X1787519Y-1279719D01*
X1990140Y-1279835D01*
X2177712Y-1280001D01*
X2350473Y-1280219D01*
X2508656Y-1280490D01*
X2652498Y-1280813D01*
X2782235Y-1281189D01*
X2898102Y-1281619D01*
X3000334Y-1282103D01*
X3089168Y-1282641D01*
X3164839Y-1283234D01*
X3227583Y-1283883D01*
X3277635Y-1284587D01*
X3315231Y-1285348D01*
X3340607Y-1286165D01*
X3352594Y-1286891D01*
X3461164Y-1304757D01*
X3565033Y-1336748D01*
X3662181Y-1381796D01*
X3750589Y-1438831D01*
X3828236Y-1506785D01*
X3878933Y-1565240D01*
X3924300Y-1624667D01*
X4297395Y-1625134D01*
X4392788Y-1625472D01*
X4478741Y-1626218D01*
X4553980Y-1627343D01*
X4617228Y-1628818D01*
X4667210Y-1630615D01*
X4702651Y-1632703D01*
X4720728Y-1634747D01*
X4782634Y-1652472D01*
X4845592Y-1681873D01*
X4902870Y-1719582D01*
X4921395Y-1735075D01*
X4976183Y-1794829D01*
X5017097Y-1861598D01*
X5044375Y-1933336D01*
X5058250Y-2008000D01*
X5058958Y-2083542D01*
X5046735Y-2157920D01*
X5021815Y-2229088D01*
X4984435Y-2295001D01*
X4934828Y-2353614D01*
X4873230Y-2402882D01*
X4842486Y-2421022D01*
X4820669Y-2432461D01*
X4800698Y-2442050D01*
X4780890Y-2449952D01*
X4759559Y-2456330D01*
X4735023Y-2461349D01*
X4705596Y-2465171D01*
X4669596Y-2467962D01*
X4625337Y-2469884D01*
X4571136Y-2471101D01*
X4505309Y-2471778D01*
X4426172Y-2472076D01*
X4332040Y-2472162D01*
X4316378Y-2472166D01*
X3929523Y-2472267D01*
X3891723Y-2520950D01*
X3815447Y-2605977D01*
X3729533Y-2677118D01*
X3634221Y-2734239D01*
X3529754Y-2777205D01*
X3416372Y-2805882D01*
X3364789Y-2813806D01*
X3280833Y-2824349D01*
X3280833Y-4119033D01*
X4813300Y-4123266D01*
X6345766Y-4127500D01*
X6394236Y-4147078D01*
X6465884Y-4184813D01*
X6529782Y-4235960D01*
X6583312Y-4297889D01*
X6623854Y-4367971D01*
X6630970Y-4384724D01*
X6639500Y-4408980D01*
X6645070Y-4433413D01*
X6648261Y-4462593D01*
X6649650Y-4501091D01*
X6649862Y-4533900D01*
X6649357Y-4580909D01*
X6647450Y-4615610D01*
X6643550Y-4642609D01*
X6637067Y-4666512D01*
X6630636Y-4683970D01*
X6594302Y-4753924D01*
X6544765Y-4816752D01*
X6484849Y-4869644D01*
X6417380Y-4909789D01*
X6393342Y-4919990D01*
X6367952Y-4928101D01*
X6337559Y-4934410D01*
X6298800Y-4939398D01*
X6248311Y-4943547D01*
X6214533Y-4945635D01*
X6100006Y-4953698D01*
X5999953Y-4964243D01*
X5912036Y-4977723D01*
X5833918Y-4994593D01*
X5763261Y-5015307D01*
X5697728Y-5040320D01*
X5674862Y-5050501D01*
X5582453Y-5101439D01*
X5502810Y-5163165D01*
X5435115Y-5236356D01*
X5411636Y-5268357D01*
X5384022Y-5308548D01*
X5417262Y-5365724D01*
X5500759Y-5524881D01*
X5572913Y-5694955D01*
X5632919Y-5873609D01*
X5679972Y-6058506D01*
X5707691Y-6208977D01*
X5715631Y-6273117D01*
X5722058Y-6349663D01*
X5726844Y-6434146D01*
X5729859Y-6522100D01*
X5730977Y-6609056D01*
X5730069Y-6690547D01*
X5727007Y-6762106D01*
X5724465Y-6794500D01*
X5701377Y-6970091D01*
X5665988Y-7145880D01*
X5619522Y-7316401D01*
X5583714Y-7422499D01*
X5541453Y-7526777D01*
X5488938Y-7638196D01*
X5428529Y-7752600D01*
X5362582Y-7865828D01*
X5293456Y-7973723D01*
X5223508Y-8072126D01*
X5193301Y-8111067D01*
X5154163Y-8157313D01*
X5105157Y-8211033D01*
X5049536Y-8268996D01*
X4990552Y-8327971D01*
X4931459Y-8384727D01*
X4875509Y-8436033D01*
X4825953Y-8478659D01*
X4811547Y-8490278D01*
X4646748Y-8609842D01*
X4474119Y-8714754D01*
X4294607Y-8804768D01*
X4109155Y-8879637D01*
X3918709Y-8939117D01*
X3724213Y-8982962D01*
X3526614Y-9010925D01*
X3326855Y-9022761D01*
X3125882Y-9018224D01*
X2924640Y-8997068D01*
X2886186Y-8991106D01*
X2689635Y-8950614D01*
X2497920Y-8894355D01*
X2312010Y-8822930D01*
X2132874Y-8736938D01*
X1961482Y-8636980D01*
X1798805Y-8523656D01*
X1645811Y-8397567D01*
X1503470Y-8259313D01*
X1372753Y-8109494D01*
X1293791Y-8005233D01*
X1185264Y-7839922D01*
X1090429Y-7667309D01*
X1009924Y-7488978D01*
X944383Y-7306510D01*
X894441Y-7121490D01*
X860734Y-6935499D01*
X858871Y-6921500D01*
X853008Y-6879202D01*
X846995Y-6840743D01*
X841567Y-6810564D01*
X837715Y-6793899D01*
X836827Y-6782544D01*
X835982Y-6754697D01*
X835183Y-6710798D01*
X834465Y-6653928D01*
X1644252Y-6653928D01*
X1649918Y-6763301D01*
X1662696Y-6866082D01*
X1683249Y-6966931D01*
X1712237Y-7070510D01*
X1728266Y-7119416D01*
X1789718Y-7273868D01*
X1865673Y-7420103D01*
X1955375Y-7557250D01*
X2058070Y-7684442D01*
X2173004Y-7800809D01*
X2299423Y-7905483D01*
X2436572Y-7997593D01*
X2540065Y-8054897D01*
X2694605Y-8124045D01*
X2854420Y-8177289D01*
X3018419Y-8214302D01*
X3124200Y-8229229D01*
X3175945Y-8232848D01*
X3239374Y-8234190D01*
X3309414Y-8233412D01*
X3380991Y-8230671D01*
X3449032Y-8226122D01*
X3508463Y-8219922D01*
X3530600Y-8216708D01*
X3695117Y-8181748D01*
X3852562Y-8131861D01*
X4002211Y-8067809D01*
X4143342Y-7990352D01*
X4275231Y-7900253D01*
X4397156Y-7798273D01*
X4508393Y-7685173D01*
X4608220Y-7561715D01*
X4695913Y-7428661D01*
X4770750Y-7286772D01*
X4832008Y-7136809D01*
X4878964Y-6979535D01*
X4910895Y-6815710D01*
X4918644Y-6754617D01*
X4927347Y-6597674D01*
X4919826Y-6439584D01*
X4896556Y-6282016D01*
X4858010Y-6126643D01*
X4804662Y-5975132D01*
X4736986Y-5829155D01*
X4655456Y-5690382D01*
X4590711Y-5598834D01*
X4484860Y-5473339D01*
X4368681Y-5360480D01*
X4243302Y-5260576D01*
X4109854Y-5173947D01*
X3969464Y-5100912D01*
X3823263Y-5041790D01*
X3672378Y-4996901D01*
X3517940Y-4966564D01*
X3361076Y-4951098D01*
X3202916Y-4950822D01*
X3044590Y-4966056D01*
X2887225Y-4997118D01*
X2731952Y-5044329D01*
X2688167Y-5060815D01*
X2550009Y-5121903D01*
X2422302Y-5192948D01*
X2302270Y-5275813D01*
X2187136Y-5372365D01*
X2103415Y-5453765D01*
X1996782Y-5573433D01*
X1905446Y-5697885D01*
X1827942Y-5829509D01*
X1762806Y-5970688D01*
X1727297Y-6066090D01*
X1698378Y-6157397D01*
X1676723Y-6242359D01*
X1661365Y-6326473D01*
X1651334Y-6415236D01*
X1645663Y-6514144D01*
X1645036Y-6533303D01*
X1644252Y-6653928D01*
X834465Y-6653928D01*
X834431Y-6651287D01*
X833728Y-6576607D01*
X3995116Y62259D02*
X4065827Y47248D01*
X4065827Y47248D02*
X4131906Y19022D01*
X4131906Y19022D02*
X4191439Y-21581D01*
X4191439Y-21581D02*
X4242512Y-73725D01*
X4242512Y-73725D02*
X4283211Y-136573D01*
X4283211Y-136573D02*
X4311622Y-209286D01*
X4311622Y-209286D02*
X4313488Y-216196D01*
X4313488Y-216196D02*
X4325485Y-292958D01*
X4325485Y-292958D02*
X4322273Y-368477D01*
X4322273Y-368477D02*
X4304990Y-440731D01*
X4304990Y-440731D02*
X4274776Y-507699D01*
X4274776Y-507699D02*
X4232767Y-567360D01*
X4232767Y-567360D02*
X4180102Y-617692D01*
X4180102Y-617692D02*
X4117920Y-656675D01*
X4117920Y-656675D02*
X4051638Y-681208D01*
X4051638Y-681208D02*
X3995884Y-690694D01*
X3995884Y-690694D02*
X3935351Y-692878D01*
X3935351Y-692878D02*
X3877946Y-687728D01*
X3877946Y-687728D02*
X3851423Y-681994D01*
X3851423Y-681994D02*
X3786885Y-656168D01*
X3786885Y-656168D02*
X3725610Y-616627D01*
X3725610Y-616627D02*
X3671395Y-566578D01*
X3671395Y-566578D02*
X3628038Y-509232D01*
X3628038Y-509232D02*
X3612059Y-479759D01*
X3612059Y-479759D02*
X3586640Y-407474D01*
X3586640Y-407474D02*
X3576485Y-332984D01*
X3576485Y-332984D02*
X3579278Y-285212D01*
X3579278Y-285212D02*
X3648668Y-285212D01*
X3648668Y-285212D02*
X3649144Y-351535D01*
X3649144Y-351535D02*
X3662996Y-416830D01*
X3662996Y-416830D02*
X3690595Y-478808D01*
X3690595Y-478808D02*
X3732312Y-535181D01*
X3732312Y-535181D02*
X3747545Y-550572D01*
X3747545Y-550572D02*
X3806027Y-595964D01*
X3806027Y-595964D02*
X3867939Y-624773D01*
X3867939Y-624773D02*
X3933264Y-636997D01*
X3933264Y-636997D02*
X4001982Y-632631D01*
X4001982Y-632631D02*
X4064000Y-615522D01*
X4064000Y-615522D02*
X4108940Y-591914D01*
X4108940Y-591914D02*
X4153460Y-556163D01*
X4153460Y-556163D02*
X4193253Y-512608D01*
X4193253Y-512608D02*
X4224013Y-465588D01*
X4224013Y-465588D02*
X4233743Y-444500D01*
X4233743Y-444500D02*
X4244374Y-413395D01*
X4244374Y-413395D02*
X4250664Y-382258D01*
X4250664Y-382258D02*
X4253596Y-344780D01*
X4253596Y-344780D02*
X4254168Y-313267D01*
X4254168Y-313267D02*
X4253794Y-273445D01*
X4253794Y-273445D02*
X4251506Y-244545D01*
X4251506Y-244545D02*
X4246146Y-220570D01*
X4246146Y-220570D02*
X4236553Y-195527D01*
X4236553Y-195527D02*
X4227623Y-176100D01*
X4227623Y-176100D02*
X4190468Y-114941D01*
X4190468Y-114941D02*
X4142556Y-63495D01*
X4142556Y-63495D02*
X4086821Y-24776D01*
X4086821Y-24776D02*
X4074130Y-18419D01*
X4074130Y-18419D02*
X4045436Y-6455D01*
X4045436Y-6455D02*
X4018632Y456D01*
X4018632Y456D02*
X3987011Y3575D01*
X3987011Y3575D02*
X3953933Y4188D01*
X3953933Y4188D02*
X3913793Y3249D01*
X3913793Y3249D02*
X3883840Y-463D01*
X3883840Y-463D02*
X3857395Y-8197D01*
X3857395Y-8197D02*
X3833917Y-18291D01*
X3833917Y-18291D02*
X3773088Y-55420D01*
X3773088Y-55420D02*
X3723777Y-102965D01*
X3723777Y-102965D02*
X3686355Y-158638D01*
X3686355Y-158638D02*
X3661195Y-220150D01*
X3661195Y-220150D02*
X3648668Y-285212D01*
X3648668Y-285212D02*
X3579278Y-285212D01*
X3579278Y-285212D02*
X3580832Y-258635D01*
X3580832Y-258635D02*
X3598920Y-186770D01*
X3598920Y-186770D02*
X3629986Y-119736D01*
X3629986Y-119736D02*
X3673268Y-59875D01*
X3673268Y-59875D02*
X3728006Y-9534D01*
X3728006Y-9534D02*
X3774329Y19632D01*
X3774329Y19632D02*
X3847453Y49288D01*
X3847453Y49288D02*
X3921686Y63218D01*
X3921686Y63218D02*
X3995116Y62259D01*
X3995116Y62259D02*
X3995116Y62259D01*
G36*
X3598920Y-186770D02*
G01*
X3629986Y-119736D01*
X3673268Y-59875D01*
X3728006Y-9534D01*
X3774329Y19632D01*
X3847453Y49288D01*
X3921686Y63218D01*
X3995116Y62259D01*
X4065827Y47248D01*
X4131906Y19022D01*
X4191439Y-21581D01*
X4242512Y-73725D01*
X4283211Y-136573D01*
X4311622Y-209286D01*
X4313488Y-216196D01*
X4325485Y-292958D01*
X4322273Y-368477D01*
X4304990Y-440731D01*
X4274776Y-507699D01*
X4232767Y-567360D01*
X4180102Y-617692D01*
X4117920Y-656675D01*
X4051638Y-681208D01*
X3995884Y-690694D01*
X3935351Y-692878D01*
X3877946Y-687728D01*
X3851423Y-681994D01*
X3786885Y-656168D01*
X3725610Y-616627D01*
X3671395Y-566578D01*
X3628038Y-509232D01*
X3612059Y-479759D01*
X3586640Y-407474D01*
X3576485Y-332984D01*
X3579278Y-285212D01*
X3648668Y-285212D01*
X3649144Y-351535D01*
X3662996Y-416830D01*
X3690595Y-478808D01*
X3732312Y-535181D01*
X3747545Y-550572D01*
X3806027Y-595964D01*
X3867939Y-624773D01*
X3933264Y-636997D01*
X4001982Y-632631D01*
X4064000Y-615522D01*
X4108940Y-591914D01*
X4153460Y-556163D01*
X4193253Y-512608D01*
X4224013Y-465588D01*
X4233743Y-444500D01*
X4244374Y-413395D01*
X4250664Y-382258D01*
X4253596Y-344780D01*
X4254168Y-313267D01*
X4253794Y-273445D01*
X4251506Y-244545D01*
X4246146Y-220570D01*
X4236553Y-195527D01*
X4227623Y-176100D01*
X4190468Y-114941D01*
X4142556Y-63495D01*
X4086821Y-24776D01*
X4074130Y-18419D01*
X4045436Y-6455D01*
X4018632Y456D01*
X3987011Y3575D01*
X3953933Y4188D01*
X3913793Y3249D01*
X3883840Y-463D01*
X3857395Y-8197D01*
X3833917Y-18291D01*
X3773088Y-55420D01*
X3723777Y-102965D01*
X3686355Y-158638D01*
X3661195Y-220150D01*
X3648668Y-285212D01*
X3579278Y-285212D01*
X3580832Y-258635D01*
X3598920Y-186770D01*
G37*
X3598920Y-186770D02*
X3629986Y-119736D01*
X3673268Y-59875D01*
X3728006Y-9534D01*
X3774329Y19632D01*
X3847453Y49288D01*
X3921686Y63218D01*
X3995116Y62259D01*
X4065827Y47248D01*
X4131906Y19022D01*
X4191439Y-21581D01*
X4242512Y-73725D01*
X4283211Y-136573D01*
X4311622Y-209286D01*
X4313488Y-216196D01*
X4325485Y-292958D01*
X4322273Y-368477D01*
X4304990Y-440731D01*
X4274776Y-507699D01*
X4232767Y-567360D01*
X4180102Y-617692D01*
X4117920Y-656675D01*
X4051638Y-681208D01*
X3995884Y-690694D01*
X3935351Y-692878D01*
X3877946Y-687728D01*
X3851423Y-681994D01*
X3786885Y-656168D01*
X3725610Y-616627D01*
X3671395Y-566578D01*
X3628038Y-509232D01*
X3612059Y-479759D01*
X3586640Y-407474D01*
X3576485Y-332984D01*
X3579278Y-285212D01*
X3648668Y-285212D01*
X3649144Y-351535D01*
X3662996Y-416830D01*
X3690595Y-478808D01*
X3732312Y-535181D01*
X3747545Y-550572D01*
X3806027Y-595964D01*
X3867939Y-624773D01*
X3933264Y-636997D01*
X4001982Y-632631D01*
X4064000Y-615522D01*
X4108940Y-591914D01*
X4153460Y-556163D01*
X4193253Y-512608D01*
X4224013Y-465588D01*
X4233743Y-444500D01*
X4244374Y-413395D01*
X4250664Y-382258D01*
X4253596Y-344780D01*
X4254168Y-313267D01*
X4253794Y-273445D01*
X4251506Y-244545D01*
X4246146Y-220570D01*
X4236553Y-195527D01*
X4227623Y-176100D01*
X4190468Y-114941D01*
X4142556Y-63495D01*
X4086821Y-24776D01*
X4074130Y-18419D01*
X4045436Y-6455D01*
X4018632Y456D01*
X3987011Y3575D01*
X3953933Y4188D01*
X3913793Y3249D01*
X3883840Y-463D01*
X3857395Y-8197D01*
X3833917Y-18291D01*
X3773088Y-55420D01*
X3723777Y-102965D01*
X3686355Y-158638D01*
X3661195Y-220150D01*
X3648668Y-285212D01*
X3579278Y-285212D01*
X3580832Y-258635D01*
X3598920Y-186770D01*
X-423333Y6104467D02*
X-1371600Y6104467D01*
X-1371600Y6104467D02*
X-1371600Y2319867D01*
X-1371600Y2319867D02*
X1481667Y2319867D01*
X1481667Y2319867D02*
X1481667Y6104467D01*
X1481667Y6104467D02*
X533400Y6104467D01*
X533400Y6104467D02*
X533400Y8957733D01*
X533400Y8957733D02*
X5274733Y8957733D01*
X5274733Y8957733D02*
X5274733Y6104467D01*
X5274733Y6104467D02*
X4318000Y6104467D01*
X4318000Y6104467D02*
X4318413Y3731683D01*
X4318413Y3731683D02*
X4318825Y1358900D01*
X4318825Y1358900D02*
X3372263Y417231D01*
X3372263Y417231D02*
X2425700Y-524438D01*
X2425700Y-524438D02*
X-2315634Y-524864D01*
X-2315634Y-524864D02*
X-4207904Y1356052D01*
X-4207904Y1356052D02*
X-4210035Y3728143D01*
X-4210035Y3728143D02*
X-4212167Y6100233D01*
X-4212167Y6100233D02*
X-4688417Y6102421D01*
X-4688417Y6102421D02*
X-5164667Y6104608D01*
X-5164667Y6104608D02*
X-5164667Y8957733D01*
X-5164667Y8957733D02*
X-423333Y8957733D01*
X-423333Y8957733D02*
X-423333Y6104467D01*
X-423333Y6104467D02*
X-423333Y6104467D01*
G36*
X-423333Y6104467D02*
G01*
X-1371600Y6104467D01*
X-1371600Y2319867D01*
X1481667Y2319867D01*
X1481667Y6104467D01*
X533400Y6104467D01*
X533400Y8957733D01*
X5274733Y8957733D01*
X5274733Y6104467D01*
X4318000Y6104467D01*
X4318413Y3731683D01*
X4318825Y1358900D01*
X3372263Y417231D01*
X2425700Y-524438D01*
X-2315634Y-524864D01*
X-4207904Y1356052D01*
X-4210035Y3728143D01*
X-4212167Y6100233D01*
X-4688417Y6102421D01*
X-5164667Y6104608D01*
X-5164667Y8957733D01*
X-423333Y8957733D01*
X-423333Y6104467D01*
G37*
X-423333Y6104467D02*
X-1371600Y6104467D01*
X-1371600Y2319867D01*
X1481667Y2319867D01*
X1481667Y6104467D01*
X533400Y6104467D01*
X533400Y8957733D01*
X5274733Y8957733D01*
X5274733Y6104467D01*
X4318000Y6104467D01*
X4318413Y3731683D01*
X4318825Y1358900D01*
X3372263Y417231D01*
X2425700Y-524438D01*
X-2315634Y-524864D01*
X-4207904Y1356052D01*
X-4210035Y3728143D01*
X-4212167Y6100233D01*
X-4688417Y6102421D01*
X-5164667Y6104608D01*
X-5164667Y8957733D01*
X-423333Y8957733D01*
X-423333Y6104467D01*
X3957667Y-103939D02*
X4001126Y-109249D01*
X4001126Y-109249D02*
X4035701Y-117864D01*
X4035701Y-117864D02*
X4046314Y-122377D01*
X4046314Y-122377D02*
X4075680Y-143779D01*
X4075680Y-143779D02*
X4092240Y-172585D01*
X4092240Y-172585D02*
X4097837Y-212138D01*
X4097837Y-212138D02*
X4097866Y-215900D01*
X4097866Y-215900D02*
X4092959Y-256677D01*
X4092959Y-256677D02*
X4076717Y-287354D01*
X4076717Y-287354D02*
X4046862Y-312143D01*
X4046862Y-312143D02*
X4045223Y-313150D01*
X4045223Y-313150D02*
X4029329Y-323651D01*
X4029329Y-323651D02*
X4026885Y-329380D01*
X4026885Y-329380D02*
X4036528Y-333775D01*
X4036528Y-333775D02*
X4036987Y-333921D01*
X4036987Y-333921D02*
X4057149Y-347117D01*
X4057149Y-347117D02*
X4073573Y-373518D01*
X4073573Y-373518D02*
X4087002Y-414564D01*
X4087002Y-414564D02*
X4093067Y-442270D01*
X4093067Y-442270D02*
X4099732Y-474654D01*
X4099732Y-474654D02*
X4106066Y-501935D01*
X4106066Y-501935D02*
X4110766Y-518524D01*
X4110766Y-518524D02*
X4110994Y-519124D01*
X4110994Y-519124D02*
X4112815Y-528523D01*
X4112815Y-528523D02*
X4105921Y-532404D01*
X4105921Y-532404D02*
X4086686Y-532264D01*
X4086686Y-532264D02*
X4080202Y-531824D01*
X4080202Y-531824D02*
X4064021Y-530668D01*
X4064021Y-530668D02*
X4052797Y-528096D01*
X4052797Y-528096D02*
X4044810Y-521290D01*
X4044810Y-521290D02*
X4038337Y-507428D01*
X4038337Y-507428D02*
X4031659Y-483694D01*
X4031659Y-483694D02*
X4023054Y-447267D01*
X4023054Y-447267D02*
X4019646Y-432610D01*
X4019646Y-432610D02*
X4005872Y-393839D01*
X4005872Y-393839D02*
X3984492Y-369063D01*
X3984492Y-369063D02*
X3952860Y-356084D01*
X3952860Y-356084D02*
X3923556Y-352855D01*
X3923556Y-352855D02*
X3881967Y-351367D01*
X3881967Y-351367D02*
X3879563Y-442383D01*
X3879563Y-442383D02*
X3877160Y-533400D01*
X3877160Y-533400D02*
X3818467Y-533400D01*
X3818467Y-533400D02*
X3818467Y-221969D01*
X3818467Y-221969D02*
X3877733Y-221969D01*
X3877733Y-221969D02*
X3878360Y-255272D01*
X3878360Y-255272D02*
X3880031Y-281787D01*
X3880031Y-281787D02*
X3882430Y-297193D01*
X3882430Y-297193D02*
X3883378Y-299155D01*
X3883378Y-299155D02*
X3897379Y-303779D01*
X3897379Y-303779D02*
X3922066Y-304245D01*
X3922066Y-304245D02*
X3951755Y-300741D01*
X3951755Y-300741D02*
X3971714Y-296238D01*
X3971714Y-296238D02*
X4005193Y-280465D01*
X4005193Y-280465D02*
X4026051Y-257121D01*
X4026051Y-257121D02*
X4033257Y-229298D01*
X4033257Y-229298D02*
X4025776Y-200088D01*
X4025776Y-200088D02*
X4010601Y-179819D01*
X4010601Y-179819D02*
X3994615Y-166792D01*
X3994615Y-166792D02*
X3975552Y-159174D01*
X3975552Y-159174D02*
X3947628Y-155038D01*
X3947628Y-155038D02*
X3932990Y-153946D01*
X3932990Y-153946D02*
X3877733Y-150427D01*
X3877733Y-150427D02*
X3877733Y-221969D01*
X3877733Y-221969D02*
X3818467Y-221969D01*
X3818467Y-221969D02*
X3818467Y-111285D01*
X3818467Y-111285D02*
X3866173Y-105324D01*
X3866173Y-105324D02*
X3910843Y-102457D01*
X3910843Y-102457D02*
X3957667Y-103939D01*
X3957667Y-103939D02*
X3957667Y-103939D01*
G36*
X3866173Y-105324D02*
G01*
X3910843Y-102457D01*
X3957667Y-103939D01*
X4001126Y-109249D01*
X4035701Y-117864D01*
X4046314Y-122377D01*
X4075680Y-143779D01*
X4092240Y-172585D01*
X4097837Y-212138D01*
X4097866Y-215900D01*
X4092959Y-256677D01*
X4076717Y-287354D01*
X4046862Y-312143D01*
X4045223Y-313150D01*
X4029329Y-323651D01*
X4026885Y-329380D01*
X4036528Y-333775D01*
X4036987Y-333921D01*
X4057149Y-347117D01*
X4073573Y-373518D01*
X4087002Y-414564D01*
X4093067Y-442270D01*
X4099732Y-474654D01*
X4106066Y-501935D01*
X4110766Y-518524D01*
X4110994Y-519124D01*
X4112815Y-528523D01*
X4105921Y-532404D01*
X4086686Y-532264D01*
X4080202Y-531824D01*
X4064021Y-530668D01*
X4052797Y-528096D01*
X4044810Y-521290D01*
X4038337Y-507428D01*
X4031659Y-483694D01*
X4023054Y-447267D01*
X4019646Y-432610D01*
X4005872Y-393839D01*
X3984492Y-369063D01*
X3952860Y-356084D01*
X3923556Y-352855D01*
X3881967Y-351367D01*
X3879563Y-442383D01*
X3877160Y-533400D01*
X3818467Y-533400D01*
X3818467Y-150427D01*
X3877733Y-150427D01*
X3877733Y-221969D01*
X3878360Y-255272D01*
X3880031Y-281787D01*
X3882430Y-297193D01*
X3883378Y-299155D01*
X3897379Y-303779D01*
X3922066Y-304245D01*
X3951755Y-300741D01*
X3971714Y-296238D01*
X4005193Y-280465D01*
X4026051Y-257121D01*
X4033257Y-229298D01*
X4025776Y-200088D01*
X4010601Y-179819D01*
X3994615Y-166792D01*
X3975552Y-159174D01*
X3947628Y-155038D01*
X3932990Y-153946D01*
X3877733Y-150427D01*
X3818467Y-150427D01*
X3818467Y-111285D01*
X3866173Y-105324D01*
G37*
X3866173Y-105324D02*
X3910843Y-102457D01*
X3957667Y-103939D01*
X4001126Y-109249D01*
X4035701Y-117864D01*
X4046314Y-122377D01*
X4075680Y-143779D01*
X4092240Y-172585D01*
X4097837Y-212138D01*
X4097866Y-215900D01*
X4092959Y-256677D01*
X4076717Y-287354D01*
X4046862Y-312143D01*
X4045223Y-313150D01*
X4029329Y-323651D01*
X4026885Y-329380D01*
X4036528Y-333775D01*
X4036987Y-333921D01*
X4057149Y-347117D01*
X4073573Y-373518D01*
X4087002Y-414564D01*
X4093067Y-442270D01*
X4099732Y-474654D01*
X4106066Y-501935D01*
X4110766Y-518524D01*
X4110994Y-519124D01*
X4112815Y-528523D01*
X4105921Y-532404D01*
X4086686Y-532264D01*
X4080202Y-531824D01*
X4064021Y-530668D01*
X4052797Y-528096D01*
X4044810Y-521290D01*
X4038337Y-507428D01*
X4031659Y-483694D01*
X4023054Y-447267D01*
X4019646Y-432610D01*
X4005872Y-393839D01*
X3984492Y-369063D01*
X3952860Y-356084D01*
X3923556Y-352855D01*
X3881967Y-351367D01*
X3879563Y-442383D01*
X3877160Y-533400D01*
X3818467Y-533400D01*
X3818467Y-150427D01*
X3877733Y-150427D01*
X3877733Y-221969D01*
X3878360Y-255272D01*
X3880031Y-281787D01*
X3882430Y-297193D01*
X3883378Y-299155D01*
X3897379Y-303779D01*
X3922066Y-304245D01*
X3951755Y-300741D01*
X3971714Y-296238D01*
X4005193Y-280465D01*
X4026051Y-257121D01*
X4033257Y-229298D01*
X4025776Y-200088D01*
X4010601Y-179819D01*
X3994615Y-166792D01*
X3975552Y-159174D01*
X3947628Y-155038D01*
X3932990Y-153946D01*
X3877733Y-150427D01*
X3818467Y-150427D01*
X3818467Y-111285D01*
X3866173Y-105324D01*
D11*
%TO.C,U3*%
X116146000Y-71442000D02*
X114486000Y-71442000D01*
X114486000Y-69782000D02*
X116146000Y-69782000D01*
X116146000Y-69782000D02*
X116146000Y-71442000D01*
X114486000Y-71442000D02*
X114486000Y-69782000D01*
D15*
X114231000Y-70112000D02*
G75*
G03*
X114231000Y-70112000I-125000J0D01*
G01*
D11*
%TO.C,U1*%
X199974000Y-71442000D02*
X198314000Y-71442000D01*
X198314000Y-69782000D02*
X199974000Y-69782000D01*
X199974000Y-69782000D02*
X199974000Y-71442000D01*
X198314000Y-71442000D02*
X198314000Y-69782000D01*
D15*
X198059000Y-70112000D02*
G75*
G03*
X198059000Y-70112000I-125000J0D01*
G01*
D11*
%TO.C,U2*%
X198814000Y-113978000D02*
X200474000Y-113978000D01*
X200474000Y-115638000D02*
X198814000Y-115638000D01*
X198814000Y-115638000D02*
X198814000Y-113978000D01*
X200474000Y-113978000D02*
X200474000Y-115638000D01*
D15*
X200979000Y-115308000D02*
G75*
G03*
X200979000Y-115308000I-125000J0D01*
G01*
D11*
%TO.C,U4*%
X114994000Y-113978000D02*
X116654000Y-113978000D01*
X116654000Y-115638000D02*
X114994000Y-115638000D01*
X114994000Y-115638000D02*
X114994000Y-113978000D01*
X116654000Y-113978000D02*
X116654000Y-115638000D01*
D15*
X117159000Y-115308000D02*
G75*
G03*
X117159000Y-115308000I-125000J0D01*
G01*
D16*
%TO.C,C6*%
X117113164Y-71649000D02*
X117328836Y-71649000D01*
X117113164Y-72369000D02*
X117328836Y-72369000D01*
%TO.C,C7*%
X118510164Y-114956000D02*
X118725836Y-114956000D01*
X118510164Y-115676000D02*
X118725836Y-115676000D01*
%TO.C,C8*%
X114026836Y-113644000D02*
X113811164Y-113644000D01*
X114026836Y-112924000D02*
X113811164Y-112924000D01*
%TO.C,C1*%
X196576836Y-70464000D02*
X196361164Y-70464000D01*
X196576836Y-69744000D02*
X196361164Y-69744000D01*
%TO.C,C2*%
X200905164Y-71649000D02*
X201120836Y-71649000D01*
X200905164Y-72369000D02*
X201120836Y-72369000D01*
%TO.C,C3*%
X202203164Y-114956000D02*
X202418836Y-114956000D01*
X202203164Y-115676000D02*
X202418836Y-115676000D01*
%TO.C,C4*%
X197818836Y-113771000D02*
X197603164Y-113771000D01*
X197818836Y-113051000D02*
X197603164Y-113051000D01*
%TO.C,D4*%
X119160000Y-66000000D02*
X117930000Y-66000000D01*
X117930000Y-66000000D02*
X117930000Y-65200000D01*
X117930000Y-65200000D02*
X113210000Y-65200000D01*
X113210000Y-65200000D02*
X113210000Y-66000000D01*
X113210000Y-68620000D02*
X113210000Y-69420000D01*
X113210000Y-69420000D02*
X117930000Y-69420000D01*
X117930000Y-69420000D02*
X117930000Y-68620000D01*
X117930000Y-68620000D02*
X119110000Y-68620000D01*
%TO.C,D5*%
X111980000Y-119420000D02*
X113210000Y-119420000D01*
X113210000Y-119420000D02*
X113210000Y-120220000D01*
X113210000Y-120220000D02*
X117930000Y-120220000D01*
X117930000Y-120220000D02*
X117930000Y-119420000D01*
X117930000Y-116800000D02*
X117930000Y-116000000D01*
X117930000Y-116000000D02*
X113210000Y-116000000D01*
X113210000Y-116000000D02*
X113210000Y-116800000D01*
X113210000Y-116800000D02*
X112030000Y-116800000D01*
%TO.C,D2*%
X202980000Y-66000000D02*
X201750000Y-66000000D01*
X201750000Y-66000000D02*
X201750000Y-65200000D01*
X201750000Y-65200000D02*
X197030000Y-65200000D01*
X197030000Y-65200000D02*
X197030000Y-66000000D01*
X197030000Y-68620000D02*
X197030000Y-69420000D01*
X197030000Y-69420000D02*
X201750000Y-69420000D01*
X201750000Y-69420000D02*
X201750000Y-68620000D01*
X201750000Y-68620000D02*
X202930000Y-68620000D01*
%TO.C,D3*%
X195800000Y-119420000D02*
X197030000Y-119420000D01*
X197030000Y-119420000D02*
X197030000Y-120220000D01*
X197030000Y-120220000D02*
X201750000Y-120220000D01*
X201750000Y-120220000D02*
X201750000Y-119420000D01*
X201750000Y-116800000D02*
X201750000Y-116000000D01*
X201750000Y-116000000D02*
X197030000Y-116000000D01*
X197030000Y-116000000D02*
X197030000Y-116800000D01*
X197030000Y-116800000D02*
X195850000Y-116800000D01*
%TO.C,J2*%
X190440000Y-77470000D02*
X193100000Y-77470000D01*
X190440000Y-77470000D02*
X190440000Y-110550000D01*
X190440000Y-110550000D02*
X193100000Y-110550000D01*
X193100000Y-77470000D02*
X193100000Y-110550000D01*
X193100000Y-74870000D02*
X193100000Y-76200000D01*
X191770000Y-74870000D02*
X193100000Y-74870000D01*
%TO.C,J3*%
X152400000Y-100390000D02*
X152400000Y-97730000D01*
X152400000Y-100390000D02*
X165160000Y-100390000D01*
X165160000Y-100390000D02*
X165160000Y-97730000D01*
X152400000Y-97730000D02*
X165160000Y-97730000D01*
X149800000Y-97730000D02*
X151130000Y-97730000D01*
X149800000Y-99060000D02*
X149800000Y-97730000D01*
%TO.C,J4*%
X152400000Y-87690000D02*
X152400000Y-85030000D01*
X152400000Y-87690000D02*
X165160000Y-87690000D01*
X165160000Y-87690000D02*
X165160000Y-85030000D01*
X152400000Y-85030000D02*
X165160000Y-85030000D01*
X149800000Y-85030000D02*
X151130000Y-85030000D01*
X149800000Y-86360000D02*
X149800000Y-85030000D01*
%TO.C,J5*%
X129480000Y-74930000D02*
X132140000Y-74930000D01*
X129480000Y-74930000D02*
X129480000Y-113090000D01*
X129480000Y-113090000D02*
X132140000Y-113090000D01*
X132140000Y-74930000D02*
X132140000Y-113090000D01*
X132140000Y-72330000D02*
X132140000Y-73660000D01*
X130810000Y-72330000D02*
X132140000Y-72330000D01*
%TO.C,R1*%
X176376359Y-68200000D02*
X176683641Y-68200000D01*
X176376359Y-68960000D02*
X176683641Y-68960000D01*
%TO.C,R4*%
X112802641Y-71500000D02*
X112495359Y-71500000D01*
X112802641Y-70740000D02*
X112495359Y-70740000D01*
%TO.C,R5*%
X118464359Y-113793000D02*
X118771641Y-113793000D01*
X118464359Y-114553000D02*
X118771641Y-114553000D01*
%TO.C,R2*%
X196622641Y-71500000D02*
X196315359Y-71500000D01*
X196622641Y-70740000D02*
X196315359Y-70740000D01*
%TO.C,R3*%
X202157359Y-113920000D02*
X202464641Y-113920000D01*
X202157359Y-114680000D02*
X202464641Y-114680000D01*
%TO.C,C5*%
X112756836Y-70464000D02*
X112541164Y-70464000D01*
X112756836Y-69744000D02*
X112541164Y-69744000D01*
%TO.C,J1*%
X175200000Y-77470000D02*
X177860000Y-77470000D01*
X175200000Y-77470000D02*
X175200000Y-110550000D01*
X175200000Y-110550000D02*
X177860000Y-110550000D01*
X177860000Y-77470000D02*
X177860000Y-110550000D01*
X177860000Y-74870000D02*
X177860000Y-76200000D01*
X176530000Y-74870000D02*
X177860000Y-74870000D01*
D17*
%TO.C,D1*%
X157530000Y-66855000D02*
G75*
G03*
X157530000Y-66855000I-50000J0D01*
G01*
%TD*%
M02*
